<svg version="1.1" xmlns="http://www.w3.org/2000/svg" xmlns:xlink="http://www.w3.org/1999/xlink" width="563" height="542" style="background-color: white"><defs/><g><text fill="#eeeeee" stroke="none" font-family="Arial" font-size="24px" font-style="normal" font-weight="normal" text-decoration="none" x="0" y="0">UNREGISTERED</text><text fill="#eeeeee" stroke="none" font-family="Arial" font-size="24px" font-style="normal" font-weight="normal" text-decoration="none" x="0" y="30">UNREGISTERED</text><text fill="#eeeeee" stroke="none" font-family="Arial" font-size="24px" font-style="normal" font-weight="normal" text-decoration="none" x="0" y="60">UNREGISTERED</text><text fill="#eeeeee" stroke="none" font-family="Arial" font-size="24px" font-style="normal" font-weight="normal" text-decoration="none" x="0" y="90">UNREGISTERED</text><text fill="#eeeeee" stroke="none" font-family="Arial" font-size="24px" font-style="normal" font-weight="normal" text-decoration="none" x="0" y="120">UNREGISTERED</text><text fill="#eeeeee" stroke="none" font-family="Arial" font-size="24px" font-style="normal" font-weight="normal" text-decoration="none" x="0" y="150">UNREGISTERED</text><text fill="#eeeeee" stroke="none" font-family="Arial" font-size="24px" font-style="normal" font-weight="normal" text-decoration="none" x="0" y="180">UNREGISTERED</text><text fill="#eeeeee" stroke="none" font-family="Arial" font-size="24px" font-style="normal" font-weight="normal" text-decoration="none" x="0" y="210">UNREGISTERED</text><text fill="#eeeeee" stroke="none" font-family="Arial" font-size="24px" font-style="normal" font-weight="normal" text-decoration="none" x="0" y="240">UNREGISTERED</text><text fill="#eeeeee" stroke="none" font-family="Arial" font-size="24px" font-style="normal" font-weight="normal" text-decoration="none" x="0" y="270">UNREGISTERED</text><text fill="#eeeeee" stroke="none" font-family="Arial" font-size="24px" font-style="normal" font-weight="normal" text-decoration="none" x="0" y="300">UNREGISTERED</text><text fill="#eeeeee" stroke="none" font-family="Arial" font-size="24px" font-style="normal" font-weight="normal" text-decoration="none" x="0" y="330">UNREGISTERED</text><text fill="#eeeeee" stroke="none" font-family="Arial" font-size="24px" font-style="normal" font-weight="normal" text-decoration="none" x="0" y="360">UNREGISTERED</text><text fill="#eeeeee" stroke="none" font-family="Arial" font-size="24px" font-style="normal" font-weight="normal" text-decoration="none" x="0" y="390">UNREGISTERED</text><text fill="#eeeeee" stroke="none" font-family="Arial" font-size="24px" font-style="normal" font-weight="normal" text-decoration="none" x="0" y="420">UNREGISTERED</text><text fill="#eeeeee" stroke="none" font-family="Arial" font-size="24px" font-style="normal" font-weight="normal" text-decoration="none" x="0" y="450">UNREGISTERED</text><text fill="#eeeeee" stroke="none" font-family="Arial" font-size="24px" font-style="normal" font-weight="normal" text-decoration="none" x="0" y="480">UNREGISTERED</text><text fill="#eeeeee" stroke="none" font-family="Arial" font-size="24px" font-style="normal" font-weight="normal" text-decoration="none" x="0" y="510">UNREGISTERED</text><text fill="#eeeeee" stroke="none" font-family="Arial" font-size="24px" font-style="normal" font-weight="normal" text-decoration="none" x="0" y="540">UNREGISTERED</text><text fill="#eeeeee" stroke="none" font-family="Arial" font-size="24px" font-style="normal" font-weight="normal" text-decoration="none" x="200" y="0">UNREGISTERED</text><text fill="#eeeeee" stroke="none" font-family="Arial" font-size="24px" font-style="normal" font-weight="normal" text-decoration="none" x="200" y="30">UNREGISTERED</text><text fill="#eeeeee" stroke="none" font-family="Arial" font-size="24px" font-style="normal" font-weight="normal" text-decoration="none" x="200" y="60">UNREGISTERED</text><text fill="#eeeeee" stroke="none" font-family="Arial" font-size="24px" font-style="normal" font-weight="normal" text-decoration="none" x="200" y="90">UNREGISTERED</text><text fill="#eeeeee" stroke="none" font-family="Arial" font-size="24px" font-style="normal" font-weight="normal" text-decoration="none" x="200" y="120">UNREGISTERED</text><text fill="#eeeeee" stroke="none" font-family="Arial" font-size="24px" font-style="normal" font-weight="normal" text-decoration="none" x="200" y="150">UNREGISTERED</text><text fill="#eeeeee" stroke="none" font-family="Arial" font-size="24px" font-style="normal" font-weight="normal" text-decoration="none" x="200" y="180">UNREGISTERED</text><text fill="#eeeeee" stroke="none" font-family="Arial" font-size="24px" font-style="normal" font-weight="normal" text-decoration="none" x="200" y="210">UNREGISTERED</text><text fill="#eeeeee" stroke="none" font-family="Arial" font-size="24px" font-style="normal" font-weight="normal" text-decoration="none" x="200" y="240">UNREGISTERED</text><text fill="#eeeeee" stroke="none" font-family="Arial" font-size="24px" font-style="normal" font-weight="normal" text-decoration="none" x="200" y="270">UNREGISTERED</text><text fill="#eeeeee" stroke="none" font-family="Arial" font-size="24px" font-style="normal" font-weight="normal" text-decoration="none" x="200" y="300">UNREGISTERED</text><text fill="#eeeeee" stroke="none" font-family="Arial" font-size="24px" font-style="normal" font-weight="normal" text-decoration="none" x="200" y="330">UNREGISTERED</text><text fill="#eeeeee" stroke="none" font-family="Arial" font-size="24px" font-style="normal" font-weight="normal" text-decoration="none" x="200" y="360">UNREGISTERED</text><text fill="#eeeeee" stroke="none" font-family="Arial" font-size="24px" font-style="normal" font-weight="normal" text-decoration="none" x="200" y="390">UNREGISTERED</text><text fill="#eeeeee" stroke="none" font-family="Arial" font-size="24px" font-style="normal" font-weight="normal" text-decoration="none" x="200" y="420">UNREGISTERED</text><text fill="#eeeeee" stroke="none" font-family="Arial" font-size="24px" font-style="normal" font-weight="normal" text-decoration="none" x="200" y="450">UNREGISTERED</text><text fill="#eeeeee" stroke="none" font-family="Arial" font-size="24px" font-style="normal" font-weight="normal" text-decoration="none" x="200" y="480">UNREGISTERED</text><text fill="#eeeeee" stroke="none" font-family="Arial" font-size="24px" font-style="normal" font-weight="normal" text-decoration="none" x="200" y="510">UNREGISTERED</text><text fill="#eeeeee" stroke="none" font-family="Arial" font-size="24px" font-style="normal" font-weight="normal" text-decoration="none" x="200" y="540">UNREGISTERED</text><text fill="#eeeeee" stroke="none" font-family="Arial" font-size="24px" font-style="normal" font-weight="normal" text-decoration="none" x="400" y="0">UNREGISTERED</text><text fill="#eeeeee" stroke="none" font-family="Arial" font-size="24px" font-style="normal" font-weight="normal" text-decoration="none" x="400" y="30">UNREGISTERED</text><text fill="#eeeeee" stroke="none" font-family="Arial" font-size="24px" font-style="normal" font-weight="normal" text-decoration="none" x="400" y="60">UNREGISTERED</text><text fill="#eeeeee" stroke="none" font-family="Arial" font-size="24px" font-style="normal" font-weight="normal" text-decoration="none" x="400" y="90">UNREGISTERED</text><text fill="#eeeeee" stroke="none" font-family="Arial" font-size="24px" font-style="normal" font-weight="normal" text-decoration="none" x="400" y="120">UNREGISTERED</text><text fill="#eeeeee" stroke="none" font-family="Arial" font-size="24px" font-style="normal" font-weight="normal" text-decoration="none" x="400" y="150">UNREGISTERED</text><text fill="#eeeeee" stroke="none" font-family="Arial" font-size="24px" font-style="normal" font-weight="normal" text-decoration="none" x="400" y="180">UNREGISTERED</text><text fill="#eeeeee" stroke="none" font-family="Arial" font-size="24px" font-style="normal" font-weight="normal" text-decoration="none" x="400" y="210">UNREGISTERED</text><text fill="#eeeeee" stroke="none" font-family="Arial" font-size="24px" font-style="normal" font-weight="normal" text-decoration="none" x="400" y="240">UNREGISTERED</text><text fill="#eeeeee" stroke="none" font-family="Arial" font-size="24px" font-style="normal" font-weight="normal" text-decoration="none" x="400" y="270">UNREGISTERED</text><text fill="#eeeeee" stroke="none" font-family="Arial" font-size="24px" font-style="normal" font-weight="normal" text-decoration="none" x="400" y="300">UNREGISTERED</text><text fill="#eeeeee" stroke="none" font-family="Arial" font-size="24px" font-style="normal" font-weight="normal" text-decoration="none" x="400" y="330">UNREGISTERED</text><text fill="#eeeeee" stroke="none" font-family="Arial" font-size="24px" font-style="normal" font-weight="normal" text-decoration="none" x="400" y="360">UNREGISTERED</text><text fill="#eeeeee" stroke="none" font-family="Arial" font-size="24px" font-style="normal" font-weight="normal" text-decoration="none" x="400" y="390">UNREGISTERED</text><text fill="#eeeeee" stroke="none" font-family="Arial" font-size="24px" font-style="normal" font-weight="normal" text-decoration="none" x="400" y="420">UNREGISTERED</text><text fill="#eeeeee" stroke="none" font-family="Arial" font-size="24px" font-style="normal" font-weight="normal" text-decoration="none" x="400" y="450">UNREGISTERED</text><text fill="#eeeeee" stroke="none" font-family="Arial" font-size="24px" font-style="normal" font-weight="normal" text-decoration="none" x="400" y="480">UNREGISTERED</text><text fill="#eeeeee" stroke="none" font-family="Arial" font-size="24px" font-style="normal" font-weight="normal" text-decoration="none" x="400" y="510">UNREGISTERED</text><text fill="#eeeeee" stroke="none" font-family="Arial" font-size="24px" font-style="normal" font-weight="normal" text-decoration="none" x="400" y="540">UNREGISTERED</text><g transform="translate(-7,-4) scale(1,1)"><path fill="none" stroke="#000000" d="M 17 14 L 560 14 L 560 536 L 17 536 L 17 14" stroke-miterlimit="10"/></g><g transform="translate(-7,-4) scale(1,1)"><path fill="#ffffff" stroke="none" d="M 17 14 L 17 36 L 279.416015625 36 L 290.416015625 25 L 290.416015625 14 L 17 14"/></g><g transform="translate(-7,-4) scale(1,1)"><path fill="none" stroke="#000000" d="M 17 14 L 17 36 L 279.416015625 36 L 290.416015625 25 L 290.416015625 14 L 17 14 L 17 14" stroke-miterlimit="10"/></g><g transform="translate(-7,-4) scale(1,1)"><g><path fill="none" stroke="none"/><text fill="#000000" stroke="none" font-family="Arial" font-size="13px" font-style="normal" font-weight="normal" text-decoration="none" x="49.68994140625" y="29.5">Arduino Pedalbox [ System Interfaces ]</text></g></g><g transform="translate(-7,-4) scale(1,1)"><g><path fill="none" stroke="none"/><text fill="#000000" stroke="none" font-family="Arial" font-size="13px" font-style="normal" font-weight="bold" text-decoration="none" x="20.93359375" y="29.5">bdd</text></g></g><g transform="translate(-7,-4) scale(1,1)"><rect fill="#C0C0C0" stroke="none" x="327" y="92" width="120.22998046875" height="355" opacity="0.2"/></g><g transform="translate(-7,-4) scale(1,1)"><rect fill="#ffffff" stroke="none" x="320" y="85" width="120.22998046875" height="355"/></g><g transform="translate(-7,-4) scale(1,1)"><path fill="none" stroke="#000000" d="M 320 85 L 440.22998046875 85 L 440.22998046875 440 L 320 440 L 320 85 Z Z" stroke-miterlimit="10"/></g><g transform="translate(-7,-4) scale(1,1)"><g><path fill="none" stroke="none"/><text fill="#000000" stroke="none" font-family="Arial" font-size="13px" font-style="normal" font-weight="normal" text-decoration="none" x="357.7109375" y="100.5">«block»</text></g></g><g transform="translate(-7,-4) scale(1,1)"><g><path fill="none" stroke="none"/><text fill="#000000" stroke="none" font-family="Arial" font-size="13px" font-style="normal" font-weight="bold" text-decoration="none" x="324.5" y="115.5">Arduino Pedalbox</text></g></g><g transform="translate(-7,-4) scale(1,1)"><rect fill="#ffffff" stroke="none" x="313" y="161" width="14" height="14"/></g><g transform="translate(-7,-4) scale(1,1)"><path fill="none" stroke="#000000" d="M 313 161 L 327 161 L 327 175 L 313 175 L 313 161 Z Z" stroke-miterlimit="10"/></g><g transform="translate(-7,-4) scale(1,1)"><g><path fill="none" stroke="none"/><text fill="#000000" stroke="none" font-family="Arial" font-size="13px" font-style="normal" font-weight="normal" text-decoration="none" x="330.299560546875" y="172">SimPC: USB</text></g></g><g transform="translate(-7,-4) scale(1,1)"><path fill="#C0C0C0" stroke="none" d="M 237 126.5 C 237 117.9395856 243.9395856 111 252.5 111 C 261.0604144 111 268 117.9395856 268 126.5 C 268 135.0604144 261.0604144 142 252.5 142 C 243.9395856 142 237 135.0604144 237 126.5 Z" opacity="0.2"/></g><g transform="translate(-7,-4) scale(1,1)"><path fill="#ffffff" stroke="none" d="M 230 119.5 C 230 110.9395856 236.9395856 104 245.5 104 C 254.0604144 104 261 110.9395856 261 119.5 C 261 128.0604144 254.0604144 135 245.5 135 C 236.9395856 135 230 128.0604144 230 119.5 Z"/></g><g transform="translate(-7,-4) scale(1,1)"><path fill="none" stroke="#000000" d="M 230 119.5 C 230 110.9395856 236.9395856 104 245.5 104 C 254.0604144 104 261 110.9395856 261 119.5 C 261 128.0604144 254.0604144 135 245.5 135 C 236.9395856 135 230 128.0604144 230 119.5 Z" stroke-miterlimit="10"/></g><g transform="translate(-7,-4) scale(1,1)"><g><path fill="none" stroke="none"/><text fill="#000000" stroke="none" font-family="Arial" font-size="13px" font-style="normal" font-weight="bold" text-decoration="none" x="207.569580078125" y="152.5">PC Interface</text></g></g><g transform="translate(-7,-4) scale(1,1)"><path fill="none" stroke="#000000" d="M 312 164 L 261 131.36363636363637" stroke-miterlimit="10"/></g><g transform="translate(-7,-4) scale(1,1)"><path fill="#C0C0C0" stroke="none" d="M 50 82 L 198.89892578125 82 L 198.89892578125 120 L 50 120" opacity="0.2"/></g><g transform="translate(-7,-4) scale(1,1)"><path fill="#C0C0C0" stroke="none" d="M 50 82 L 60 72 L 208.89892578125 72 L 198.89892578125 82" opacity="0.2"/></g><g transform="translate(-7,-4) scale(1,1)"><path fill="#C0C0C0" stroke="none" d="M 208.89892578125 72 L 198.89892578125 82 L 198.89892578125 120 L 208.89892578125 110" opacity="0.2"/></g><g transform="translate(-7,-4) scale(1,1)"><path fill="#ffffff" stroke="none" d="M 43 75 L 191.89892578125 75 L 191.89892578125 113 L 43 113"/></g><g transform="translate(-7,-4) scale(1,1)"><path fill="#ffffff" stroke="none" d="M 43 75 L 53 65 L 201.89892578125 65 L 191.89892578125 75"/></g><g transform="translate(-7,-4) scale(1,1)"><path fill="#ffffff" stroke="none" d="M 201.89892578125 65 L 191.89892578125 75 L 191.89892578125 113 L 201.89892578125 103"/></g><g transform="translate(-7,-4) scale(1,1)"><path fill="none" stroke="#000000" d="M 43 75 L 191.89892578125 75 L 191.89892578125 113 L 43 113 L 43 75" stroke-miterlimit="10"/></g><g transform="translate(-7,-4) scale(1,1)"><path fill="none" stroke="#000000" d="M 43 75 L 53 65 L 201.89892578125 65 L 191.89892578125 75 L 43 75" stroke-miterlimit="10"/></g><g transform="translate(-7,-4) scale(1,1)"><path fill="none" stroke="#000000" d="M 201.89892578125 65 L 191.89892578125 75 L 191.89892578125 113 L 201.89892578125 103 L 201.89892578125 65" stroke-miterlimit="10"/></g><g transform="translate(-7,-4) scale(1,1)"><g><path fill="none" stroke="none"/><text fill="#000000" stroke="none" font-family="Arial" font-size="13px" font-style="normal" font-weight="bold" text-decoration="none" x="77.13720703125" y="92.5">Simulator PC</text></g></g><g transform="translate(-7,-4) scale(1,1)"><path fill="#ffffff" stroke="none" d="M 123.85928107244318 216.23000000000002 C 123.85928107244318 210.02784169600002 128.82452404320682 205 134.949462890625 205 C 141.07440173804318 205 146.03964470880683 210.02784169600002 146.03964470880683 216.23000000000002 C 146.03964470880683 222.432158304 141.07440173804318 227.46 134.949462890625 227.46 C 128.82452404320682 227.46 123.85928107244318 222.432158304 123.85928107244318 216.23000000000002 Z"/></g><g transform="translate(-7,-4) scale(1,1)"><path fill="none" stroke="#000000" d="M 123.85928107244318 216.23000000000002 C 123.85928107244318 210.02784169600002 128.82452404320682 205 134.949462890625 205 C 141.07440173804318 205 146.03964470880683 210.02784169600002 146.03964470880683 216.23000000000002 C 146.03964470880683 222.432158304 141.07440173804318 227.46 134.949462890625 227.46 C 128.82452404320682 227.46 123.85928107244318 222.432158304 123.85928107244318 216.23000000000002 Z" stroke-miterlimit="10"/></g><g transform="translate(-7,-4) scale(1,1)"><path fill="none" stroke="#000000" d="M 134.949462890625 227.46 L 134.949462890625 249.54" stroke-miterlimit="10"/></g><g transform="translate(-7,-4) scale(1,1)"><path fill="none" stroke="#000000" d="M 123.20691743607955 235.74 L 146.69200834517045 235.74" stroke-miterlimit="10"/></g><g transform="translate(-7,-4) scale(1,1)"><path fill="none" stroke="#000000" d="M 134.949462890625 249.54 L 118.64037198153409 272" stroke-miterlimit="10"/></g><g transform="translate(-7,-4) scale(1,1)"><path fill="none" stroke="#000000" d="M 134.949462890625 249.54 L 151.2585537997159 272" stroke-miterlimit="10"/></g><g transform="translate(-7,-4) scale(1,1)"><g><path fill="none" stroke="none"/><text fill="#000000" stroke="none" font-family="Arial" font-size="13px" font-style="normal" font-weight="bold" text-decoration="none" x="103.154052734375" y="290.5">Sim Racer</text></g></g><g transform="translate(-7,-4) scale(1,1)"><path fill="none" stroke="#000000" d="M 244.1442927687415 226.55707231258512 A 11.5 11.5 0 0 1 241.85570723125852 249.44292768741488" stroke-miterlimit="10"/></g><g transform="translate(-7,-4) scale(1,1)"><g><path fill="none" stroke="none"/><text fill="#000000" stroke="none" font-family="Arial" font-size="13px" font-style="normal" font-weight="bold" text-decoration="none" x="200.5" y="267.5">User Interface</text></g></g><g transform="translate(-7,-4) scale(1,1)"><path fill="none" stroke="#000000" d="M 312 240 L 255.3544921875 239.23544921875" stroke-miterlimit="10"/></g><g transform="translate(-7,-4) scale(1,1)"><rect fill="#ffffff" stroke="none" x="313" y="232" width="14" height="14"/></g><g transform="translate(-7,-4) scale(1,1)"><path fill="none" stroke="#000000" d="M 313 232 L 327 232 L 327 246 L 313 246 L 313 232 Z Z" stroke-miterlimit="10"/></g><g transform="translate(-7,-4) scale(1,1)"><g><path fill="none" stroke="none"/><text fill="#000000" stroke="none" font-family="Arial" font-size="13px" font-style="normal" font-weight="normal" text-decoration="none" x="328.0927734375" y="243">: user inputs</text></g></g><g transform="translate(-7,-4) scale(1,1)"><path fill="#ffffff" stroke="none" d="M 119.85928107244318 364.23 C 119.85928107244318 358.027841696 124.82452404320681 353 130.949462890625 353 C 137.07440173804318 353 142.03964470880683 358.027841696 142.03964470880683 364.23 C 142.03964470880683 370.43215830400004 137.07440173804318 375.46 130.949462890625 375.46 C 124.82452404320681 375.46 119.85928107244318 370.43215830400004 119.85928107244318 364.23 Z"/></g><g transform="translate(-7,-4) scale(1,1)"><path fill="none" stroke="#000000" d="M 119.85928107244318 364.23 C 119.85928107244318 358.027841696 124.82452404320681 353 130.949462890625 353 C 137.07440173804318 353 142.03964470880683 358.027841696 142.03964470880683 364.23 C 142.03964470880683 370.43215830400004 137.07440173804318 375.46 130.949462890625 375.46 C 124.82452404320681 375.46 119.85928107244318 370.43215830400004 119.85928107244318 364.23 Z" stroke-miterlimit="10"/></g><g transform="translate(-7,-4) scale(1,1)"><path fill="none" stroke="#000000" d="M 130.949462890625 375.46 L 130.949462890625 397.54" stroke-miterlimit="10"/></g><g transform="translate(-7,-4) scale(1,1)"><path fill="none" stroke="#000000" d="M 119.20691743607955 383.74 L 142.69200834517045 383.74" stroke-miterlimit="10"/></g><g transform="translate(-7,-4) scale(1,1)"><path fill="none" stroke="#000000" d="M 130.949462890625 397.54 L 114.64037198153409 420" stroke-miterlimit="10"/></g><g transform="translate(-7,-4) scale(1,1)"><path fill="none" stroke="#000000" d="M 130.949462890625 397.54 L 147.2585537997159 420" stroke-miterlimit="10"/></g><g transform="translate(-7,-4) scale(1,1)"><g><path fill="none" stroke="none"/><text fill="#000000" stroke="none" font-family="Arial" font-size="13px" font-style="normal" font-weight="bold" text-decoration="none" x="99.51904296875" y="438.5">Developer</text></g></g><g transform="translate(-7,-4) scale(1,1)"><rect fill="#ffffff" stroke="none" x="313" y="368" width="14" height="14"/></g><g transform="translate(-7,-4) scale(1,1)"><path fill="none" stroke="#000000" d="M 313 368 L 327 368 L 327 382 L 313 382 L 313 368 Z Z" stroke-miterlimit="10"/></g><g transform="translate(-7,-4) scale(1,1)"><g><path fill="none" stroke="none"/><text fill="#000000" stroke="none" font-family="Arial" font-size="13px" font-style="normal" font-weight="normal" text-decoration="none" x="340.79638671875" y="378">: Type</text></g></g><g transform="translate(-7,-4) scale(1,1)"><path fill="#C0C0C0" stroke="none" d="M 232.812255859375 386.5 C 232.812255859375 380.1487248 237.960980659375 375 244.312255859375 375 C 250.663531059375 375 255.812255859375 380.1487248 255.812255859375 386.5 C 255.812255859375 392.8512752 250.663531059375 398 244.312255859375 398 C 237.960980659375 398 232.812255859375 392.8512752 232.812255859375 386.5 Z" opacity="0.2"/></g><g transform="translate(-7,-4) scale(1,1)"><path fill="#ffffff" stroke="none" d="M 225.812255859375 379.5 C 225.812255859375 373.1487248 230.960980659375 368 237.312255859375 368 C 243.663531059375 368 248.812255859375 373.1487248 248.812255859375 379.5 C 248.812255859375 385.8512752 243.663531059375 391 237.312255859375 391 C 230.960980659375 391 225.812255859375 385.8512752 225.812255859375 379.5 Z"/></g><g transform="translate(-7,-4) scale(1,1)"><path fill="none" stroke="#000000" d="M 225.812255859375 379.5 C 225.812255859375 373.1487248 230.960980659375 368 237.312255859375 368 C 243.663531059375 368 248.812255859375 373.1487248 248.812255859375 379.5 C 248.812255859375 385.8512752 243.663531059375 391 237.312255859375 391 C 230.960980659375 391 225.812255859375 385.8512752 225.812255859375 379.5 Z" stroke-miterlimit="10"/></g><g transform="translate(-7,-4) scale(1,1)"><g><path fill="none" stroke="none"/><text fill="#000000" stroke="none" font-family="Arial" font-size="13px" font-style="normal" font-weight="bold" text-decoration="none" x="196.5" y="408.5">Log Interface</text></g></g><g transform="translate(-7,-4) scale(1,1)"><path fill="none" stroke="#000000" d="M 312 377 L 248.812255859375 379.753973778258" stroke-miterlimit="10"/></g></g></svg>