<svg version="1.1" xmlns="http://www.w3.org/2000/svg" xmlns:xlink="http://www.w3.org/1999/xlink" width="828" height="339" style="background-color: white"><defs/><g><text fill="#eeeeee" stroke="none" font-family="Arial" font-size="24px" font-style="normal" font-weight="normal" text-decoration="none" x="0" y="0">UNREGISTERED</text><text fill="#eeeeee" stroke="none" font-family="Arial" font-size="24px" font-style="normal" font-weight="normal" text-decoration="none" x="0" y="30">UNREGISTERED</text><text fill="#eeeeee" stroke="none" font-family="Arial" font-size="24px" font-style="normal" font-weight="normal" text-decoration="none" x="0" y="60">UNREGISTERED</text><text fill="#eeeeee" stroke="none" font-family="Arial" font-size="24px" font-style="normal" font-weight="normal" text-decoration="none" x="0" y="90">UNREGISTERED</text><text fill="#eeeeee" stroke="none" font-family="Arial" font-size="24px" font-style="normal" font-weight="normal" text-decoration="none" x="0" y="120">UNREGISTERED</text><text fill="#eeeeee" stroke="none" font-family="Arial" font-size="24px" font-style="normal" font-weight="normal" text-decoration="none" x="0" y="150">UNREGISTERED</text><text fill="#eeeeee" stroke="none" font-family="Arial" font-size="24px" font-style="normal" font-weight="normal" text-decoration="none" x="0" y="180">UNREGISTERED</text><text fill="#eeeeee" stroke="none" font-family="Arial" font-size="24px" font-style="normal" font-weight="normal" text-decoration="none" x="0" y="210">UNREGISTERED</text><text fill="#eeeeee" stroke="none" font-family="Arial" font-size="24px" font-style="normal" font-weight="normal" text-decoration="none" x="0" y="240">UNREGISTERED</text><text fill="#eeeeee" stroke="none" font-family="Arial" font-size="24px" font-style="normal" font-weight="normal" text-decoration="none" x="0" y="270">UNREGISTERED</text><text fill="#eeeeee" stroke="none" font-family="Arial" font-size="24px" font-style="normal" font-weight="normal" text-decoration="none" x="0" y="300">UNREGISTERED</text><text fill="#eeeeee" stroke="none" font-family="Arial" font-size="24px" font-style="normal" font-weight="normal" text-decoration="none" x="0" y="330">UNREGISTERED</text><text fill="#eeeeee" stroke="none" font-family="Arial" font-size="24px" font-style="normal" font-weight="normal" text-decoration="none" x="200" y="0">UNREGISTERED</text><text fill="#eeeeee" stroke="none" font-family="Arial" font-size="24px" font-style="normal" font-weight="normal" text-decoration="none" x="200" y="30">UNREGISTERED</text><text fill="#eeeeee" stroke="none" font-family="Arial" font-size="24px" font-style="normal" font-weight="normal" text-decoration="none" x="200" y="60">UNREGISTERED</text><text fill="#eeeeee" stroke="none" font-family="Arial" font-size="24px" font-style="normal" font-weight="normal" text-decoration="none" x="200" y="90">UNREGISTERED</text><text fill="#eeeeee" stroke="none" font-family="Arial" font-size="24px" font-style="normal" font-weight="normal" text-decoration="none" x="200" y="120">UNREGISTERED</text><text fill="#eeeeee" stroke="none" font-family="Arial" font-size="24px" font-style="normal" font-weight="normal" text-decoration="none" x="200" y="150">UNREGISTERED</text><text fill="#eeeeee" stroke="none" font-family="Arial" font-size="24px" font-style="normal" font-weight="normal" text-decoration="none" x="200" y="180">UNREGISTERED</text><text fill="#eeeeee" stroke="none" font-family="Arial" font-size="24px" font-style="normal" font-weight="normal" text-decoration="none" x="200" y="210">UNREGISTERED</text><text fill="#eeeeee" stroke="none" font-family="Arial" font-size="24px" font-style="normal" font-weight="normal" text-decoration="none" x="200" y="240">UNREGISTERED</text><text fill="#eeeeee" stroke="none" font-family="Arial" font-size="24px" font-style="normal" font-weight="normal" text-decoration="none" x="200" y="270">UNREGISTERED</text><text fill="#eeeeee" stroke="none" font-family="Arial" font-size="24px" font-style="normal" font-weight="normal" text-decoration="none" x="200" y="300">UNREGISTERED</text><text fill="#eeeeee" stroke="none" font-family="Arial" font-size="24px" font-style="normal" font-weight="normal" text-decoration="none" x="200" y="330">UNREGISTERED</text><text fill="#eeeeee" stroke="none" font-family="Arial" font-size="24px" font-style="normal" font-weight="normal" text-decoration="none" x="400" y="0">UNREGISTERED</text><text fill="#eeeeee" stroke="none" font-family="Arial" font-size="24px" font-style="normal" font-weight="normal" text-decoration="none" x="400" y="30">UNREGISTERED</text><text fill="#eeeeee" stroke="none" font-family="Arial" font-size="24px" font-style="normal" font-weight="normal" text-decoration="none" x="400" y="60">UNREGISTERED</text><text fill="#eeeeee" stroke="none" font-family="Arial" font-size="24px" font-style="normal" font-weight="normal" text-decoration="none" x="400" y="90">UNREGISTERED</text><text fill="#eeeeee" stroke="none" font-family="Arial" font-size="24px" font-style="normal" font-weight="normal" text-decoration="none" x="400" y="120">UNREGISTERED</text><text fill="#eeeeee" stroke="none" font-family="Arial" font-size="24px" font-style="normal" font-weight="normal" text-decoration="none" x="400" y="150">UNREGISTERED</text><text fill="#eeeeee" stroke="none" font-family="Arial" font-size="24px" font-style="normal" font-weight="normal" text-decoration="none" x="400" y="180">UNREGISTERED</text><text fill="#eeeeee" stroke="none" font-family="Arial" font-size="24px" font-style="normal" font-weight="normal" text-decoration="none" x="400" y="210">UNREGISTERED</text><text fill="#eeeeee" stroke="none" font-family="Arial" font-size="24px" font-style="normal" font-weight="normal" text-decoration="none" x="400" y="240">UNREGISTERED</text><text fill="#eeeeee" stroke="none" font-family="Arial" font-size="24px" font-style="normal" font-weight="normal" text-decoration="none" x="400" y="270">UNREGISTERED</text><text fill="#eeeeee" stroke="none" font-family="Arial" font-size="24px" font-style="normal" font-weight="normal" text-decoration="none" x="400" y="300">UNREGISTERED</text><text fill="#eeeeee" stroke="none" font-family="Arial" font-size="24px" font-style="normal" font-weight="normal" text-decoration="none" x="400" y="330">UNREGISTERED</text><text fill="#eeeeee" stroke="none" font-family="Arial" font-size="24px" font-style="normal" font-weight="normal" text-decoration="none" x="600" y="0">UNREGISTERED</text><text fill="#eeeeee" stroke="none" font-family="Arial" font-size="24px" font-style="normal" font-weight="normal" text-decoration="none" x="600" y="30">UNREGISTERED</text><text fill="#eeeeee" stroke="none" font-family="Arial" font-size="24px" font-style="normal" font-weight="normal" text-decoration="none" x="600" y="60">UNREGISTERED</text><text fill="#eeeeee" stroke="none" font-family="Arial" font-size="24px" font-style="normal" font-weight="normal" text-decoration="none" x="600" y="90">UNREGISTERED</text><text fill="#eeeeee" stroke="none" font-family="Arial" font-size="24px" font-style="normal" font-weight="normal" text-decoration="none" x="600" y="120">UNREGISTERED</text><text fill="#eeeeee" stroke="none" font-family="Arial" font-size="24px" font-style="normal" font-weight="normal" text-decoration="none" x="600" y="150">UNREGISTERED</text><text fill="#eeeeee" stroke="none" font-family="Arial" font-size="24px" font-style="normal" font-weight="normal" text-decoration="none" x="600" y="180">UNREGISTERED</text><text fill="#eeeeee" stroke="none" font-family="Arial" font-size="24px" font-style="normal" font-weight="normal" text-decoration="none" x="600" y="210">UNREGISTERED</text><text fill="#eeeeee" stroke="none" font-family="Arial" font-size="24px" font-style="normal" font-weight="normal" text-decoration="none" x="600" y="240">UNREGISTERED</text><text fill="#eeeeee" stroke="none" font-family="Arial" font-size="24px" font-style="normal" font-weight="normal" text-decoration="none" x="600" y="270">UNREGISTERED</text><text fill="#eeeeee" stroke="none" font-family="Arial" font-size="24px" font-style="normal" font-weight="normal" text-decoration="none" x="600" y="300">UNREGISTERED</text><text fill="#eeeeee" stroke="none" font-family="Arial" font-size="24px" font-style="normal" font-weight="normal" text-decoration="none" x="600" y="330">UNREGISTERED</text><text fill="#eeeeee" stroke="none" font-family="Arial" font-size="24px" font-style="normal" font-weight="normal" text-decoration="none" x="800" y="0">UNREGISTERED</text><text fill="#eeeeee" stroke="none" font-family="Arial" font-size="24px" font-style="normal" font-weight="normal" text-decoration="none" x="800" y="30">UNREGISTERED</text><text fill="#eeeeee" stroke="none" font-family="Arial" font-size="24px" font-style="normal" font-weight="normal" text-decoration="none" x="800" y="60">UNREGISTERED</text><text fill="#eeeeee" stroke="none" font-family="Arial" font-size="24px" font-style="normal" font-weight="normal" text-decoration="none" x="800" y="90">UNREGISTERED</text><text fill="#eeeeee" stroke="none" font-family="Arial" font-size="24px" font-style="normal" font-weight="normal" text-decoration="none" x="800" y="120">UNREGISTERED</text><text fill="#eeeeee" stroke="none" font-family="Arial" font-size="24px" font-style="normal" font-weight="normal" text-decoration="none" x="800" y="150">UNREGISTERED</text><text fill="#eeeeee" stroke="none" font-family="Arial" font-size="24px" font-style="normal" font-weight="normal" text-decoration="none" x="800" y="180">UNREGISTERED</text><text fill="#eeeeee" stroke="none" font-family="Arial" font-size="24px" font-style="normal" font-weight="normal" text-decoration="none" x="800" y="210">UNREGISTERED</text><text fill="#eeeeee" stroke="none" font-family="Arial" font-size="24px" font-style="normal" font-weight="normal" text-decoration="none" x="800" y="240">UNREGISTERED</text><text fill="#eeeeee" stroke="none" font-family="Arial" font-size="24px" font-style="normal" font-weight="normal" text-decoration="none" x="800" y="270">UNREGISTERED</text><text fill="#eeeeee" stroke="none" font-family="Arial" font-size="24px" font-style="normal" font-weight="normal" text-decoration="none" x="800" y="300">UNREGISTERED</text><text fill="#eeeeee" stroke="none" font-family="Arial" font-size="24px" font-style="normal" font-weight="normal" text-decoration="none" x="800" y="330">UNREGISTERED</text><g transform="translate(-34,1) scale(1,1)"><path fill="none" stroke="#000000" d="M 51 9 L 845 9 L 845 328 L 51 328 L 51 9" stroke-miterlimit="10"/></g><g transform="translate(-34,1) scale(1,1)"><path fill="#ffffff" stroke="none" d="M 51 9 L 51 31 L 369.76416015625 31 L 380.76416015625 20 L 380.76416015625 9 L 51 9"/></g><g transform="translate(-34,1) scale(1,1)"><path fill="none" stroke="#000000" d="M 51 9 L 51 31 L 369.76416015625 31 L 380.76416015625 20 L 380.76416015625 9 L 51 9 L 51 9" stroke-miterlimit="10"/></g><g transform="translate(-34,1) scale(1,1)"><g><path fill="none" stroke="none"/><text fill="#000000" stroke="none" font-family="Arial" font-size="13px" font-style="normal" font-weight="normal" text-decoration="none" x="79.34814453125" y="24.5">Arduino Pedalbox [ Subsystems Communication ]</text></g></g><g transform="translate(-34,1) scale(1,1)"><g><path fill="none" stroke="none"/><text fill="#000000" stroke="none" font-family="Arial" font-size="13px" font-style="normal" font-weight="bold" text-decoration="none" x="54.92724609375" y="24.5">ibd</text></g></g><g transform="translate(-34,1) scale(1,1)"><rect fill="#ffffff" stroke="none" x="838" y="203" width="14" height="14"/></g><g transform="translate(-34,1) scale(1,1)"><path fill="none" stroke="#000000" d="M 838 203 L 852 203 L 852 217 L 838 217 L 838 203 Z Z" stroke-miterlimit="10"/></g><g transform="translate(-34,1) scale(1,1)"><g><path fill="none" stroke="none"/><text fill="#000000" stroke="none" font-family="Arial" font-size="13px" font-style="normal" font-weight="normal" text-decoration="none" x="767.299560546875" y="230">SimPC: USB</text></g></g><g transform="translate(-34,1) scale(1,1)"><rect fill="#C0C0C0" stroke="none" x="471" y="170" width="202.841796875" height="104" opacity="0.2"/></g><g transform="translate(-34,1) scale(1,1)"><rect fill="#ffffff" stroke="none" x="454" y="153" width="222.841796875" height="124"/></g><g transform="translate(-34,1) scale(1,1)"><path fill="none" stroke="#000000" d="M 454 153 L 676.841796875 153 L 676.841796875 277 L 454 277 L 454 153 Z Z" stroke-miterlimit="10"/></g><g transform="translate(-34,1) scale(1,1)"><g><path fill="none" stroke="none"/><text fill="#000000" stroke="none" font-family="Arial" font-size="13px" font-style="normal" font-weight="bold" text-decoration="none" x="524.259521484375" y="180.5">: ArduinoBox</text></g></g><g transform="translate(-34,1) scale(1,1)"><rect fill="#C0C0C0" stroke="none" x="169" y="177" width="108.70263671875" height="99" opacity="0.2"/></g><g transform="translate(-34,1) scale(1,1)"><rect fill="#ffffff" stroke="none" x="152" y="160" width="128.70263671875" height="119"/></g><g transform="translate(-34,1) scale(1,1)"><path fill="none" stroke="#000000" d="M 152 160 L 280.70263671875 160 L 280.70263671875 279 L 152 279 L 152 160 Z Z" stroke-miterlimit="10"/></g><g transform="translate(-34,1) scale(1,1)"><g><path fill="none" stroke="none"/><text fill="#000000" stroke="none" font-family="Arial" font-size="13px" font-style="normal" font-weight="bold" text-decoration="none" x="182.759521484375" y="187.5">: PedalBox</text></g></g><g transform="translate(-34,1) scale(1,1)"><rect fill="#ffffff" stroke="none" x="273.70263671875" y="211" width="14" height="14"/></g><g transform="translate(-34,1) scale(1,1)"><path fill="none" stroke="#000000" d="M 273.70263671875 211 L 287.70263671875 211 L 287.70263671875 225 L 273.70263671875 225 L 273.70263671875 211 Z Z" stroke-miterlimit="10"/></g><g transform="translate(-34,1) scale(1,1)"><g><path fill="none" stroke="none"/><text fill="#000000" stroke="none" font-family="Arial" font-size="13px" font-style="normal" font-weight="normal" text-decoration="none" x="176.127685546875" y="218.5">serial interface:</text><text fill="#000000" stroke="none" font-family="Arial" font-size="13px" font-style="normal" font-weight="normal" text-decoration="none" x="205.028564453125" y="231.5">RJ45</text></g></g><g transform="translate(-34,1) scale(1,1)"><rect fill="#ffffff" stroke="none" x="447" y="210" width="14" height="14"/></g><g transform="translate(-34,1) scale(1,1)"><path fill="none" stroke="#000000" d="M 447 210 L 461 210 L 461 224 L 447 224 L 447 210 Z Z" stroke-miterlimit="10"/></g><g transform="translate(-34,1) scale(1,1)"><g><path fill="none" stroke="none"/><text fill="#000000" stroke="none" font-family="Arial" font-size="13px" font-style="normal" font-weight="normal" text-decoration="none" x="463.425048828125" y="212.5">serial interface:</text><text fill="#000000" stroke="none" font-family="Arial" font-size="13px" font-style="normal" font-weight="normal" text-decoration="none" x="492.325927734375" y="225.5">RJ45</text></g></g><g transform="translate(-34,1) scale(1,1)"><rect fill="#ffffff" stroke="none" x="669.841796875" y="204" width="14" height="14"/></g><g transform="translate(-34,1) scale(1,1)"><path fill="none" stroke="#000000" d="M 669.841796875 204 L 683.841796875 204 L 683.841796875 218 L 669.841796875 218 L 669.841796875 204 Z Z" stroke-miterlimit="10"/></g><g transform="translate(-34,1) scale(1,1)"><g><path fill="none" stroke="none"/><text fill="#000000" stroke="none" font-family="Arial" font-size="13px" font-style="normal" font-weight="normal" text-decoration="none" x="592.5" y="215">USB C: USB</text></g></g><g transform="translate(-34,1) scale(1,1)"><path fill="none" stroke="#000000" d="M 289 218 L 446 217" stroke-miterlimit="10"/></g><g transform="translate(-34,1) scale(1,1)"><g><path fill="none" stroke="none"/><text fill="#000000" stroke="none" font-family="Arial" font-size="13px" font-style="normal" font-weight="normal" text-decoration="none" x="313.94091796875" y="206.5">brake pedal signal</text></g></g><g transform="translate(-34,1) scale(1,1)"><path fill="none" stroke="#000000" d="M 685 211 L 837 210" stroke-miterlimit="10"/></g><g transform="translate(-34,1) scale(1,1)"><g><path fill="none" stroke="none"/><text fill="#000000" stroke="none" font-family="Arial" font-size="13px" font-style="normal" font-weight="normal" text-decoration="none" x="697.2958984375" y="199.5">game controller inputs</text></g></g><g transform="translate(-34,1) scale(1,1)"><rect fill="#ffffff" stroke="none" x="273.70263671875" y="254" width="14" height="14"/></g><g transform="translate(-34,1) scale(1,1)"><path fill="none" stroke="#000000" d="M 273.70263671875 254 L 287.70263671875 254 L 287.70263671875 268 L 273.70263671875 268 L 273.70263671875 254 Z Z" stroke-miterlimit="10"/></g><g transform="translate(-34,1) scale(1,1)"><g><path fill="none" stroke="none"/><text fill="#000000" stroke="none" font-family="Arial" font-size="13px" font-style="normal" font-weight="normal" text-decoration="none" x="167.424072265625" y="265">analog I/O: RJ45</text></g></g><g transform="translate(-34,1) scale(1,1)"><rect fill="#ffffff" stroke="none" x="447" y="253" width="14" height="14"/></g><g transform="translate(-34,1) scale(1,1)"><path fill="none" stroke="#000000" d="M 447 253 L 461 253 L 461 267 L 447 267 L 447 253 Z Z" stroke-miterlimit="10"/></g><g transform="translate(-34,1) scale(1,1)"><g><path fill="none" stroke="none"/><text fill="#000000" stroke="none" font-family="Arial" font-size="13px" font-style="normal" font-weight="normal" text-decoration="none" x="469.721435546875" y="263">analog I/O: RJ45</text></g></g><g transform="translate(-34,1) scale(1,1)"><path fill="none" stroke="#000000" d="M 289 261 L 446 260" stroke-miterlimit="10"/></g><g transform="translate(-34,1) scale(1,1)"><g><path fill="none" stroke="none"/><text fill="#000000" stroke="none" font-family="Arial" font-size="13px" font-style="normal" font-weight="normal" text-decoration="none" x="299.489990234375" y="249.5">gas, clutch pedal signal</text></g></g><g transform="translate(-34,1) scale(1,1)"><rect fill="#ffffff" stroke="none" x="44" y="214" width="14" height="14"/></g><g transform="translate(-34,1) scale(1,1)"><path fill="none" stroke="#000000" d="M 44 214 L 58 214 L 58 228 L 44 228 L 44 214 Z Z" stroke-miterlimit="10"/></g><g transform="translate(-34,1) scale(1,1)"><g><path fill="none" stroke="none"/><text fill="#000000" stroke="none" font-family="Arial" font-size="13px" font-style="normal" font-weight="normal" text-decoration="none" x="54.0927734375" y="244">: user inputs</text></g></g><g transform="translate(-34,1) scale(1,1)"><path fill="none" stroke="#000000" d="M 59 221 L 151 220" stroke-miterlimit="10"/></g><g transform="translate(-34,1) scale(1,1)"><path fill="#000000" stroke="none" d="M 94.55219578599053 224.82332950984426 L 104.6685174246899 220.50360307147076 L 94.46068993585665 216.40479129752697"/></g><g transform="translate(-34,1) scale(1,1)"><path fill="none" stroke="#000000" d="M 94.55219578599053 224.82332950984426 L 104.6685174246899 220.50360307147076 L 94.46068993585665 216.40479129752697 L 94.55219578599053 224.82332950984426" stroke-miterlimit="10"/></g><g transform="translate(-34,1) scale(1,1)"><g><path fill="none" stroke="none"/><text fill="#000000" stroke="none" font-family="Arial" font-size="13px" font-style="normal" font-weight="normal" text-decoration="none" x="88.2958984375" y="209.5">Force</text></g></g><g transform="translate(-34,1) scale(1,1)"><g><path fill="none" stroke="none"/><text fill="#000000" stroke="none" font-family="Arial" font-size="13px" font-style="normal" font-weight="normal" text-decoration="none" x="104.5" y="205"></text></g></g></g></svg>