<svg version="1.1" xmlns="http://www.w3.org/2000/svg" xmlns:xlink="http://www.w3.org/1999/xlink" width="640" height="486" style="background-color: white"><defs/><g><text fill="#eeeeee" stroke="none" font-family="Arial" font-size="24px" font-style="normal" font-weight="normal" text-decoration="none" x="0" y="0">UNREGISTERED</text><text fill="#eeeeee" stroke="none" font-family="Arial" font-size="24px" font-style="normal" font-weight="normal" text-decoration="none" x="0" y="30">UNREGISTERED</text><text fill="#eeeeee" stroke="none" font-family="Arial" font-size="24px" font-style="normal" font-weight="normal" text-decoration="none" x="0" y="60">UNREGISTERED</text><text fill="#eeeeee" stroke="none" font-family="Arial" font-size="24px" font-style="normal" font-weight="normal" text-decoration="none" x="0" y="90">UNREGISTERED</text><text fill="#eeeeee" stroke="none" font-family="Arial" font-size="24px" font-style="normal" font-weight="normal" text-decoration="none" x="0" y="120">UNREGISTERED</text><text fill="#eeeeee" stroke="none" font-family="Arial" font-size="24px" font-style="normal" font-weight="normal" text-decoration="none" x="0" y="150">UNREGISTERED</text><text fill="#eeeeee" stroke="none" font-family="Arial" font-size="24px" font-style="normal" font-weight="normal" text-decoration="none" x="0" y="180">UNREGISTERED</text><text fill="#eeeeee" stroke="none" font-family="Arial" font-size="24px" font-style="normal" font-weight="normal" text-decoration="none" x="0" y="210">UNREGISTERED</text><text fill="#eeeeee" stroke="none" font-family="Arial" font-size="24px" font-style="normal" font-weight="normal" text-decoration="none" x="0" y="240">UNREGISTERED</text><text fill="#eeeeee" stroke="none" font-family="Arial" font-size="24px" font-style="normal" font-weight="normal" text-decoration="none" x="0" y="270">UNREGISTERED</text><text fill="#eeeeee" stroke="none" font-family="Arial" font-size="24px" font-style="normal" font-weight="normal" text-decoration="none" x="0" y="300">UNREGISTERED</text><text fill="#eeeeee" stroke="none" font-family="Arial" font-size="24px" font-style="normal" font-weight="normal" text-decoration="none" x="0" y="330">UNREGISTERED</text><text fill="#eeeeee" stroke="none" font-family="Arial" font-size="24px" font-style="normal" font-weight="normal" text-decoration="none" x="0" y="360">UNREGISTERED</text><text fill="#eeeeee" stroke="none" font-family="Arial" font-size="24px" font-style="normal" font-weight="normal" text-decoration="none" x="0" y="390">UNREGISTERED</text><text fill="#eeeeee" stroke="none" font-family="Arial" font-size="24px" font-style="normal" font-weight="normal" text-decoration="none" x="0" y="420">UNREGISTERED</text><text fill="#eeeeee" stroke="none" font-family="Arial" font-size="24px" font-style="normal" font-weight="normal" text-decoration="none" x="0" y="450">UNREGISTERED</text><text fill="#eeeeee" stroke="none" font-family="Arial" font-size="24px" font-style="normal" font-weight="normal" text-decoration="none" x="0" y="480">UNREGISTERED</text><text fill="#eeeeee" stroke="none" font-family="Arial" font-size="24px" font-style="normal" font-weight="normal" text-decoration="none" x="200" y="0">UNREGISTERED</text><text fill="#eeeeee" stroke="none" font-family="Arial" font-size="24px" font-style="normal" font-weight="normal" text-decoration="none" x="200" y="30">UNREGISTERED</text><text fill="#eeeeee" stroke="none" font-family="Arial" font-size="24px" font-style="normal" font-weight="normal" text-decoration="none" x="200" y="60">UNREGISTERED</text><text fill="#eeeeee" stroke="none" font-family="Arial" font-size="24px" font-style="normal" font-weight="normal" text-decoration="none" x="200" y="90">UNREGISTERED</text><text fill="#eeeeee" stroke="none" font-family="Arial" font-size="24px" font-style="normal" font-weight="normal" text-decoration="none" x="200" y="120">UNREGISTERED</text><text fill="#eeeeee" stroke="none" font-family="Arial" font-size="24px" font-style="normal" font-weight="normal" text-decoration="none" x="200" y="150">UNREGISTERED</text><text fill="#eeeeee" stroke="none" font-family="Arial" font-size="24px" font-style="normal" font-weight="normal" text-decoration="none" x="200" y="180">UNREGISTERED</text><text fill="#eeeeee" stroke="none" font-family="Arial" font-size="24px" font-style="normal" font-weight="normal" text-decoration="none" x="200" y="210">UNREGISTERED</text><text fill="#eeeeee" stroke="none" font-family="Arial" font-size="24px" font-style="normal" font-weight="normal" text-decoration="none" x="200" y="240">UNREGISTERED</text><text fill="#eeeeee" stroke="none" font-family="Arial" font-size="24px" font-style="normal" font-weight="normal" text-decoration="none" x="200" y="270">UNREGISTERED</text><text fill="#eeeeee" stroke="none" font-family="Arial" font-size="24px" font-style="normal" font-weight="normal" text-decoration="none" x="200" y="300">UNREGISTERED</text><text fill="#eeeeee" stroke="none" font-family="Arial" font-size="24px" font-style="normal" font-weight="normal" text-decoration="none" x="200" y="330">UNREGISTERED</text><text fill="#eeeeee" stroke="none" font-family="Arial" font-size="24px" font-style="normal" font-weight="normal" text-decoration="none" x="200" y="360">UNREGISTERED</text><text fill="#eeeeee" stroke="none" font-family="Arial" font-size="24px" font-style="normal" font-weight="normal" text-decoration="none" x="200" y="390">UNREGISTERED</text><text fill="#eeeeee" stroke="none" font-family="Arial" font-size="24px" font-style="normal" font-weight="normal" text-decoration="none" x="200" y="420">UNREGISTERED</text><text fill="#eeeeee" stroke="none" font-family="Arial" font-size="24px" font-style="normal" font-weight="normal" text-decoration="none" x="200" y="450">UNREGISTERED</text><text fill="#eeeeee" stroke="none" font-family="Arial" font-size="24px" font-style="normal" font-weight="normal" text-decoration="none" x="200" y="480">UNREGISTERED</text><text fill="#eeeeee" stroke="none" font-family="Arial" font-size="24px" font-style="normal" font-weight="normal" text-decoration="none" x="400" y="0">UNREGISTERED</text><text fill="#eeeeee" stroke="none" font-family="Arial" font-size="24px" font-style="normal" font-weight="normal" text-decoration="none" x="400" y="30">UNREGISTERED</text><text fill="#eeeeee" stroke="none" font-family="Arial" font-size="24px" font-style="normal" font-weight="normal" text-decoration="none" x="400" y="60">UNREGISTERED</text><text fill="#eeeeee" stroke="none" font-family="Arial" font-size="24px" font-style="normal" font-weight="normal" text-decoration="none" x="400" y="90">UNREGISTERED</text><text fill="#eeeeee" stroke="none" font-family="Arial" font-size="24px" font-style="normal" font-weight="normal" text-decoration="none" x="400" y="120">UNREGISTERED</text><text fill="#eeeeee" stroke="none" font-family="Arial" font-size="24px" font-style="normal" font-weight="normal" text-decoration="none" x="400" y="150">UNREGISTERED</text><text fill="#eeeeee" stroke="none" font-family="Arial" font-size="24px" font-style="normal" font-weight="normal" text-decoration="none" x="400" y="180">UNREGISTERED</text><text fill="#eeeeee" stroke="none" font-family="Arial" font-size="24px" font-style="normal" font-weight="normal" text-decoration="none" x="400" y="210">UNREGISTERED</text><text fill="#eeeeee" stroke="none" font-family="Arial" font-size="24px" font-style="normal" font-weight="normal" text-decoration="none" x="400" y="240">UNREGISTERED</text><text fill="#eeeeee" stroke="none" font-family="Arial" font-size="24px" font-style="normal" font-weight="normal" text-decoration="none" x="400" y="270">UNREGISTERED</text><text fill="#eeeeee" stroke="none" font-family="Arial" font-size="24px" font-style="normal" font-weight="normal" text-decoration="none" x="400" y="300">UNREGISTERED</text><text fill="#eeeeee" stroke="none" font-family="Arial" font-size="24px" font-style="normal" font-weight="normal" text-decoration="none" x="400" y="330">UNREGISTERED</text><text fill="#eeeeee" stroke="none" font-family="Arial" font-size="24px" font-style="normal" font-weight="normal" text-decoration="none" x="400" y="360">UNREGISTERED</text><text fill="#eeeeee" stroke="none" font-family="Arial" font-size="24px" font-style="normal" font-weight="normal" text-decoration="none" x="400" y="390">UNREGISTERED</text><text fill="#eeeeee" stroke="none" font-family="Arial" font-size="24px" font-style="normal" font-weight="normal" text-decoration="none" x="400" y="420">UNREGISTERED</text><text fill="#eeeeee" stroke="none" font-family="Arial" font-size="24px" font-style="normal" font-weight="normal" text-decoration="none" x="400" y="450">UNREGISTERED</text><text fill="#eeeeee" stroke="none" font-family="Arial" font-size="24px" font-style="normal" font-weight="normal" text-decoration="none" x="400" y="480">UNREGISTERED</text><text fill="#eeeeee" stroke="none" font-family="Arial" font-size="24px" font-style="normal" font-weight="normal" text-decoration="none" x="600" y="0">UNREGISTERED</text><text fill="#eeeeee" stroke="none" font-family="Arial" font-size="24px" font-style="normal" font-weight="normal" text-decoration="none" x="600" y="30">UNREGISTERED</text><text fill="#eeeeee" stroke="none" font-family="Arial" font-size="24px" font-style="normal" font-weight="normal" text-decoration="none" x="600" y="60">UNREGISTERED</text><text fill="#eeeeee" stroke="none" font-family="Arial" font-size="24px" font-style="normal" font-weight="normal" text-decoration="none" x="600" y="90">UNREGISTERED</text><text fill="#eeeeee" stroke="none" font-family="Arial" font-size="24px" font-style="normal" font-weight="normal" text-decoration="none" x="600" y="120">UNREGISTERED</text><text fill="#eeeeee" stroke="none" font-family="Arial" font-size="24px" font-style="normal" font-weight="normal" text-decoration="none" x="600" y="150">UNREGISTERED</text><text fill="#eeeeee" stroke="none" font-family="Arial" font-size="24px" font-style="normal" font-weight="normal" text-decoration="none" x="600" y="180">UNREGISTERED</text><text fill="#eeeeee" stroke="none" font-family="Arial" font-size="24px" font-style="normal" font-weight="normal" text-decoration="none" x="600" y="210">UNREGISTERED</text><text fill="#eeeeee" stroke="none" font-family="Arial" font-size="24px" font-style="normal" font-weight="normal" text-decoration="none" x="600" y="240">UNREGISTERED</text><text fill="#eeeeee" stroke="none" font-family="Arial" font-size="24px" font-style="normal" font-weight="normal" text-decoration="none" x="600" y="270">UNREGISTERED</text><text fill="#eeeeee" stroke="none" font-family="Arial" font-size="24px" font-style="normal" font-weight="normal" text-decoration="none" x="600" y="300">UNREGISTERED</text><text fill="#eeeeee" stroke="none" font-family="Arial" font-size="24px" font-style="normal" font-weight="normal" text-decoration="none" x="600" y="330">UNREGISTERED</text><text fill="#eeeeee" stroke="none" font-family="Arial" font-size="24px" font-style="normal" font-weight="normal" text-decoration="none" x="600" y="360">UNREGISTERED</text><text fill="#eeeeee" stroke="none" font-family="Arial" font-size="24px" font-style="normal" font-weight="normal" text-decoration="none" x="600" y="390">UNREGISTERED</text><text fill="#eeeeee" stroke="none" font-family="Arial" font-size="24px" font-style="normal" font-weight="normal" text-decoration="none" x="600" y="420">UNREGISTERED</text><text fill="#eeeeee" stroke="none" font-family="Arial" font-size="24px" font-style="normal" font-weight="normal" text-decoration="none" x="600" y="450">UNREGISTERED</text><text fill="#eeeeee" stroke="none" font-family="Arial" font-size="24px" font-style="normal" font-weight="normal" text-decoration="none" x="600" y="480">UNREGISTERED</text><g transform="translate(-5,-4) scale(1,1)"><path fill="none" stroke="#000000" d="M 15 14 L 635 14 L 635 480 L 15 480 L 15 14" stroke-miterlimit="10"/></g><g transform="translate(-5,-4) scale(1,1)"><path fill="#ffffff" stroke="none" d="M 15 14 L 15 36 L 214.548828125 36 L 225.548828125 25 L 225.548828125 14 L 15 14"/></g><g transform="translate(-5,-4) scale(1,1)"><path fill="none" stroke="#000000" d="M 15 14 L 15 36 L 214.548828125 36 L 225.548828125 25 L 225.548828125 14 L 15 14 L 15 14" stroke-miterlimit="10"/></g><g transform="translate(-5,-4) scale(1,1)"><g><path fill="none" stroke="none"/><text fill="#000000" stroke="none" font-family="Arial" font-size="13px" font-style="normal" font-weight="normal" text-decoration="none" x="39.72998046875" y="29.5">Arduino Pedalbox Use Cases</text></g></g><g transform="translate(-5,-4) scale(1,1)"><g><path fill="none" stroke="none"/><text fill="#000000" stroke="none" font-family="Arial" font-size="13px" font-style="normal" font-weight="bold" text-decoration="none" x="19.279541015625" y="28.5">uc</text></g></g><g transform="translate(-5,-4) scale(1,1)"><path fill="#ffffff" stroke="none" d="M 66.40981818181818 182.23000000000002 C 66.40981818181818 176.02784169600002 71.37506115258182 171 77.5 171 C 83.62493884741818 171 88.59018181818182 176.02784169600002 88.59018181818182 182.23000000000002 C 88.59018181818182 188.432158304 83.62493884741818 193.46 77.5 193.46 C 71.37506115258182 193.46 66.40981818181818 188.432158304 66.40981818181818 182.23000000000002 Z"/></g><g transform="translate(-5,-4) scale(1,1)"><path fill="none" stroke="#000000" d="M 66.40981818181818 182.23000000000002 C 66.40981818181818 176.02784169600002 71.37506115258182 171 77.5 171 C 83.62493884741818 171 88.59018181818182 176.02784169600002 88.59018181818182 182.23000000000002 C 88.59018181818182 188.432158304 83.62493884741818 193.46 77.5 193.46 C 71.37506115258182 193.46 66.40981818181818 188.432158304 66.40981818181818 182.23000000000002 Z" stroke-miterlimit="10"/></g><g transform="translate(-5,-4) scale(1,1)"><path fill="none" stroke="#000000" d="M 77.5 193.46 L 77.5 215.54" stroke-miterlimit="10"/></g><g transform="translate(-5,-4) scale(1,1)"><path fill="none" stroke="#000000" d="M 65.75745454545455 201.74 L 89.24254545454545 201.74" stroke-miterlimit="10"/></g><g transform="translate(-5,-4) scale(1,1)"><path fill="none" stroke="#000000" d="M 77.5 215.54 L 61.19090909090909 238" stroke-miterlimit="10"/></g><g transform="translate(-5,-4) scale(1,1)"><path fill="none" stroke="#000000" d="M 77.5 215.54 L 93.80909090909091 238" stroke-miterlimit="10"/></g><g transform="translate(-5,-4) scale(1,1)"><g><path fill="none" stroke="none"/><text fill="#000000" stroke="none" font-family="Arial" font-size="13px" font-style="normal" font-weight="bold" text-decoration="none" x="45.70458984375" y="256.5">Sim Racer</text></g></g><g transform="translate(-5,-4) scale(1,1)"><path fill="#C0C0C0" stroke="none" d="M 511 218 L 600.62451171875 218 L 600.62451171875 251 L 511 251" opacity="0.2"/></g><g transform="translate(-5,-4) scale(1,1)"><path fill="#C0C0C0" stroke="none" d="M 511 218 L 521 208 L 610.62451171875 208 L 600.62451171875 218" opacity="0.2"/></g><g transform="translate(-5,-4) scale(1,1)"><path fill="#C0C0C0" stroke="none" d="M 610.62451171875 208 L 600.62451171875 218 L 600.62451171875 251 L 610.62451171875 241" opacity="0.2"/></g><g transform="translate(-5,-4) scale(1,1)"><path fill="#ffffff" stroke="none" d="M 504 211 L 593.62451171875 211 L 593.62451171875 244 L 504 244"/></g><g transform="translate(-5,-4) scale(1,1)"><path fill="#ffffff" stroke="none" d="M 504 211 L 514 201 L 603.62451171875 201 L 593.62451171875 211"/></g><g transform="translate(-5,-4) scale(1,1)"><path fill="#ffffff" stroke="none" d="M 603.62451171875 201 L 593.62451171875 211 L 593.62451171875 244 L 603.62451171875 234"/></g><g transform="translate(-5,-4) scale(1,1)"><path fill="none" stroke="#000000" d="M 504 211 L 593.62451171875 211 L 593.62451171875 244 L 504 244 L 504 211" stroke-miterlimit="10"/></g><g transform="translate(-5,-4) scale(1,1)"><path fill="none" stroke="#000000" d="M 504 211 L 514 201 L 603.62451171875 201 L 593.62451171875 211 L 504 211" stroke-miterlimit="10"/></g><g transform="translate(-5,-4) scale(1,1)"><path fill="none" stroke="#000000" d="M 603.62451171875 201 L 593.62451171875 211 L 593.62451171875 244 L 603.62451171875 234 L 603.62451171875 201" stroke-miterlimit="10"/></g><g transform="translate(-5,-4) scale(1,1)"><g><path fill="none" stroke="none"/><text fill="#000000" stroke="none" font-family="Arial" font-size="13px" font-style="normal" font-weight="bold" text-decoration="none" x="508.5" y="228.5">Simulator PC</text></g></g><g transform="translate(-5,-4) scale(1,1)"><rect fill="#C0C0C0" stroke="none" x="215" y="56" width="176" height="383" opacity="0.2"/></g><g transform="translate(-5,-4) scale(1,1)"><rect fill="#ffffff" stroke="none" x="208" y="49" width="176" height="383"/></g><g transform="translate(-5,-4) scale(1,1)"><path fill="none" stroke="#000000" d="M 208 49 L 384 49 L 384 432 L 208 432 L 208 49 Z Z" stroke-miterlimit="10"/></g><g transform="translate(-5,-4) scale(1,1)"><g><path fill="none" stroke="none"/><text fill="#000000" stroke="none" font-family="Arial" font-size="13px" font-style="normal" font-weight="bold" text-decoration="none" x="240.385009765625" y="66.5">Arduino Pedalbox</text></g></g><g transform="translate(-5,-4) scale(1,1)"><path fill="#C0C0C0" stroke="none" d="M 255 113 C 255 103.6111584 277.6096176 96 305.5 96 C 333.3903824 96 356 103.6111584 356 113 C 356 122.3888416 333.3903824 130 305.5 130 C 277.6096176 130 255 122.3888416 255 113 Z" opacity="0.2"/></g><g transform="translate(-5,-4) scale(1,1)"><path fill="#ffffff" stroke="none" d="M 248 106 C 248 96.6111584 270.6096176 89 298.5 89 C 326.3903824 89 349 96.6111584 349 106 C 349 115.3888416 326.3903824 123 298.5 123 C 270.6096176 123 248 115.3888416 248 106 Z"/></g><g transform="translate(-5,-4) scale(1,1)"><path fill="none" stroke="#000000" d="M 248 106 C 248 96.6111584 270.6096176 89 298.5 89 C 326.3903824 89 349 96.6111584 349 106 C 349 115.3888416 326.3903824 123 298.5 123 C 270.6096176 123 248 115.3888416 248 106 Z" stroke-miterlimit="10"/></g><g transform="translate(-5,-4) scale(1,1)"><g><path fill="none" stroke="none"/><text fill="#000000" stroke="none" font-family="Arial" font-size="13px" font-style="normal" font-weight="bold" text-decoration="none" x="280.431396484375" y="111">Brake</text></g></g><g transform="translate(-5,-4) scale(1,1)"><path fill="#C0C0C0" stroke="none" d="M 231 226 C 231 211.6405952 265.0263552 200 307 200 C 348.9736448 200 383 211.6405952 383 226 C 383 240.3594048 348.9736448 252 307 252 C 265.0263552 252 231 240.3594048 231 226 Z" opacity="0.2"/></g><g transform="translate(-5,-4) scale(1,1)"><path fill="#ffffff" stroke="none" d="M 224 219 C 224 204.6405952 258.0263552 193 300 193 C 341.9736448 193 376 204.6405952 376 219 C 376 233.3594048 341.9736448 245 300 245 C 258.0263552 245 224 233.3594048 224 219 Z"/></g><g transform="translate(-5,-4) scale(1,1)"><path fill="none" stroke="#000000" d="M 224 219 C 224 204.6405952 258.0263552 193 300 193 C 341.9736448 193 376 204.6405952 376 219 C 376 233.3594048 341.9736448 245 300 245 C 258.0263552 245 224 233.3594048 224 219 Z" stroke-miterlimit="10"/></g><g transform="translate(-5,-4) scale(1,1)"><g><path fill="none" stroke="none"/><text fill="#000000" stroke="none" font-family="Arial" font-size="13px" font-style="normal" font-weight="bold" text-decoration="none" x="256.63916015625" y="217.5">Receive game</text><text fill="#000000" stroke="none" font-family="Arial" font-size="13px" font-style="normal" font-weight="bold" text-decoration="none" x="252.33544921875" y="230.5">controller input</text></g></g><g transform="translate(-5,-4) scale(1,1)"><path fill="none" stroke="#000000" d="M 121 195 L 262 124" stroke-miterlimit="10"/></g><g transform="translate(-5,-4) scale(1,1)"><path fill="none" stroke="#000000" d="M 377 220 L 503 222" stroke-miterlimit="10"/></g><g transform="translate(-5,-4) scale(1,1)"><path fill="none" stroke="#000000" d="M 300 192 L 298 124" stroke-miterlimit="10" stroke-dasharray="3"/></g><g transform="translate(-5,-4) scale(1,1)"><path fill="none" stroke="#000000" d="M 302.5064712133113 134.03452625705853 L 298 124 L 294.0910747917938 134.28203791651492" stroke-miterlimit="10"/></g><g transform="translate(-5,-4) scale(1,1)"><g><path fill="none" stroke="none"/><text fill="#000000" stroke="none" font-family="Arial" font-size="13px" font-style="normal" font-weight="normal" text-decoration="none" x="241.5" y="162.5">«include»</text></g></g><g transform="translate(-5,-4) scale(1,1)"><path fill="#C0C0C0" stroke="none" d="M 226 302 C 226 287.6405952 260.4740704 276 303 276 C 345.5259296 276 380 287.6405952 380 302 C 380 316.3594048 345.5259296 328 303 328 C 260.4740704 328 226 316.3594048 226 302 Z" opacity="0.2"/></g><g transform="translate(-5,-4) scale(1,1)"><path fill="#ffffff" stroke="none" d="M 219 295 C 219 280.6405952 253.4740704 269 296 269 C 338.5259296 269 373 280.6405952 373 295 C 373 309.3594048 338.5259296 321 296 321 C 253.4740704 321 219 309.3594048 219 295 Z"/></g><g transform="translate(-5,-4) scale(1,1)"><path fill="none" stroke="#000000" d="M 219 295 C 219 280.6405952 253.4740704 269 296 269 C 338.5259296 269 373 280.6405952 373 295 C 373 309.3594048 338.5259296 321 296 321 C 253.4740704 321 219 309.3594048 219 295 Z" stroke-miterlimit="10"/></g><g transform="translate(-5,-4) scale(1,1)"><g><path fill="none" stroke="none"/><text fill="#000000" stroke="none" font-family="Arial" font-size="13px" font-style="normal" font-weight="bold" text-decoration="none" x="255.543212890625" y="293.5">Check power</text><text fill="#000000" stroke="none" font-family="Arial" font-size="13px" font-style="normal" font-weight="bold" text-decoration="none" x="280.825927734375" y="306.5">state</text></g></g><g transform="translate(-5,-4) scale(1,1)"><path fill="none" stroke="#000000" d="M 121 233 L 220 268" stroke-miterlimit="10"/></g><g transform="translate(-5,-4) scale(1,1)"><path fill="#ffffff" stroke="none" d="M 68.90981818181818 324.23 C 68.90981818181818 318.027841696 73.87506115258182 313 80 313 C 86.12493884741818 313 91.09018181818182 318.027841696 91.09018181818182 324.23 C 91.09018181818182 330.43215830400004 86.12493884741818 335.46 80 335.46 C 73.87506115258182 335.46 68.90981818181818 330.43215830400004 68.90981818181818 324.23 Z"/></g><g transform="translate(-5,-4) scale(1,1)"><path fill="none" stroke="#000000" d="M 68.90981818181818 324.23 C 68.90981818181818 318.027841696 73.87506115258182 313 80 313 C 86.12493884741818 313 91.09018181818182 318.027841696 91.09018181818182 324.23 C 91.09018181818182 330.43215830400004 86.12493884741818 335.46 80 335.46 C 73.87506115258182 335.46 68.90981818181818 330.43215830400004 68.90981818181818 324.23 Z" stroke-miterlimit="10"/></g><g transform="translate(-5,-4) scale(1,1)"><path fill="none" stroke="#000000" d="M 80 335.46 L 80 357.54" stroke-miterlimit="10"/></g><g transform="translate(-5,-4) scale(1,1)"><path fill="none" stroke="#000000" d="M 68.25745454545455 343.74 L 91.74254545454545 343.74" stroke-miterlimit="10"/></g><g transform="translate(-5,-4) scale(1,1)"><path fill="none" stroke="#000000" d="M 80 357.54 L 63.69090909090909 380" stroke-miterlimit="10"/></g><g transform="translate(-5,-4) scale(1,1)"><path fill="none" stroke="#000000" d="M 80 357.54 L 96.30909090909091 380" stroke-miterlimit="10"/></g><g transform="translate(-5,-4) scale(1,1)"><g><path fill="none" stroke="none"/><text fill="#000000" stroke="none" font-family="Arial" font-size="13px" font-style="normal" font-weight="bold" text-decoration="none" x="48.569580078125" y="398.5">Developer</text></g></g><g transform="translate(-5,-4) scale(1,1)"><path fill="#C0C0C0" stroke="none" d="M 231 384 C 231 370.19288 263.2354944 359 303 359 C 342.7645056 359 375 370.19288 375 384 C 375 397.80712 342.7645056 409 303 409 C 263.2354944 409 231 397.80712 231 384 Z" opacity="0.2"/></g><g transform="translate(-5,-4) scale(1,1)"><path fill="#ffffff" stroke="none" d="M 224 377 C 224 363.19288 256.2354944 352 296 352 C 335.7645056 352 368 363.19288 368 377 C 368 390.80712 335.7645056 402 296 402 C 256.2354944 402 224 390.80712 224 377 Z"/></g><g transform="translate(-5,-4) scale(1,1)"><path fill="none" stroke="#000000" d="M 224 377 C 224 363.19288 256.2354944 352 296 352 C 335.7645056 352 368 363.19288 368 377 C 368 390.80712 335.7645056 402 296 402 C 256.2354944 402 224 390.80712 224 377 Z" stroke-miterlimit="10"/></g><g transform="translate(-5,-4) scale(1,1)"><g><path fill="none" stroke="none"/><text fill="#000000" stroke="none" font-family="Arial" font-size="13px" font-style="normal" font-weight="bold" text-decoration="none" x="249.40185546875" y="382">Create log files</text></g></g><g transform="translate(-5,-4) scale(1,1)"><path fill="none" stroke="#000000" d="M 121 347 L 218 318" stroke-miterlimit="10"/></g><g transform="translate(-5,-4) scale(1,1)"><path fill="none" stroke="#000000" d="M 121 362 L 223 371" stroke-miterlimit="10"/></g></g></svg>