<svg version="1.1" xmlns="http://www.w3.org/2000/svg" xmlns:xlink="http://www.w3.org/1999/xlink" width="596" height="507" style="background-color: white"><defs/><g><text fill="#eeeeee" stroke="none" font-family="Arial" font-size="24px" font-style="normal" font-weight="normal" text-decoration="none" x="0" y="0">UNREGISTERED</text><text fill="#eeeeee" stroke="none" font-family="Arial" font-size="24px" font-style="normal" font-weight="normal" text-decoration="none" x="0" y="30">UNREGISTERED</text><text fill="#eeeeee" stroke="none" font-family="Arial" font-size="24px" font-style="normal" font-weight="normal" text-decoration="none" x="0" y="60">UNREGISTERED</text><text fill="#eeeeee" stroke="none" font-family="Arial" font-size="24px" font-style="normal" font-weight="normal" text-decoration="none" x="0" y="90">UNREGISTERED</text><text fill="#eeeeee" stroke="none" font-family="Arial" font-size="24px" font-style="normal" font-weight="normal" text-decoration="none" x="0" y="120">UNREGISTERED</text><text fill="#eeeeee" stroke="none" font-family="Arial" font-size="24px" font-style="normal" font-weight="normal" text-decoration="none" x="0" y="150">UNREGISTERED</text><text fill="#eeeeee" stroke="none" font-family="Arial" font-size="24px" font-style="normal" font-weight="normal" text-decoration="none" x="0" y="180">UNREGISTERED</text><text fill="#eeeeee" stroke="none" font-family="Arial" font-size="24px" font-style="normal" font-weight="normal" text-decoration="none" x="0" y="210">UNREGISTERED</text><text fill="#eeeeee" stroke="none" font-family="Arial" font-size="24px" font-style="normal" font-weight="normal" text-decoration="none" x="0" y="240">UNREGISTERED</text><text fill="#eeeeee" stroke="none" font-family="Arial" font-size="24px" font-style="normal" font-weight="normal" text-decoration="none" x="0" y="270">UNREGISTERED</text><text fill="#eeeeee" stroke="none" font-family="Arial" font-size="24px" font-style="normal" font-weight="normal" text-decoration="none" x="0" y="300">UNREGISTERED</text><text fill="#eeeeee" stroke="none" font-family="Arial" font-size="24px" font-style="normal" font-weight="normal" text-decoration="none" x="0" y="330">UNREGISTERED</text><text fill="#eeeeee" stroke="none" font-family="Arial" font-size="24px" font-style="normal" font-weight="normal" text-decoration="none" x="0" y="360">UNREGISTERED</text><text fill="#eeeeee" stroke="none" font-family="Arial" font-size="24px" font-style="normal" font-weight="normal" text-decoration="none" x="0" y="390">UNREGISTERED</text><text fill="#eeeeee" stroke="none" font-family="Arial" font-size="24px" font-style="normal" font-weight="normal" text-decoration="none" x="0" y="420">UNREGISTERED</text><text fill="#eeeeee" stroke="none" font-family="Arial" font-size="24px" font-style="normal" font-weight="normal" text-decoration="none" x="0" y="450">UNREGISTERED</text><text fill="#eeeeee" stroke="none" font-family="Arial" font-size="24px" font-style="normal" font-weight="normal" text-decoration="none" x="0" y="480">UNREGISTERED</text><text fill="#eeeeee" stroke="none" font-family="Arial" font-size="24px" font-style="normal" font-weight="normal" text-decoration="none" x="200" y="0">UNREGISTERED</text><text fill="#eeeeee" stroke="none" font-family="Arial" font-size="24px" font-style="normal" font-weight="normal" text-decoration="none" x="200" y="30">UNREGISTERED</text><text fill="#eeeeee" stroke="none" font-family="Arial" font-size="24px" font-style="normal" font-weight="normal" text-decoration="none" x="200" y="60">UNREGISTERED</text><text fill="#eeeeee" stroke="none" font-family="Arial" font-size="24px" font-style="normal" font-weight="normal" text-decoration="none" x="200" y="90">UNREGISTERED</text><text fill="#eeeeee" stroke="none" font-family="Arial" font-size="24px" font-style="normal" font-weight="normal" text-decoration="none" x="200" y="120">UNREGISTERED</text><text fill="#eeeeee" stroke="none" font-family="Arial" font-size="24px" font-style="normal" font-weight="normal" text-decoration="none" x="200" y="150">UNREGISTERED</text><text fill="#eeeeee" stroke="none" font-family="Arial" font-size="24px" font-style="normal" font-weight="normal" text-decoration="none" x="200" y="180">UNREGISTERED</text><text fill="#eeeeee" stroke="none" font-family="Arial" font-size="24px" font-style="normal" font-weight="normal" text-decoration="none" x="200" y="210">UNREGISTERED</text><text fill="#eeeeee" stroke="none" font-family="Arial" font-size="24px" font-style="normal" font-weight="normal" text-decoration="none" x="200" y="240">UNREGISTERED</text><text fill="#eeeeee" stroke="none" font-family="Arial" font-size="24px" font-style="normal" font-weight="normal" text-decoration="none" x="200" y="270">UNREGISTERED</text><text fill="#eeeeee" stroke="none" font-family="Arial" font-size="24px" font-style="normal" font-weight="normal" text-decoration="none" x="200" y="300">UNREGISTERED</text><text fill="#eeeeee" stroke="none" font-family="Arial" font-size="24px" font-style="normal" font-weight="normal" text-decoration="none" x="200" y="330">UNREGISTERED</text><text fill="#eeeeee" stroke="none" font-family="Arial" font-size="24px" font-style="normal" font-weight="normal" text-decoration="none" x="200" y="360">UNREGISTERED</text><text fill="#eeeeee" stroke="none" font-family="Arial" font-size="24px" font-style="normal" font-weight="normal" text-decoration="none" x="200" y="390">UNREGISTERED</text><text fill="#eeeeee" stroke="none" font-family="Arial" font-size="24px" font-style="normal" font-weight="normal" text-decoration="none" x="200" y="420">UNREGISTERED</text><text fill="#eeeeee" stroke="none" font-family="Arial" font-size="24px" font-style="normal" font-weight="normal" text-decoration="none" x="200" y="450">UNREGISTERED</text><text fill="#eeeeee" stroke="none" font-family="Arial" font-size="24px" font-style="normal" font-weight="normal" text-decoration="none" x="200" y="480">UNREGISTERED</text><text fill="#eeeeee" stroke="none" font-family="Arial" font-size="24px" font-style="normal" font-weight="normal" text-decoration="none" x="400" y="0">UNREGISTERED</text><text fill="#eeeeee" stroke="none" font-family="Arial" font-size="24px" font-style="normal" font-weight="normal" text-decoration="none" x="400" y="30">UNREGISTERED</text><text fill="#eeeeee" stroke="none" font-family="Arial" font-size="24px" font-style="normal" font-weight="normal" text-decoration="none" x="400" y="60">UNREGISTERED</text><text fill="#eeeeee" stroke="none" font-family="Arial" font-size="24px" font-style="normal" font-weight="normal" text-decoration="none" x="400" y="90">UNREGISTERED</text><text fill="#eeeeee" stroke="none" font-family="Arial" font-size="24px" font-style="normal" font-weight="normal" text-decoration="none" x="400" y="120">UNREGISTERED</text><text fill="#eeeeee" stroke="none" font-family="Arial" font-size="24px" font-style="normal" font-weight="normal" text-decoration="none" x="400" y="150">UNREGISTERED</text><text fill="#eeeeee" stroke="none" font-family="Arial" font-size="24px" font-style="normal" font-weight="normal" text-decoration="none" x="400" y="180">UNREGISTERED</text><text fill="#eeeeee" stroke="none" font-family="Arial" font-size="24px" font-style="normal" font-weight="normal" text-decoration="none" x="400" y="210">UNREGISTERED</text><text fill="#eeeeee" stroke="none" font-family="Arial" font-size="24px" font-style="normal" font-weight="normal" text-decoration="none" x="400" y="240">UNREGISTERED</text><text fill="#eeeeee" stroke="none" font-family="Arial" font-size="24px" font-style="normal" font-weight="normal" text-decoration="none" x="400" y="270">UNREGISTERED</text><text fill="#eeeeee" stroke="none" font-family="Arial" font-size="24px" font-style="normal" font-weight="normal" text-decoration="none" x="400" y="300">UNREGISTERED</text><text fill="#eeeeee" stroke="none" font-family="Arial" font-size="24px" font-style="normal" font-weight="normal" text-decoration="none" x="400" y="330">UNREGISTERED</text><text fill="#eeeeee" stroke="none" font-family="Arial" font-size="24px" font-style="normal" font-weight="normal" text-decoration="none" x="400" y="360">UNREGISTERED</text><text fill="#eeeeee" stroke="none" font-family="Arial" font-size="24px" font-style="normal" font-weight="normal" text-decoration="none" x="400" y="390">UNREGISTERED</text><text fill="#eeeeee" stroke="none" font-family="Arial" font-size="24px" font-style="normal" font-weight="normal" text-decoration="none" x="400" y="420">UNREGISTERED</text><text fill="#eeeeee" stroke="none" font-family="Arial" font-size="24px" font-style="normal" font-weight="normal" text-decoration="none" x="400" y="450">UNREGISTERED</text><text fill="#eeeeee" stroke="none" font-family="Arial" font-size="24px" font-style="normal" font-weight="normal" text-decoration="none" x="400" y="480">UNREGISTERED</text><g transform="translate(-4,-4) scale(1,1)"><path fill="none" stroke="#000000" d="M 14 14 L 590 14 L 590 501 L 14 501 L 14 14" stroke-miterlimit="10"/></g><g transform="translate(-4,-4) scale(1,1)"><path fill="#ffffff" stroke="none" d="M 14 14 L 14 36 L 293.04052734375 36 L 304.04052734375 25 L 304.04052734375 14 L 14 14"/></g><g transform="translate(-4,-4) scale(1,1)"><path fill="none" stroke="#000000" d="M 14 14 L 14 36 L 293.04052734375 36 L 304.04052734375 25 L 304.04052734375 14 L 14 14 L 14 14" stroke-miterlimit="10"/></g><g transform="translate(-4,-4) scale(1,1)"><g><path fill="none" stroke="none"/><text fill="#000000" stroke="none" font-family="Arial" font-size="13px" font-style="normal" font-weight="normal" text-decoration="none" x="46.68994140625" y="29.5">Arduino Pedalbox [ System Components ]</text></g></g><g transform="translate(-4,-4) scale(1,1)"><g><path fill="none" stroke="none"/><text fill="#000000" stroke="none" font-family="Arial" font-size="13px" font-style="normal" font-weight="bold" text-decoration="none" x="17.93359375" y="29.5">bdd</text></g></g><g transform="translate(-4,-4) scale(1,1)"><rect fill="#C0C0C0" stroke="none" x="260" y="58" width="120.22998046875" height="37" opacity="0.2"/></g><g transform="translate(-4,-4) scale(1,1)"><rect fill="#ffffff" stroke="none" x="253" y="51" width="120.22998046875" height="37"/></g><g transform="translate(-4,-4) scale(1,1)"><path fill="none" stroke="#000000" d="M 253 51 L 373.22998046875 51 L 373.22998046875 88 L 253 88 L 253 51 Z Z" stroke-miterlimit="10"/></g><g transform="translate(-4,-4) scale(1,1)"><g><path fill="none" stroke="none"/><text fill="#000000" stroke="none" font-family="Arial" font-size="13px" font-style="normal" font-weight="normal" text-decoration="none" x="290.7109375" y="66.5">«block»</text></g></g><g transform="translate(-4,-4) scale(1,1)"><g><path fill="none" stroke="none"/><text fill="#000000" stroke="none" font-family="Arial" font-size="13px" font-style="normal" font-weight="bold" text-decoration="none" x="257.5" y="81.5">Arduino Pedalbox</text></g></g><g transform="translate(-4,-4) scale(1,1)"><rect fill="#C0C0C0" stroke="none" x="50" y="248" width="171.220703125" height="135.39999999999998" opacity="0.2"/></g><g transform="translate(-4,-4) scale(1,1)"><rect fill="#ffffff" stroke="none" x="43" y="241" width="171.220703125" height="135.39999999999998"/></g><g transform="translate(-4,-4) scale(1,1)"><path fill="none" stroke="#000000" d="M 43 241 L 214.220703125 241 L 214.220703125 376.4 L 43 376.4 L 43 241 Z Z" stroke-miterlimit="10"/></g><g transform="translate(-4,-4) scale(1,1)"><path fill="none" stroke="#000000" d="M 43 279 L 214.220703125 279" stroke-miterlimit="10"/></g><g transform="translate(-4,-4) scale(1,1)"><g><path fill="none" stroke="none"/><text fill="#000000" stroke="none" font-family="Arial" font-size="13px" font-style="normal" font-weight="normal" text-decoration="none" x="106.206298828125" y="256.5">«block»</text></g></g><g transform="translate(-4,-4) scale(1,1)"><g><path fill="none" stroke="none"/><text fill="#000000" stroke="none" font-family="Arial" font-size="13px" font-style="normal" font-weight="bold" text-decoration="none" x="91.41943359375" y="271.5">ArduinoBox</text></g></g><g transform="translate(-4,-4) scale(1,1)"><g><path fill="none" stroke="none"/><text fill="#000000" stroke="none" font-family="Arial" font-size="10.4px" font-style="italic" font-weight="normal" text-decoration="none" x="117.06040954589844" y="292">parts</text></g></g><g transform="translate(-4,-4) scale(1,1)"><g><path fill="none" stroke="none"/><text fill="#000000" stroke="none" font-family="Arial" font-size="13px" font-style="normal" font-weight="normal" text-decoration="none" x="48" y="309.9">class: HX711</text></g></g><g transform="translate(-4,-4) scale(1,1)"><g><path fill="none" stroke="none"/><text fill="#000000" stroke="none" font-family="Arial" font-size="13px" font-style="normal" font-weight="normal" text-decoration="none" x="48" y="324.9">class: Joystick</text></g></g><g transform="translate(-4,-4) scale(1,1)"><g><path fill="none" stroke="none"/><text fill="#000000" stroke="none" font-family="Arial" font-size="13px" font-style="normal" font-weight="normal" text-decoration="none" x="48" y="339.9">class</text></g></g><g transform="translate(-4,-4) scale(1,1)"><g><path fill="none" stroke="none"/><text fill="#000000" stroke="none" font-family="Arial" font-size="13px" font-style="normal" font-weight="normal" text-decoration="none" x="48" y="354.9">class</text></g></g><g transform="translate(-4,-4) scale(1,1)"><g><path fill="none" stroke="none"/><text fill="#000000" stroke="none" font-family="Arial" font-size="13px" font-style="normal" font-weight="normal" text-decoration="none" x="48" y="369.9">class</text></g></g><g transform="translate(-4,-4) scale(1,1)"><rect fill="#C0C0C0" stroke="none" x="372" y="234" width="89.20263671875" height="37" opacity="0.2"/></g><g transform="translate(-4,-4) scale(1,1)"><rect fill="#ffffff" stroke="none" x="365" y="227" width="89.20263671875" height="37"/></g><g transform="translate(-4,-4) scale(1,1)"><path fill="none" stroke="#000000" d="M 365 227 L 454.20263671875 227 L 454.20263671875 264 L 365 264 L 365 227 Z Z" stroke-miterlimit="10"/></g><g transform="translate(-4,-4) scale(1,1)"><g><path fill="none" stroke="none"/><text fill="#000000" stroke="none" font-family="Arial" font-size="13px" font-style="normal" font-weight="normal" text-decoration="none" x="387.197265625" y="242.5">«block»</text></g></g><g transform="translate(-4,-4) scale(1,1)"><g><path fill="none" stroke="none"/><text fill="#000000" stroke="none" font-family="Arial" font-size="13px" font-style="normal" font-weight="bold" text-decoration="none" x="379.97998046875" y="257.5">PedalBox</text></g></g><g transform="translate(-4,-4) scale(1,1)"><path fill="none" stroke="#000000" d="M 124 241 L 124 147 L 293 147 L 293 88" stroke-miterlimit="10"/></g><g transform="translate(-4,-4) scale(1,1)"><path fill="#000000" stroke="none" d="M 297.209517756016 98.16267485762415 L 293 88 L 288.790482243984 98.16267485762415 L 293 110"/></g><g transform="translate(-4,-4) scale(1,1)"><path fill="none" stroke="#000000" d="M 297.209517756016 98.16267485762415 L 293 88 L 288.790482243984 98.16267485762415 L 293 110 L 297.209517756016 98.16267485762415" stroke-miterlimit="10"/></g><g transform="translate(-4,-4) scale(1,1)"><path fill="none" stroke="#000000" d="M 413 227 L 413 147 L 333 147 L 333 88" stroke-miterlimit="10"/></g><g transform="translate(-4,-4) scale(1,1)"><path fill="#000000" stroke="none" d="M 337.209517756016 98.16267485762415 L 333 88 L 328.790482243984 98.16267485762415 L 333 110"/></g><g transform="translate(-4,-4) scale(1,1)"><path fill="none" stroke="#000000" d="M 337.209517756016 98.16267485762415 L 333 88 L 328.790482243984 98.16267485762415 L 333 110 L 337.209517756016 98.16267485762415" stroke-miterlimit="10"/></g><g transform="translate(-4,-4) scale(1,1)"><rect fill="#C0C0C0" stroke="none" x="292" y="362" width="98.578125" height="120.39999999999998" opacity="0.2"/></g><g transform="translate(-4,-4) scale(1,1)"><rect fill="#ffffff" stroke="none" x="285" y="355" width="98.578125" height="120.39999999999998"/></g><g transform="translate(-4,-4) scale(1,1)"><path fill="none" stroke="#000000" d="M 285 355 L 383.578125 355 L 383.578125 475.4 L 285 475.4 L 285 355 Z Z" stroke-miterlimit="10"/></g><g transform="translate(-4,-4) scale(1,1)"><path fill="none" stroke="#000000" d="M 285 393 L 383.578125 393" stroke-miterlimit="10"/></g><g transform="translate(-4,-4) scale(1,1)"><g><path fill="none" stroke="none"/><text fill="#000000" stroke="none" font-family="Arial" font-size="13px" font-style="normal" font-weight="normal" text-decoration="none" x="311.885009765625" y="370.5">«block»</text></g></g><g transform="translate(-4,-4) scale(1,1)"><g><path fill="none" stroke="none"/><text fill="#000000" stroke="none" font-family="Arial" font-size="13px" font-style="normal" font-weight="bold" text-decoration="none" x="289.5" y="385.5">LoadCellPedal</text></g></g><g transform="translate(-4,-4) scale(1,1)"><g><path fill="none" stroke="none"/><text fill="#000000" stroke="none" font-family="Arial" font-size="10.4px" font-style="italic" font-weight="normal" text-decoration="none" x="322.73912048339844" y="406">parts</text></g></g><g transform="translate(-4,-4) scale(1,1)"><g><path fill="none" stroke="none"/><text fill="#000000" stroke="none" font-family="Arial" font-size="13px" font-style="normal" font-weight="normal" text-decoration="none" x="290" y="423.9">: HX711</text></g></g><g transform="translate(-4,-4) scale(1,1)"><g><path fill="none" stroke="none"/><text fill="#000000" stroke="none" font-family="Arial" font-size="13px" font-style="normal" font-weight="normal" text-decoration="none" x="290" y="438.9">: Pedal</text></g></g><g transform="translate(-4,-4) scale(1,1)"><g><path fill="none" stroke="none"/><text fill="#000000" stroke="none" font-family="Arial" font-size="13px" font-style="normal" font-weight="normal" text-decoration="none" x="290" y="453.9">: Load Cell</text></g></g><g transform="translate(-4,-4) scale(1,1)"><rect fill="#C0C0C0" stroke="none" x="444" y="362" width="128.21533203125" height="90.39999999999998" opacity="0.2"/></g><g transform="translate(-4,-4) scale(1,1)"><rect fill="#ffffff" stroke="none" x="437" y="355" width="128.21533203125" height="90.39999999999998"/></g><g transform="translate(-4,-4) scale(1,1)"><path fill="none" stroke="#000000" d="M 437 355 L 565.21533203125 355 L 565.21533203125 445.4 L 437 445.4 L 437 355 Z Z" stroke-miterlimit="10"/></g><g transform="translate(-4,-4) scale(1,1)"><path fill="none" stroke="#000000" d="M 437 393 L 565.21533203125 393" stroke-miterlimit="10"/></g><g transform="translate(-4,-4) scale(1,1)"><g><path fill="none" stroke="none"/><text fill="#000000" stroke="none" font-family="Arial" font-size="13px" font-style="normal" font-weight="normal" text-decoration="none" x="478.70361328125" y="370.5">«block»</text></g></g><g transform="translate(-4,-4) scale(1,1)"><g><path fill="none" stroke="none"/><text fill="#000000" stroke="none" font-family="Arial" font-size="13px" font-style="normal" font-weight="bold" text-decoration="none" x="441.5" y="385.5">DisplacementPedal</text></g></g><g transform="translate(-4,-4) scale(1,1)"><g><path fill="none" stroke="none"/><text fill="#000000" stroke="none" font-family="Arial" font-size="10.4px" font-style="italic" font-weight="normal" text-decoration="none" x="489.55772399902344" y="406">parts</text></g></g><g transform="translate(-4,-4) scale(1,1)"><g><path fill="none" stroke="none"/><text fill="#000000" stroke="none" font-family="Arial" font-size="13px" font-style="normal" font-weight="normal" text-decoration="none" x="442" y="423.9">ClutchPedal</text></g></g><g transform="translate(-4,-4) scale(1,1)"><g><path fill="none" stroke="none"/><text fill="#000000" stroke="none" font-family="Arial" font-size="13px" font-style="normal" font-weight="normal" text-decoration="none" x="442" y="438.9">GasPedal</text></g></g><g transform="translate(-4,-4) scale(1,1)"><path fill="none" stroke="#000000" d="M 333 355 L 333 299 L 389 299 L 389 264" stroke-miterlimit="10"/></g><g transform="translate(-4,-4) scale(1,1)"><path fill="#000000" stroke="none" d="M 393.209517756016 274.16267485762415 L 389 264 L 384.790482243984 274.16267485762415 L 389 286"/></g><g transform="translate(-4,-4) scale(1,1)"><path fill="none" stroke="#000000" d="M 393.209517756016 274.16267485762415 L 389 264 L 384.790482243984 274.16267485762415 L 389 286 L 393.209517756016 274.16267485762415" stroke-miterlimit="10"/></g><g transform="translate(-4,-4) scale(1,1)"><path fill="none" stroke="#000000" d="M 493 355 L 493 299 L 429 299 L 429 264" stroke-miterlimit="10"/></g><g transform="translate(-4,-4) scale(1,1)"><path fill="#000000" stroke="none" d="M 433.209517756016 274.16267485762415 L 429 264 L 424.790482243984 274.16267485762415 L 429 286"/></g><g transform="translate(-4,-4) scale(1,1)"><path fill="none" stroke="#000000" d="M 433.209517756016 274.16267485762415 L 429 264 L 424.790482243984 274.16267485762415 L 429 286 L 433.209517756016 274.16267485762415" stroke-miterlimit="10"/></g></g></svg>