<svg version="1.1" xmlns="http://www.w3.org/2000/svg" xmlns:xlink="http://www.w3.org/1999/xlink" width="725" height="353" style="background-color: white"><defs/><g><text fill="#eeeeee" stroke="none" font-family="Arial" font-size="24px" font-style="normal" font-weight="normal" text-decoration="none" x="0" y="0">UNREGISTERED</text><text fill="#eeeeee" stroke="none" font-family="Arial" font-size="24px" font-style="normal" font-weight="normal" text-decoration="none" x="0" y="30">UNREGISTERED</text><text fill="#eeeeee" stroke="none" font-family="Arial" font-size="24px" font-style="normal" font-weight="normal" text-decoration="none" x="0" y="60">UNREGISTERED</text><text fill="#eeeeee" stroke="none" font-family="Arial" font-size="24px" font-style="normal" font-weight="normal" text-decoration="none" x="0" y="90">UNREGISTERED</text><text fill="#eeeeee" stroke="none" font-family="Arial" font-size="24px" font-style="normal" font-weight="normal" text-decoration="none" x="0" y="120">UNREGISTERED</text><text fill="#eeeeee" stroke="none" font-family="Arial" font-size="24px" font-style="normal" font-weight="normal" text-decoration="none" x="0" y="150">UNREGISTERED</text><text fill="#eeeeee" stroke="none" font-family="Arial" font-size="24px" font-style="normal" font-weight="normal" text-decoration="none" x="0" y="180">UNREGISTERED</text><text fill="#eeeeee" stroke="none" font-family="Arial" font-size="24px" font-style="normal" font-weight="normal" text-decoration="none" x="0" y="210">UNREGISTERED</text><text fill="#eeeeee" stroke="none" font-family="Arial" font-size="24px" font-style="normal" font-weight="normal" text-decoration="none" x="0" y="240">UNREGISTERED</text><text fill="#eeeeee" stroke="none" font-family="Arial" font-size="24px" font-style="normal" font-weight="normal" text-decoration="none" x="0" y="270">UNREGISTERED</text><text fill="#eeeeee" stroke="none" font-family="Arial" font-size="24px" font-style="normal" font-weight="normal" text-decoration="none" x="0" y="300">UNREGISTERED</text><text fill="#eeeeee" stroke="none" font-family="Arial" font-size="24px" font-style="normal" font-weight="normal" text-decoration="none" x="0" y="330">UNREGISTERED</text><text fill="#eeeeee" stroke="none" font-family="Arial" font-size="24px" font-style="normal" font-weight="normal" text-decoration="none" x="200" y="0">UNREGISTERED</text><text fill="#eeeeee" stroke="none" font-family="Arial" font-size="24px" font-style="normal" font-weight="normal" text-decoration="none" x="200" y="30">UNREGISTERED</text><text fill="#eeeeee" stroke="none" font-family="Arial" font-size="24px" font-style="normal" font-weight="normal" text-decoration="none" x="200" y="60">UNREGISTERED</text><text fill="#eeeeee" stroke="none" font-family="Arial" font-size="24px" font-style="normal" font-weight="normal" text-decoration="none" x="200" y="90">UNREGISTERED</text><text fill="#eeeeee" stroke="none" font-family="Arial" font-size="24px" font-style="normal" font-weight="normal" text-decoration="none" x="200" y="120">UNREGISTERED</text><text fill="#eeeeee" stroke="none" font-family="Arial" font-size="24px" font-style="normal" font-weight="normal" text-decoration="none" x="200" y="150">UNREGISTERED</text><text fill="#eeeeee" stroke="none" font-family="Arial" font-size="24px" font-style="normal" font-weight="normal" text-decoration="none" x="200" y="180">UNREGISTERED</text><text fill="#eeeeee" stroke="none" font-family="Arial" font-size="24px" font-style="normal" font-weight="normal" text-decoration="none" x="200" y="210">UNREGISTERED</text><text fill="#eeeeee" stroke="none" font-family="Arial" font-size="24px" font-style="normal" font-weight="normal" text-decoration="none" x="200" y="240">UNREGISTERED</text><text fill="#eeeeee" stroke="none" font-family="Arial" font-size="24px" font-style="normal" font-weight="normal" text-decoration="none" x="200" y="270">UNREGISTERED</text><text fill="#eeeeee" stroke="none" font-family="Arial" font-size="24px" font-style="normal" font-weight="normal" text-decoration="none" x="200" y="300">UNREGISTERED</text><text fill="#eeeeee" stroke="none" font-family="Arial" font-size="24px" font-style="normal" font-weight="normal" text-decoration="none" x="200" y="330">UNREGISTERED</text><text fill="#eeeeee" stroke="none" font-family="Arial" font-size="24px" font-style="normal" font-weight="normal" text-decoration="none" x="400" y="0">UNREGISTERED</text><text fill="#eeeeee" stroke="none" font-family="Arial" font-size="24px" font-style="normal" font-weight="normal" text-decoration="none" x="400" y="30">UNREGISTERED</text><text fill="#eeeeee" stroke="none" font-family="Arial" font-size="24px" font-style="normal" font-weight="normal" text-decoration="none" x="400" y="60">UNREGISTERED</text><text fill="#eeeeee" stroke="none" font-family="Arial" font-size="24px" font-style="normal" font-weight="normal" text-decoration="none" x="400" y="90">UNREGISTERED</text><text fill="#eeeeee" stroke="none" font-family="Arial" font-size="24px" font-style="normal" font-weight="normal" text-decoration="none" x="400" y="120">UNREGISTERED</text><text fill="#eeeeee" stroke="none" font-family="Arial" font-size="24px" font-style="normal" font-weight="normal" text-decoration="none" x="400" y="150">UNREGISTERED</text><text fill="#eeeeee" stroke="none" font-family="Arial" font-size="24px" font-style="normal" font-weight="normal" text-decoration="none" x="400" y="180">UNREGISTERED</text><text fill="#eeeeee" stroke="none" font-family="Arial" font-size="24px" font-style="normal" font-weight="normal" text-decoration="none" x="400" y="210">UNREGISTERED</text><text fill="#eeeeee" stroke="none" font-family="Arial" font-size="24px" font-style="normal" font-weight="normal" text-decoration="none" x="400" y="240">UNREGISTERED</text><text fill="#eeeeee" stroke="none" font-family="Arial" font-size="24px" font-style="normal" font-weight="normal" text-decoration="none" x="400" y="270">UNREGISTERED</text><text fill="#eeeeee" stroke="none" font-family="Arial" font-size="24px" font-style="normal" font-weight="normal" text-decoration="none" x="400" y="300">UNREGISTERED</text><text fill="#eeeeee" stroke="none" font-family="Arial" font-size="24px" font-style="normal" font-weight="normal" text-decoration="none" x="400" y="330">UNREGISTERED</text><text fill="#eeeeee" stroke="none" font-family="Arial" font-size="24px" font-style="normal" font-weight="normal" text-decoration="none" x="600" y="0">UNREGISTERED</text><text fill="#eeeeee" stroke="none" font-family="Arial" font-size="24px" font-style="normal" font-weight="normal" text-decoration="none" x="600" y="30">UNREGISTERED</text><text fill="#eeeeee" stroke="none" font-family="Arial" font-size="24px" font-style="normal" font-weight="normal" text-decoration="none" x="600" y="60">UNREGISTERED</text><text fill="#eeeeee" stroke="none" font-family="Arial" font-size="24px" font-style="normal" font-weight="normal" text-decoration="none" x="600" y="90">UNREGISTERED</text><text fill="#eeeeee" stroke="none" font-family="Arial" font-size="24px" font-style="normal" font-weight="normal" text-decoration="none" x="600" y="120">UNREGISTERED</text><text fill="#eeeeee" stroke="none" font-family="Arial" font-size="24px" font-style="normal" font-weight="normal" text-decoration="none" x="600" y="150">UNREGISTERED</text><text fill="#eeeeee" stroke="none" font-family="Arial" font-size="24px" font-style="normal" font-weight="normal" text-decoration="none" x="600" y="180">UNREGISTERED</text><text fill="#eeeeee" stroke="none" font-family="Arial" font-size="24px" font-style="normal" font-weight="normal" text-decoration="none" x="600" y="210">UNREGISTERED</text><text fill="#eeeeee" stroke="none" font-family="Arial" font-size="24px" font-style="normal" font-weight="normal" text-decoration="none" x="600" y="240">UNREGISTERED</text><text fill="#eeeeee" stroke="none" font-family="Arial" font-size="24px" font-style="normal" font-weight="normal" text-decoration="none" x="600" y="270">UNREGISTERED</text><text fill="#eeeeee" stroke="none" font-family="Arial" font-size="24px" font-style="normal" font-weight="normal" text-decoration="none" x="600" y="300">UNREGISTERED</text><text fill="#eeeeee" stroke="none" font-family="Arial" font-size="24px" font-style="normal" font-weight="normal" text-decoration="none" x="600" y="330">UNREGISTERED</text><g transform="translate(-134,-23) scale(1,1)"><path fill="none" stroke="#000000" d="M 151 33 L 842 33 L 842 366 L 151 366 L 151 33" stroke-miterlimit="10"/></g><g transform="translate(-134,-23) scale(1,1)"><path fill="#ffffff" stroke="none" d="M 151 33 L 151 55 L 336.8125 55 L 347.8125 44 L 347.8125 33 L 151 33"/></g><g transform="translate(-134,-23) scale(1,1)"><path fill="none" stroke="#000000" d="M 151 33 L 151 55 L 336.8125 55 L 347.8125 44 L 347.8125 33 L 151 33 L 151 33" stroke-miterlimit="10"/></g><g transform="translate(-134,-23) scale(1,1)"><g><path fill="none" stroke="none"/><text fill="#000000" stroke="none" font-family="Arial" font-size="13px" font-style="normal" font-weight="normal" text-decoration="none" x="179.34814453125" y="48.5">ArduinoBox [ Signal Flow ]</text></g></g><g transform="translate(-134,-23) scale(1,1)"><g><path fill="none" stroke="none"/><text fill="#000000" stroke="none" font-family="Arial" font-size="13px" font-style="normal" font-weight="bold" text-decoration="none" x="154.92724609375" y="48.5">ibd</text></g></g><g transform="translate(-134,-23) scale(1,1)"><rect fill="#ffffff" stroke="none" x="835" y="250" width="14" height="14"/></g><g transform="translate(-134,-23) scale(1,1)"><path fill="none" stroke="#000000" d="M 835 250 L 849 250 L 849 264 L 835 264 L 835 250 Z Z" stroke-miterlimit="10"/></g><g transform="translate(-134,-23) scale(1,1)"><g><path fill="none" stroke="none"/><text fill="#000000" stroke="none" font-family="Arial" font-size="13px" font-style="normal" font-weight="normal" text-decoration="none" x="789.658203125" y="246">USB C: USB</text></g></g><g transform="translate(-134,-23) scale(1,1)"><rect fill="#ffffff" stroke="none" x="144" y="228" width="14" height="14"/></g><g transform="translate(-134,-23) scale(1,1)"><path fill="none" stroke="#000000" d="M 144 228 L 158 228 L 158 242 L 144 242 L 144 228 Z Z" stroke-miterlimit="10"/></g><g transform="translate(-134,-23) scale(1,1)"><g><path fill="none" stroke="none"/><text fill="#000000" stroke="none" font-family="Arial" font-size="13px" font-style="normal" font-weight="normal" text-decoration="none" x="166.721435546875" y="222">analog I/O: RJ45</text></g></g><g transform="translate(-134,-23) scale(1,1)"><rect fill="#ffffff" stroke="none" x="144" y="283" width="14" height="14"/></g><g transform="translate(-134,-23) scale(1,1)"><path fill="none" stroke="#000000" d="M 144 283 L 158 283 L 158 297 L 144 297 L 144 283 Z Z" stroke-miterlimit="10"/></g><g transform="translate(-134,-23) scale(1,1)"><g><path fill="none" stroke="none"/><text fill="#000000" stroke="none" font-family="Arial" font-size="13px" font-style="normal" font-weight="normal" text-decoration="none" x="164.445068359375" y="318">serial interface: RJ45</text></g></g><g transform="translate(-134,-23) scale(1,1)"><rect fill="#C0C0C0" stroke="none" x="316" y="284" width="88.50439453125" height="24" opacity="0.2"/></g><g transform="translate(-134,-23) scale(1,1)"><rect fill="#ffffff" stroke="none" x="299" y="267" width="108.50439453125" height="44"/></g><g transform="translate(-134,-23) scale(1,1)"><path fill="none" stroke="#000000" d="M 299 267 L 407.50439453125 267 L 407.50439453125 311 L 299 311 L 299 267 Z Z" stroke-miterlimit="10"/></g><g transform="translate(-134,-23) scale(1,1)"><g><path fill="none" stroke="none"/><text fill="#000000" stroke="none" font-family="Arial" font-size="13px" font-style="normal" font-weight="bold" text-decoration="none" x="313.5" y="294.5">class: HX711</text></g></g><g transform="translate(-134,-23) scale(1,1)"><rect fill="#C0C0C0" stroke="none" x="662" y="69" width="149.17529296875" height="24" opacity="0.2"/></g><g transform="translate(-134,-23) scale(1,1)"><rect fill="#ffffff" stroke="none" x="645" y="52" width="169.17529296875" height="44"/></g><g transform="translate(-134,-23) scale(1,1)"><path fill="none" stroke="#000000" d="M 645 52 L 814.17529296875 52 L 814.17529296875 96 L 645 96 L 645 52 Z Z" stroke-miterlimit="10"/></g><g transform="translate(-134,-23) scale(1,1)"><g><path fill="none" stroke="none"/><text fill="#000000" stroke="none" font-family="Arial" font-size="13px" font-style="normal" font-weight="bold" text-decoration="none" x="683.33544921875" y="79.5">class: Joystick</text></g></g><g transform="translate(-134,-23) scale(1,1)"><rect fill="#C0C0C0" stroke="none" x="260" y="135" width="209.84619140625" height="24" opacity="0.2"/></g><g transform="translate(-134,-23) scale(1,1)"><rect fill="#ffffff" stroke="none" x="243" y="118" width="229.84619140625" height="44"/></g><g transform="translate(-134,-23) scale(1,1)"><path fill="none" stroke="#000000" d="M 243 118 L 472.84619140625 118 L 472.84619140625 162 L 243 162 L 243 118 Z Z" stroke-miterlimit="10"/></g><g transform="translate(-134,-23) scale(1,1)"><g><path fill="none" stroke="none"/><text fill="#000000" stroke="none" font-family="Arial" font-size="13px" font-style="normal" font-weight="bold" text-decoration="none" x="341.6572265625" y="145.5">class</text></g></g><g transform="translate(-134,-23) scale(1,1)"><path fill="none" stroke="#000000" d="M 159 290 L 298 289" stroke-miterlimit="10"/></g><g transform="translate(-134,-23) scale(1,1)"><path fill="none" stroke="#000000" d="M 368 267 L 368 162" stroke-miterlimit="10"/></g><g transform="translate(-134,-23) scale(1,1)"><rect fill="#C0C0C0" stroke="none" x="554" y="133" width="114.47900390625" height="24" opacity="0.2"/></g><g transform="translate(-134,-23) scale(1,1)"><rect fill="#ffffff" stroke="none" x="537" y="116" width="134.47900390625" height="44"/></g><g transform="translate(-134,-23) scale(1,1)"><path fill="none" stroke="#000000" d="M 537 116 L 671.47900390625 116 L 671.47900390625 160 L 537 160 L 537 116 Z Z" stroke-miterlimit="10"/></g><g transform="translate(-134,-23) scale(1,1)"><g><path fill="none" stroke="none"/><text fill="#000000" stroke="none" font-family="Arial" font-size="13px" font-style="normal" font-weight="bold" text-decoration="none" x="587.9736328125" y="143.5">class</text></g></g><g transform="translate(-134,-23) scale(1,1)"><path fill="none" stroke="#000000" d="M 536 139 L 474 139" stroke-miterlimit="10"/></g><g transform="translate(-134,-23) scale(1,1)"><rect fill="#C0C0C0" stroke="none" x="570" y="252" width="84.88623046875" height="24" opacity="0.2"/></g><g transform="translate(-134,-23) scale(1,1)"><rect fill="#ffffff" stroke="none" x="553" y="235" width="104.88623046875" height="44"/></g><g transform="translate(-134,-23) scale(1,1)"><path fill="none" stroke="#000000" d="M 553 235 L 657.88623046875 235 L 657.88623046875 279 L 553 279 L 553 235 Z Z" stroke-miterlimit="10"/></g><g transform="translate(-134,-23) scale(1,1)"><g><path fill="none" stroke="none"/><text fill="#000000" stroke="none" font-family="Arial" font-size="13px" font-style="normal" font-weight="bold" text-decoration="none" x="589.17724609375" y="262.5">class</text></g></g><g transform="translate(-134,-23) scale(1,1)"><path fill="none" stroke="#000000" d="M 604 161 L 605 234" stroke-miterlimit="10"/></g><g transform="translate(-134,-23) scale(1,1)"><path fill="none" stroke="#000000" d="M 659 257 L 834 257" stroke-miterlimit="10"/></g></g></svg>