<svg version="1.1" xmlns="http://www.w3.org/2000/svg" xmlns:xlink="http://www.w3.org/1999/xlink" width="851" height="193" style="background-color: white"><defs/><g><text fill="#eeeeee" stroke="none" font-family="Arial" font-size="24px" font-style="normal" font-weight="normal" text-decoration="none" x="0" y="0">UNREGISTERED</text><text fill="#eeeeee" stroke="none" font-family="Arial" font-size="24px" font-style="normal" font-weight="normal" text-decoration="none" x="0" y="30">UNREGISTERED</text><text fill="#eeeeee" stroke="none" font-family="Arial" font-size="24px" font-style="normal" font-weight="normal" text-decoration="none" x="0" y="60">UNREGISTERED</text><text fill="#eeeeee" stroke="none" font-family="Arial" font-size="24px" font-style="normal" font-weight="normal" text-decoration="none" x="0" y="90">UNREGISTERED</text><text fill="#eeeeee" stroke="none" font-family="Arial" font-size="24px" font-style="normal" font-weight="normal" text-decoration="none" x="0" y="120">UNREGISTERED</text><text fill="#eeeeee" stroke="none" font-family="Arial" font-size="24px" font-style="normal" font-weight="normal" text-decoration="none" x="0" y="150">UNREGISTERED</text><text fill="#eeeeee" stroke="none" font-family="Arial" font-size="24px" font-style="normal" font-weight="normal" text-decoration="none" x="0" y="180">UNREGISTERED</text><text fill="#eeeeee" stroke="none" font-family="Arial" font-size="24px" font-style="normal" font-weight="normal" text-decoration="none" x="200" y="0">UNREGISTERED</text><text fill="#eeeeee" stroke="none" font-family="Arial" font-size="24px" font-style="normal" font-weight="normal" text-decoration="none" x="200" y="30">UNREGISTERED</text><text fill="#eeeeee" stroke="none" font-family="Arial" font-size="24px" font-style="normal" font-weight="normal" text-decoration="none" x="200" y="60">UNREGISTERED</text><text fill="#eeeeee" stroke="none" font-family="Arial" font-size="24px" font-style="normal" font-weight="normal" text-decoration="none" x="200" y="90">UNREGISTERED</text><text fill="#eeeeee" stroke="none" font-family="Arial" font-size="24px" font-style="normal" font-weight="normal" text-decoration="none" x="200" y="120">UNREGISTERED</text><text fill="#eeeeee" stroke="none" font-family="Arial" font-size="24px" font-style="normal" font-weight="normal" text-decoration="none" x="200" y="150">UNREGISTERED</text><text fill="#eeeeee" stroke="none" font-family="Arial" font-size="24px" font-style="normal" font-weight="normal" text-decoration="none" x="200" y="180">UNREGISTERED</text><text fill="#eeeeee" stroke="none" font-family="Arial" font-size="24px" font-style="normal" font-weight="normal" text-decoration="none" x="400" y="0">UNREGISTERED</text><text fill="#eeeeee" stroke="none" font-family="Arial" font-size="24px" font-style="normal" font-weight="normal" text-decoration="none" x="400" y="30">UNREGISTERED</text><text fill="#eeeeee" stroke="none" font-family="Arial" font-size="24px" font-style="normal" font-weight="normal" text-decoration="none" x="400" y="60">UNREGISTERED</text><text fill="#eeeeee" stroke="none" font-family="Arial" font-size="24px" font-style="normal" font-weight="normal" text-decoration="none" x="400" y="90">UNREGISTERED</text><text fill="#eeeeee" stroke="none" font-family="Arial" font-size="24px" font-style="normal" font-weight="normal" text-decoration="none" x="400" y="120">UNREGISTERED</text><text fill="#eeeeee" stroke="none" font-family="Arial" font-size="24px" font-style="normal" font-weight="normal" text-decoration="none" x="400" y="150">UNREGISTERED</text><text fill="#eeeeee" stroke="none" font-family="Arial" font-size="24px" font-style="normal" font-weight="normal" text-decoration="none" x="400" y="180">UNREGISTERED</text><text fill="#eeeeee" stroke="none" font-family="Arial" font-size="24px" font-style="normal" font-weight="normal" text-decoration="none" x="600" y="0">UNREGISTERED</text><text fill="#eeeeee" stroke="none" font-family="Arial" font-size="24px" font-style="normal" font-weight="normal" text-decoration="none" x="600" y="30">UNREGISTERED</text><text fill="#eeeeee" stroke="none" font-family="Arial" font-size="24px" font-style="normal" font-weight="normal" text-decoration="none" x="600" y="60">UNREGISTERED</text><text fill="#eeeeee" stroke="none" font-family="Arial" font-size="24px" font-style="normal" font-weight="normal" text-decoration="none" x="600" y="90">UNREGISTERED</text><text fill="#eeeeee" stroke="none" font-family="Arial" font-size="24px" font-style="normal" font-weight="normal" text-decoration="none" x="600" y="120">UNREGISTERED</text><text fill="#eeeeee" stroke="none" font-family="Arial" font-size="24px" font-style="normal" font-weight="normal" text-decoration="none" x="600" y="150">UNREGISTERED</text><text fill="#eeeeee" stroke="none" font-family="Arial" font-size="24px" font-style="normal" font-weight="normal" text-decoration="none" x="600" y="180">UNREGISTERED</text><text fill="#eeeeee" stroke="none" font-family="Arial" font-size="24px" font-style="normal" font-weight="normal" text-decoration="none" x="800" y="0">UNREGISTERED</text><text fill="#eeeeee" stroke="none" font-family="Arial" font-size="24px" font-style="normal" font-weight="normal" text-decoration="none" x="800" y="30">UNREGISTERED</text><text fill="#eeeeee" stroke="none" font-family="Arial" font-size="24px" font-style="normal" font-weight="normal" text-decoration="none" x="800" y="60">UNREGISTERED</text><text fill="#eeeeee" stroke="none" font-family="Arial" font-size="24px" font-style="normal" font-weight="normal" text-decoration="none" x="800" y="90">UNREGISTERED</text><text fill="#eeeeee" stroke="none" font-family="Arial" font-size="24px" font-style="normal" font-weight="normal" text-decoration="none" x="800" y="120">UNREGISTERED</text><text fill="#eeeeee" stroke="none" font-family="Arial" font-size="24px" font-style="normal" font-weight="normal" text-decoration="none" x="800" y="150">UNREGISTERED</text><text fill="#eeeeee" stroke="none" font-family="Arial" font-size="24px" font-style="normal" font-weight="normal" text-decoration="none" x="800" y="180">UNREGISTERED</text><g transform="translate(-78,-1) scale(1,1)"><path fill="none" stroke="#000000" d="M 95 11 L 912 11 L 912 184 L 95 184 L 95 11" stroke-miterlimit="10"/></g><g transform="translate(-78,-1) scale(1,1)"><path fill="#ffffff" stroke="none" d="M 95 11 L 95 33 L 305.390625 33 L 316.390625 22 L 316.390625 11 L 95 11"/></g><g transform="translate(-78,-1) scale(1,1)"><path fill="none" stroke="#000000" d="M 95 11 L 95 33 L 305.390625 33 L 316.390625 22 L 316.390625 11 L 95 11 L 95 11" stroke-miterlimit="10"/></g><g transform="translate(-78,-1) scale(1,1)"><g><path fill="none" stroke="none"/><text fill="#000000" stroke="none" font-family="Arial" font-size="13px" font-style="normal" font-weight="normal" text-decoration="none" x="123.34814453125" y="26.5">Load Cell Pedal [ Signal Flow ]</text></g></g><g transform="translate(-78,-1) scale(1,1)"><g><path fill="none" stroke="none"/><text fill="#000000" stroke="none" font-family="Arial" font-size="13px" font-style="normal" font-weight="bold" text-decoration="none" x="98.92724609375" y="26.5">ibd</text></g></g><g transform="translate(-78,-1) scale(1,1)"><rect fill="#ffffff" stroke="none" x="905" y="85" width="14" height="14"/></g><g transform="translate(-78,-1) scale(1,1)"><path fill="none" stroke="#000000" d="M 905 85 L 919 85 L 919 99 L 905 99 L 905 85 Z Z" stroke-miterlimit="10"/></g><g transform="translate(-78,-1) scale(1,1)"><g><path fill="none" stroke="none"/><text fill="#000000" stroke="none" font-family="Arial" font-size="13px" font-style="normal" font-weight="normal" text-decoration="none" x="815.425048828125" y="112.5">serial interface:</text><text fill="#000000" stroke="none" font-family="Arial" font-size="13px" font-style="normal" font-weight="normal" text-decoration="none" x="844.325927734375" y="125.5">RJ45</text></g></g><g transform="translate(-78,-1) scale(1,1)"><rect fill="#ffffff" stroke="none" x="88" y="86" width="14" height="14"/></g><g transform="translate(-78,-1) scale(1,1)"><path fill="none" stroke="#000000" d="M 88 86 L 102 86 L 102 100 L 88 100 L 88 86 Z Z" stroke-miterlimit="10"/></g><g transform="translate(-78,-1) scale(1,1)"><g><path fill="none" stroke="none"/><text fill="#000000" stroke="none" font-family="Arial" font-size="13px" font-style="normal" font-weight="normal" text-decoration="none" x="96.0927734375" y="115">: user inputs</text></g></g><g transform="translate(-78,-1) scale(1,1)"><rect fill="#C0C0C0" stroke="none" x="643" y="87" width="88.49169921875" height="24" opacity="0.2"/></g><g transform="translate(-78,-1) scale(1,1)"><rect fill="#ffffff" stroke="none" x="626" y="70" width="108.49169921875" height="44"/></g><g transform="translate(-78,-1) scale(1,1)"><path fill="none" stroke="#000000" d="M 626 70 L 734.49169921875 70 L 734.49169921875 114 L 626 114 L 626 70 Z Z" stroke-miterlimit="10"/></g><g transform="translate(-78,-1) scale(1,1)"><g><path fill="none" stroke="none"/><text fill="#000000" stroke="none" font-family="Arial" font-size="13px" font-style="normal" font-weight="bold" text-decoration="none" x="656.759521484375" y="97.5">: HX711</text></g></g><g transform="translate(-78,-1) scale(1,1)"><path fill="none" stroke="#000000" d="M 735 92 L 904 92" stroke-miterlimit="10"/></g><g transform="translate(-78,-1) scale(1,1)"><g><path fill="none" stroke="none"/><text fill="#000000" stroke="none" font-family="Arial" font-size="13px" font-style="normal" font-weight="normal" text-decoration="none" x="761.2958984375" y="81.5">digital signal</text></g></g><g transform="translate(-78,-1) scale(1,1)"><rect fill="#C0C0C0" stroke="none" x="212" y="89" width="87.76171875" height="24" opacity="0.2"/></g><g transform="translate(-78,-1) scale(1,1)"><rect fill="#ffffff" stroke="none" x="195" y="72" width="107.76171875" height="44"/></g><g transform="translate(-78,-1) scale(1,1)"><path fill="none" stroke="#000000" d="M 195 72 L 302.76171875 72 L 302.76171875 116 L 195 116 L 195 72 Z Z" stroke-miterlimit="10"/></g><g transform="translate(-78,-1) scale(1,1)"><g><path fill="none" stroke="none"/><text fill="#000000" stroke="none" font-family="Arial" font-size="13px" font-style="normal" font-weight="bold" text-decoration="none" x="227.568603515625" y="99.5">: Pedal</text></g></g><g transform="translate(-78,-1) scale(1,1)"><rect fill="#C0C0C0" stroke="none" x="418" y="89" width="107.96630859375" height="24" opacity="0.2"/></g><g transform="translate(-78,-1) scale(1,1)"><rect fill="#ffffff" stroke="none" x="401" y="72" width="127.96630859375" height="44"/></g><g transform="translate(-78,-1) scale(1,1)"><path fill="none" stroke="#000000" d="M 401 72 L 528.96630859375 72 L 528.96630859375 116 L 401 116 L 401 72 Z Z" stroke-miterlimit="10"/></g><g transform="translate(-78,-1) scale(1,1)"><g><path fill="none" stroke="none"/><text fill="#000000" stroke="none" font-family="Arial" font-size="13px" font-style="normal" font-weight="bold" text-decoration="none" x="431.759521484375" y="99.5">: Load Cell</text></g></g><g transform="translate(-78,-1) scale(1,1)"><path fill="none" stroke="#000000" d="M 103 93 L 194 94" stroke-miterlimit="10"/></g><g transform="translate(-78,-1) scale(1,1)"><path fill="#000000" stroke="none" d="M 137.12149469640934 97.58473339575917 L 147.32981163970055 93.48714078724946 L 137.21400598458072 89.1662061721638"/></g><g transform="translate(-78,-1) scale(1,1)"><path fill="none" stroke="#000000" d="M 137.12149469640934 97.58473339575917 L 147.32981163970055 93.48714078724946 L 137.21400598458072 89.1662061721638 L 137.12149469640934 97.58473339575917" stroke-miterlimit="10"/></g><g transform="translate(-78,-1) scale(1,1)"><g><path fill="none" stroke="none"/><text fill="#000000" stroke="none" font-family="Arial" font-size="13px" font-style="normal" font-weight="normal" text-decoration="none" x="133.46044921875" y="82.5">force</text></g></g><g transform="translate(-78,-1) scale(1,1)"><g><path fill="none" stroke="none"/><text fill="#000000" stroke="none" font-family="Arial" font-size="13px" font-style="normal" font-weight="normal" text-decoration="none" x="147.5" y="78"></text></g></g><g transform="translate(-78,-1) scale(1,1)"><path fill="none" stroke="#000000" d="M 304 94 L 400 94" stroke-miterlimit="10"/></g><g transform="translate(-78,-1) scale(1,1)"><path fill="#000000" stroke="none" d="M 341.33732514237585 98.20951775601598 L 351.5 94 L 341.33732514237585 89.79048224398402"/></g><g transform="translate(-78,-1) scale(1,1)"><path fill="none" stroke="#000000" d="M 341.33732514237585 98.20951775601598 L 351.5 94 L 341.33732514237585 89.79048224398402 L 341.33732514237585 98.20951775601598" stroke-miterlimit="10"/></g><g transform="translate(-78,-1) scale(1,1)"><g><path fill="none" stroke="none"/><text fill="#000000" stroke="none" font-family="Arial" font-size="13px" font-style="normal" font-weight="normal" text-decoration="none" x="311.5" y="83.5">force modified</text></g></g><g transform="translate(-78,-1) scale(1,1)"><g><path fill="none" stroke="none"/><text fill="#000000" stroke="none" font-family="Arial" font-size="13px" font-style="normal" font-weight="normal" text-decoration="none" x="351.5" y="79"></text></g></g><g transform="translate(-78,-1) scale(1,1)"><path fill="none" stroke="#000000" d="M 530 93 L 625 93" stroke-miterlimit="10"/></g><g transform="translate(-78,-1) scale(1,1)"><path fill="#000000" stroke="none" d="M 566.3373251423759 97.20951775601598 L 576.5 93 L 566.3373251423758 88.79048224398402"/></g><g transform="translate(-78,-1) scale(1,1)"><path fill="none" stroke="#000000" d="M 566.3373251423759 97.20951775601598 L 576.5 93 L 566.3373251423758 88.79048224398402 L 566.3373251423759 97.20951775601598" stroke-miterlimit="10"/></g><g transform="translate(-78,-1) scale(1,1)"><g><path fill="none" stroke="none"/><text fill="#000000" stroke="none" font-family="Arial" font-size="13px" font-style="normal" font-weight="normal" text-decoration="none" x="539.016357421875" y="82.5">analog signal</text></g></g><g transform="translate(-78,-1) scale(1,1)"><g><path fill="none" stroke="none"/><text fill="#000000" stroke="none" font-family="Arial" font-size="13px" font-style="normal" font-weight="normal" text-decoration="none" x="576.5" y="78"></text></g></g></g></svg>