<svg version="1.1" xmlns="http://www.w3.org/2000/svg" xmlns:xlink="http://www.w3.org/1999/xlink" width="748" height="331" style="background-color: white"><defs/><g><text fill="#eeeeee" stroke="none" font-family="Arial" font-size="24px" font-style="normal" font-weight="normal" text-decoration="none" x="0" y="0">UNREGISTERED</text><text fill="#eeeeee" stroke="none" font-family="Arial" font-size="24px" font-style="normal" font-weight="normal" text-decoration="none" x="0" y="30">UNREGISTERED</text><text fill="#eeeeee" stroke="none" font-family="Arial" font-size="24px" font-style="normal" font-weight="normal" text-decoration="none" x="0" y="60">UNREGISTERED</text><text fill="#eeeeee" stroke="none" font-family="Arial" font-size="24px" font-style="normal" font-weight="normal" text-decoration="none" x="0" y="90">UNREGISTERED</text><text fill="#eeeeee" stroke="none" font-family="Arial" font-size="24px" font-style="normal" font-weight="normal" text-decoration="none" x="0" y="120">UNREGISTERED</text><text fill="#eeeeee" stroke="none" font-family="Arial" font-size="24px" font-style="normal" font-weight="normal" text-decoration="none" x="0" y="150">UNREGISTERED</text><text fill="#eeeeee" stroke="none" font-family="Arial" font-size="24px" font-style="normal" font-weight="normal" text-decoration="none" x="0" y="180">UNREGISTERED</text><text fill="#eeeeee" stroke="none" font-family="Arial" font-size="24px" font-style="normal" font-weight="normal" text-decoration="none" x="0" y="210">UNREGISTERED</text><text fill="#eeeeee" stroke="none" font-family="Arial" font-size="24px" font-style="normal" font-weight="normal" text-decoration="none" x="0" y="240">UNREGISTERED</text><text fill="#eeeeee" stroke="none" font-family="Arial" font-size="24px" font-style="normal" font-weight="normal" text-decoration="none" x="0" y="270">UNREGISTERED</text><text fill="#eeeeee" stroke="none" font-family="Arial" font-size="24px" font-style="normal" font-weight="normal" text-decoration="none" x="0" y="300">UNREGISTERED</text><text fill="#eeeeee" stroke="none" font-family="Arial" font-size="24px" font-style="normal" font-weight="normal" text-decoration="none" x="0" y="330">UNREGISTERED</text><text fill="#eeeeee" stroke="none" font-family="Arial" font-size="24px" font-style="normal" font-weight="normal" text-decoration="none" x="200" y="0">UNREGISTERED</text><text fill="#eeeeee" stroke="none" font-family="Arial" font-size="24px" font-style="normal" font-weight="normal" text-decoration="none" x="200" y="30">UNREGISTERED</text><text fill="#eeeeee" stroke="none" font-family="Arial" font-size="24px" font-style="normal" font-weight="normal" text-decoration="none" x="200" y="60">UNREGISTERED</text><text fill="#eeeeee" stroke="none" font-family="Arial" font-size="24px" font-style="normal" font-weight="normal" text-decoration="none" x="200" y="90">UNREGISTERED</text><text fill="#eeeeee" stroke="none" font-family="Arial" font-size="24px" font-style="normal" font-weight="normal" text-decoration="none" x="200" y="120">UNREGISTERED</text><text fill="#eeeeee" stroke="none" font-family="Arial" font-size="24px" font-style="normal" font-weight="normal" text-decoration="none" x="200" y="150">UNREGISTERED</text><text fill="#eeeeee" stroke="none" font-family="Arial" font-size="24px" font-style="normal" font-weight="normal" text-decoration="none" x="200" y="180">UNREGISTERED</text><text fill="#eeeeee" stroke="none" font-family="Arial" font-size="24px" font-style="normal" font-weight="normal" text-decoration="none" x="200" y="210">UNREGISTERED</text><text fill="#eeeeee" stroke="none" font-family="Arial" font-size="24px" font-style="normal" font-weight="normal" text-decoration="none" x="200" y="240">UNREGISTERED</text><text fill="#eeeeee" stroke="none" font-family="Arial" font-size="24px" font-style="normal" font-weight="normal" text-decoration="none" x="200" y="270">UNREGISTERED</text><text fill="#eeeeee" stroke="none" font-family="Arial" font-size="24px" font-style="normal" font-weight="normal" text-decoration="none" x="200" y="300">UNREGISTERED</text><text fill="#eeeeee" stroke="none" font-family="Arial" font-size="24px" font-style="normal" font-weight="normal" text-decoration="none" x="200" y="330">UNREGISTERED</text><text fill="#eeeeee" stroke="none" font-family="Arial" font-size="24px" font-style="normal" font-weight="normal" text-decoration="none" x="400" y="0">UNREGISTERED</text><text fill="#eeeeee" stroke="none" font-family="Arial" font-size="24px" font-style="normal" font-weight="normal" text-decoration="none" x="400" y="30">UNREGISTERED</text><text fill="#eeeeee" stroke="none" font-family="Arial" font-size="24px" font-style="normal" font-weight="normal" text-decoration="none" x="400" y="60">UNREGISTERED</text><text fill="#eeeeee" stroke="none" font-family="Arial" font-size="24px" font-style="normal" font-weight="normal" text-decoration="none" x="400" y="90">UNREGISTERED</text><text fill="#eeeeee" stroke="none" font-family="Arial" font-size="24px" font-style="normal" font-weight="normal" text-decoration="none" x="400" y="120">UNREGISTERED</text><text fill="#eeeeee" stroke="none" font-family="Arial" font-size="24px" font-style="normal" font-weight="normal" text-decoration="none" x="400" y="150">UNREGISTERED</text><text fill="#eeeeee" stroke="none" font-family="Arial" font-size="24px" font-style="normal" font-weight="normal" text-decoration="none" x="400" y="180">UNREGISTERED</text><text fill="#eeeeee" stroke="none" font-family="Arial" font-size="24px" font-style="normal" font-weight="normal" text-decoration="none" x="400" y="210">UNREGISTERED</text><text fill="#eeeeee" stroke="none" font-family="Arial" font-size="24px" font-style="normal" font-weight="normal" text-decoration="none" x="400" y="240">UNREGISTERED</text><text fill="#eeeeee" stroke="none" font-family="Arial" font-size="24px" font-style="normal" font-weight="normal" text-decoration="none" x="400" y="270">UNREGISTERED</text><text fill="#eeeeee" stroke="none" font-family="Arial" font-size="24px" font-style="normal" font-weight="normal" text-decoration="none" x="400" y="300">UNREGISTERED</text><text fill="#eeeeee" stroke="none" font-family="Arial" font-size="24px" font-style="normal" font-weight="normal" text-decoration="none" x="400" y="330">UNREGISTERED</text><text fill="#eeeeee" stroke="none" font-family="Arial" font-size="24px" font-style="normal" font-weight="normal" text-decoration="none" x="600" y="0">UNREGISTERED</text><text fill="#eeeeee" stroke="none" font-family="Arial" font-size="24px" font-style="normal" font-weight="normal" text-decoration="none" x="600" y="30">UNREGISTERED</text><text fill="#eeeeee" stroke="none" font-family="Arial" font-size="24px" font-style="normal" font-weight="normal" text-decoration="none" x="600" y="60">UNREGISTERED</text><text fill="#eeeeee" stroke="none" font-family="Arial" font-size="24px" font-style="normal" font-weight="normal" text-decoration="none" x="600" y="90">UNREGISTERED</text><text fill="#eeeeee" stroke="none" font-family="Arial" font-size="24px" font-style="normal" font-weight="normal" text-decoration="none" x="600" y="120">UNREGISTERED</text><text fill="#eeeeee" stroke="none" font-family="Arial" font-size="24px" font-style="normal" font-weight="normal" text-decoration="none" x="600" y="150">UNREGISTERED</text><text fill="#eeeeee" stroke="none" font-family="Arial" font-size="24px" font-style="normal" font-weight="normal" text-decoration="none" x="600" y="180">UNREGISTERED</text><text fill="#eeeeee" stroke="none" font-family="Arial" font-size="24px" font-style="normal" font-weight="normal" text-decoration="none" x="600" y="210">UNREGISTERED</text><text fill="#eeeeee" stroke="none" font-family="Arial" font-size="24px" font-style="normal" font-weight="normal" text-decoration="none" x="600" y="240">UNREGISTERED</text><text fill="#eeeeee" stroke="none" font-family="Arial" font-size="24px" font-style="normal" font-weight="normal" text-decoration="none" x="600" y="270">UNREGISTERED</text><text fill="#eeeeee" stroke="none" font-family="Arial" font-size="24px" font-style="normal" font-weight="normal" text-decoration="none" x="600" y="300">UNREGISTERED</text><text fill="#eeeeee" stroke="none" font-family="Arial" font-size="24px" font-style="normal" font-weight="normal" text-decoration="none" x="600" y="330">UNREGISTERED</text><g transform="translate(3,2) scale(1,1)"><path fill="none" stroke="#000000" d="M 7 8 L 735 8 L 735 319 L 7 319 L 7 8" stroke-miterlimit="10"/></g><g transform="translate(3,2) scale(1,1)"><path fill="#ffffff" stroke="none" d="M 7 8 L 7 30 L 106.12255859375 30 L 117.12255859375 19 L 117.12255859375 8 L 7 8"/></g><g transform="translate(3,2) scale(1,1)"><path fill="none" stroke="#000000" d="M 7 8 L 7 30 L 106.12255859375 30 L 117.12255859375 19 L 117.12255859375 8 L 7 8 L 7 8" stroke-miterlimit="10"/></g><g transform="translate(3,2) scale(1,1)"><g><path fill="none" stroke="none"/><text fill="#000000" stroke="none" font-family="Arial" font-size="13px" font-style="normal" font-weight="normal" text-decoration="none" x="31.72998046875" y="23.5">Loop Phase</text></g></g><g transform="translate(3,2) scale(1,1)"><g><path fill="none" stroke="none"/><text fill="#000000" stroke="none" font-family="Arial" font-size="13px" font-style="normal" font-weight="bold" text-decoration="none" x="11.279541015625" y="23.5">sd</text></g></g><g transform="translate(3,2) scale(1,1)"><path fill="#ffffff" stroke="none" d="M 110.4412704190341 47.3 C 110.4412704190341 43.82060576 113.31967214121592 41 116.870361328125 41 C 120.42105051503408 41 123.2994522372159 43.82060576 123.2994522372159 47.3 C 123.2994522372159 50.779394239999995 120.42105051503408 53.6 116.870361328125 53.6 C 113.31967214121592 53.6 110.4412704190341 50.779394239999995 110.4412704190341 47.3 Z"/></g><g transform="translate(3,2) scale(1,1)"><path fill="none" stroke="#000000" d="M 110.4412704190341 47.3 C 110.4412704190341 43.82060576 113.31967214121592 41 116.870361328125 41 C 120.42105051503408 41 123.2994522372159 43.82060576 123.2994522372159 47.3 C 123.2994522372159 50.779394239999995 120.42105051503408 53.6 116.870361328125 53.6 C 113.31967214121592 53.6 110.4412704190341 50.779394239999995 110.4412704190341 47.3 Z" stroke-miterlimit="10"/></g><g transform="translate(3,2) scale(1,1)"><path fill="none" stroke="#000000" d="M 116.870361328125 53.6 L 116.870361328125 66.4" stroke-miterlimit="10"/></g><g transform="translate(3,2) scale(1,1)"><path fill="none" stroke="#000000" d="M 110.06308860085227 58.4 L 123.67763405539773 58.4" stroke-miterlimit="10"/></g><g transform="translate(3,2) scale(1,1)"><path fill="none" stroke="#000000" d="M 116.870361328125 66.4 L 107.41581587357955 79" stroke-miterlimit="10"/></g><g transform="translate(3,2) scale(1,1)"><path fill="none" stroke="#000000" d="M 116.870361328125 66.4 L 126.32490678267045 79" stroke-miterlimit="10"/></g><g transform="translate(3,2) scale(1,1)"><g><path fill="none" stroke="none"/><text fill="#000000" stroke="none" font-family="Arial" font-size="13px" font-style="normal" font-weight="bold" text-decoration="none" x="47.5" y="97.5">aSimRacer: Sim Racer</text></g></g><g transform="translate(3,2) scale(1,1)"><path fill="none" stroke="#000000" d="M 117.5 105 L 117.5 291" stroke-miterlimit="10" stroke-dasharray="3"/></g><g transform="translate(3,2) scale(1,1)"><rect fill="#C0C0C0" stroke="none" x="329" y="47" width="149.76171875" height="39" opacity="0.2"/></g><g transform="translate(3,2) scale(1,1)"><rect fill="#ffffff" stroke="none" x="322" y="40" width="149.76171875" height="39"/></g><g transform="translate(3,2) scale(1,1)"><path fill="none" stroke="#000000" d="M 322 40 L 471.76171875 40 L 471.76171875 79 L 322 79 L 322 40 Z Z" stroke-miterlimit="10"/></g><g transform="translate(3,2) scale(1,1)"><g><path fill="none" stroke="none"/><text fill="#000000" stroke="none" font-family="Arial" font-size="13px" font-style="normal" font-weight="bold" text-decoration="none" x="364.3681640625" y="57.5">aPedalbox</text></g></g><g transform="translate(3,2) scale(1,1)"><path fill="none" stroke="#000000" d="M 397.5 80 L 397.5 291" stroke-miterlimit="10" stroke-dasharray="3"/></g><g transform="translate(3,2) scale(1,1)"><path fill="none" stroke="#000000" d="M 397 94 L 427 94 L 427 114 L 403 114" stroke-miterlimit="10"/></g><g transform="translate(3,2) scale(1,1)"><path fill="#000000" stroke="none" d="M 413.16267485762415 109.79048224398402 L 403 114 L 413.16267485762415 118.20951775601598"/></g><g transform="translate(3,2) scale(1,1)"><path fill="none" stroke="#000000" d="M 413.16267485762415 109.79048224398402 L 403 114 L 413.16267485762415 118.20951775601598 L 413.16267485762415 109.79048224398402" stroke-miterlimit="10"/></g><g transform="translate(3,2) scale(1,1)"><g><path fill="none" stroke="none"/><text fill="#000000" stroke="none" font-family="Arial" font-size="13px" font-style="normal" font-weight="normal" text-decoration="none" x="433.029541015625" y="107.5">1 : Loop</text></g></g><g transform="translate(3,2) scale(1,1)"><rect fill="#ffffff" stroke="none" x="390" y="114" width="13" height="135"/></g><g transform="translate(3,2) scale(1,1)"><path fill="none" stroke="#000000" d="M 390 114 L 403 114 L 403 249 L 390 249 L 390 114 Z Z" stroke-miterlimit="10"/></g></g></svg>