<svg version="1.1" xmlns="http://www.w3.org/2000/svg" xmlns:xlink="http://www.w3.org/1999/xlink" width="1034" height="333" style="background-color: white"><defs/><g><text fill="#eeeeee" stroke="none" font-family="Arial" font-size="24px" font-style="normal" font-weight="normal" text-decoration="none" x="0" y="0">UNREGISTERED</text><text fill="#eeeeee" stroke="none" font-family="Arial" font-size="24px" font-style="normal" font-weight="normal" text-decoration="none" x="0" y="30">UNREGISTERED</text><text fill="#eeeeee" stroke="none" font-family="Arial" font-size="24px" font-style="normal" font-weight="normal" text-decoration="none" x="0" y="60">UNREGISTERED</text><text fill="#eeeeee" stroke="none" font-family="Arial" font-size="24px" font-style="normal" font-weight="normal" text-decoration="none" x="0" y="90">UNREGISTERED</text><text fill="#eeeeee" stroke="none" font-family="Arial" font-size="24px" font-style="normal" font-weight="normal" text-decoration="none" x="0" y="120">UNREGISTERED</text><text fill="#eeeeee" stroke="none" font-family="Arial" font-size="24px" font-style="normal" font-weight="normal" text-decoration="none" x="0" y="150">UNREGISTERED</text><text fill="#eeeeee" stroke="none" font-family="Arial" font-size="24px" font-style="normal" font-weight="normal" text-decoration="none" x="0" y="180">UNREGISTERED</text><text fill="#eeeeee" stroke="none" font-family="Arial" font-size="24px" font-style="normal" font-weight="normal" text-decoration="none" x="0" y="210">UNREGISTERED</text><text fill="#eeeeee" stroke="none" font-family="Arial" font-size="24px" font-style="normal" font-weight="normal" text-decoration="none" x="0" y="240">UNREGISTERED</text><text fill="#eeeeee" stroke="none" font-family="Arial" font-size="24px" font-style="normal" font-weight="normal" text-decoration="none" x="0" y="270">UNREGISTERED</text><text fill="#eeeeee" stroke="none" font-family="Arial" font-size="24px" font-style="normal" font-weight="normal" text-decoration="none" x="0" y="300">UNREGISTERED</text><text fill="#eeeeee" stroke="none" font-family="Arial" font-size="24px" font-style="normal" font-weight="normal" text-decoration="none" x="0" y="330">UNREGISTERED</text><text fill="#eeeeee" stroke="none" font-family="Arial" font-size="24px" font-style="normal" font-weight="normal" text-decoration="none" x="200" y="0">UNREGISTERED</text><text fill="#eeeeee" stroke="none" font-family="Arial" font-size="24px" font-style="normal" font-weight="normal" text-decoration="none" x="200" y="30">UNREGISTERED</text><text fill="#eeeeee" stroke="none" font-family="Arial" font-size="24px" font-style="normal" font-weight="normal" text-decoration="none" x="200" y="60">UNREGISTERED</text><text fill="#eeeeee" stroke="none" font-family="Arial" font-size="24px" font-style="normal" font-weight="normal" text-decoration="none" x="200" y="90">UNREGISTERED</text><text fill="#eeeeee" stroke="none" font-family="Arial" font-size="24px" font-style="normal" font-weight="normal" text-decoration="none" x="200" y="120">UNREGISTERED</text><text fill="#eeeeee" stroke="none" font-family="Arial" font-size="24px" font-style="normal" font-weight="normal" text-decoration="none" x="200" y="150">UNREGISTERED</text><text fill="#eeeeee" stroke="none" font-family="Arial" font-size="24px" font-style="normal" font-weight="normal" text-decoration="none" x="200" y="180">UNREGISTERED</text><text fill="#eeeeee" stroke="none" font-family="Arial" font-size="24px" font-style="normal" font-weight="normal" text-decoration="none" x="200" y="210">UNREGISTERED</text><text fill="#eeeeee" stroke="none" font-family="Arial" font-size="24px" font-style="normal" font-weight="normal" text-decoration="none" x="200" y="240">UNREGISTERED</text><text fill="#eeeeee" stroke="none" font-family="Arial" font-size="24px" font-style="normal" font-weight="normal" text-decoration="none" x="200" y="270">UNREGISTERED</text><text fill="#eeeeee" stroke="none" font-family="Arial" font-size="24px" font-style="normal" font-weight="normal" text-decoration="none" x="200" y="300">UNREGISTERED</text><text fill="#eeeeee" stroke="none" font-family="Arial" font-size="24px" font-style="normal" font-weight="normal" text-decoration="none" x="200" y="330">UNREGISTERED</text><text fill="#eeeeee" stroke="none" font-family="Arial" font-size="24px" font-style="normal" font-weight="normal" text-decoration="none" x="400" y="0">UNREGISTERED</text><text fill="#eeeeee" stroke="none" font-family="Arial" font-size="24px" font-style="normal" font-weight="normal" text-decoration="none" x="400" y="30">UNREGISTERED</text><text fill="#eeeeee" stroke="none" font-family="Arial" font-size="24px" font-style="normal" font-weight="normal" text-decoration="none" x="400" y="60">UNREGISTERED</text><text fill="#eeeeee" stroke="none" font-family="Arial" font-size="24px" font-style="normal" font-weight="normal" text-decoration="none" x="400" y="90">UNREGISTERED</text><text fill="#eeeeee" stroke="none" font-family="Arial" font-size="24px" font-style="normal" font-weight="normal" text-decoration="none" x="400" y="120">UNREGISTERED</text><text fill="#eeeeee" stroke="none" font-family="Arial" font-size="24px" font-style="normal" font-weight="normal" text-decoration="none" x="400" y="150">UNREGISTERED</text><text fill="#eeeeee" stroke="none" font-family="Arial" font-size="24px" font-style="normal" font-weight="normal" text-decoration="none" x="400" y="180">UNREGISTERED</text><text fill="#eeeeee" stroke="none" font-family="Arial" font-size="24px" font-style="normal" font-weight="normal" text-decoration="none" x="400" y="210">UNREGISTERED</text><text fill="#eeeeee" stroke="none" font-family="Arial" font-size="24px" font-style="normal" font-weight="normal" text-decoration="none" x="400" y="240">UNREGISTERED</text><text fill="#eeeeee" stroke="none" font-family="Arial" font-size="24px" font-style="normal" font-weight="normal" text-decoration="none" x="400" y="270">UNREGISTERED</text><text fill="#eeeeee" stroke="none" font-family="Arial" font-size="24px" font-style="normal" font-weight="normal" text-decoration="none" x="400" y="300">UNREGISTERED</text><text fill="#eeeeee" stroke="none" font-family="Arial" font-size="24px" font-style="normal" font-weight="normal" text-decoration="none" x="400" y="330">UNREGISTERED</text><text fill="#eeeeee" stroke="none" font-family="Arial" font-size="24px" font-style="normal" font-weight="normal" text-decoration="none" x="600" y="0">UNREGISTERED</text><text fill="#eeeeee" stroke="none" font-family="Arial" font-size="24px" font-style="normal" font-weight="normal" text-decoration="none" x="600" y="30">UNREGISTERED</text><text fill="#eeeeee" stroke="none" font-family="Arial" font-size="24px" font-style="normal" font-weight="normal" text-decoration="none" x="600" y="60">UNREGISTERED</text><text fill="#eeeeee" stroke="none" font-family="Arial" font-size="24px" font-style="normal" font-weight="normal" text-decoration="none" x="600" y="90">UNREGISTERED</text><text fill="#eeeeee" stroke="none" font-family="Arial" font-size="24px" font-style="normal" font-weight="normal" text-decoration="none" x="600" y="120">UNREGISTERED</text><text fill="#eeeeee" stroke="none" font-family="Arial" font-size="24px" font-style="normal" font-weight="normal" text-decoration="none" x="600" y="150">UNREGISTERED</text><text fill="#eeeeee" stroke="none" font-family="Arial" font-size="24px" font-style="normal" font-weight="normal" text-decoration="none" x="600" y="180">UNREGISTERED</text><text fill="#eeeeee" stroke="none" font-family="Arial" font-size="24px" font-style="normal" font-weight="normal" text-decoration="none" x="600" y="210">UNREGISTERED</text><text fill="#eeeeee" stroke="none" font-family="Arial" font-size="24px" font-style="normal" font-weight="normal" text-decoration="none" x="600" y="240">UNREGISTERED</text><text fill="#eeeeee" stroke="none" font-family="Arial" font-size="24px" font-style="normal" font-weight="normal" text-decoration="none" x="600" y="270">UNREGISTERED</text><text fill="#eeeeee" stroke="none" font-family="Arial" font-size="24px" font-style="normal" font-weight="normal" text-decoration="none" x="600" y="300">UNREGISTERED</text><text fill="#eeeeee" stroke="none" font-family="Arial" font-size="24px" font-style="normal" font-weight="normal" text-decoration="none" x="600" y="330">UNREGISTERED</text><text fill="#eeeeee" stroke="none" font-family="Arial" font-size="24px" font-style="normal" font-weight="normal" text-decoration="none" x="800" y="0">UNREGISTERED</text><text fill="#eeeeee" stroke="none" font-family="Arial" font-size="24px" font-style="normal" font-weight="normal" text-decoration="none" x="800" y="30">UNREGISTERED</text><text fill="#eeeeee" stroke="none" font-family="Arial" font-size="24px" font-style="normal" font-weight="normal" text-decoration="none" x="800" y="60">UNREGISTERED</text><text fill="#eeeeee" stroke="none" font-family="Arial" font-size="24px" font-style="normal" font-weight="normal" text-decoration="none" x="800" y="90">UNREGISTERED</text><text fill="#eeeeee" stroke="none" font-family="Arial" font-size="24px" font-style="normal" font-weight="normal" text-decoration="none" x="800" y="120">UNREGISTERED</text><text fill="#eeeeee" stroke="none" font-family="Arial" font-size="24px" font-style="normal" font-weight="normal" text-decoration="none" x="800" y="150">UNREGISTERED</text><text fill="#eeeeee" stroke="none" font-family="Arial" font-size="24px" font-style="normal" font-weight="normal" text-decoration="none" x="800" y="180">UNREGISTERED</text><text fill="#eeeeee" stroke="none" font-family="Arial" font-size="24px" font-style="normal" font-weight="normal" text-decoration="none" x="800" y="210">UNREGISTERED</text><text fill="#eeeeee" stroke="none" font-family="Arial" font-size="24px" font-style="normal" font-weight="normal" text-decoration="none" x="800" y="240">UNREGISTERED</text><text fill="#eeeeee" stroke="none" font-family="Arial" font-size="24px" font-style="normal" font-weight="normal" text-decoration="none" x="800" y="270">UNREGISTERED</text><text fill="#eeeeee" stroke="none" font-family="Arial" font-size="24px" font-style="normal" font-weight="normal" text-decoration="none" x="800" y="300">UNREGISTERED</text><text fill="#eeeeee" stroke="none" font-family="Arial" font-size="24px" font-style="normal" font-weight="normal" text-decoration="none" x="800" y="330">UNREGISTERED</text><text fill="#eeeeee" stroke="none" font-family="Arial" font-size="24px" font-style="normal" font-weight="normal" text-decoration="none" x="1000" y="0">UNREGISTERED</text><text fill="#eeeeee" stroke="none" font-family="Arial" font-size="24px" font-style="normal" font-weight="normal" text-decoration="none" x="1000" y="30">UNREGISTERED</text><text fill="#eeeeee" stroke="none" font-family="Arial" font-size="24px" font-style="normal" font-weight="normal" text-decoration="none" x="1000" y="60">UNREGISTERED</text><text fill="#eeeeee" stroke="none" font-family="Arial" font-size="24px" font-style="normal" font-weight="normal" text-decoration="none" x="1000" y="90">UNREGISTERED</text><text fill="#eeeeee" stroke="none" font-family="Arial" font-size="24px" font-style="normal" font-weight="normal" text-decoration="none" x="1000" y="120">UNREGISTERED</text><text fill="#eeeeee" stroke="none" font-family="Arial" font-size="24px" font-style="normal" font-weight="normal" text-decoration="none" x="1000" y="150">UNREGISTERED</text><text fill="#eeeeee" stroke="none" font-family="Arial" font-size="24px" font-style="normal" font-weight="normal" text-decoration="none" x="1000" y="180">UNREGISTERED</text><text fill="#eeeeee" stroke="none" font-family="Arial" font-size="24px" font-style="normal" font-weight="normal" text-decoration="none" x="1000" y="210">UNREGISTERED</text><text fill="#eeeeee" stroke="none" font-family="Arial" font-size="24px" font-style="normal" font-weight="normal" text-decoration="none" x="1000" y="240">UNREGISTERED</text><text fill="#eeeeee" stroke="none" font-family="Arial" font-size="24px" font-style="normal" font-weight="normal" text-decoration="none" x="1000" y="270">UNREGISTERED</text><text fill="#eeeeee" stroke="none" font-family="Arial" font-size="24px" font-style="normal" font-weight="normal" text-decoration="none" x="1000" y="300">UNREGISTERED</text><text fill="#eeeeee" stroke="none" font-family="Arial" font-size="24px" font-style="normal" font-weight="normal" text-decoration="none" x="1000" y="330">UNREGISTERED</text><g transform="translate(5,0) scale(1,1)"><path fill="none" stroke="#000000" d="M 5 10 L 1019 10 L 1019 323 L 5 323 L 5 10" stroke-miterlimit="10"/></g><g transform="translate(5,0) scale(1,1)"><path fill="#ffffff" stroke="none" d="M 5 10 L 5 32 L 135.1943359375 32 L 146.1943359375 21 L 146.1943359375 10 L 5 10"/></g><g transform="translate(5,0) scale(1,1)"><path fill="none" stroke="#000000" d="M 5 10 L 5 32 L 135.1943359375 32 L 146.1943359375 21 L 146.1943359375 10 L 5 10 L 5 10" stroke-miterlimit="10"/></g><g transform="translate(5,0) scale(1,1)"><g><path fill="none" stroke="none"/><text fill="#000000" stroke="none" font-family="Arial" font-size="13px" font-style="normal" font-weight="normal" text-decoration="none" x="29.72998046875" y="25.5">Pedal Input Read</text></g></g><g transform="translate(5,0) scale(1,1)"><g><path fill="none" stroke="none"/><text fill="#000000" stroke="none" font-family="Arial" font-size="13px" font-style="normal" font-weight="bold" text-decoration="none" x="9.279541015625" y="25.5">sd</text></g></g><g transform="translate(5,0) scale(1,1)"><rect fill="#C0C0C0" stroke="none" x="519" y="47" width="137.47265625" height="39" opacity="0.2"/></g><g transform="translate(5,0) scale(1,1)"><rect fill="#ffffff" stroke="none" x="512" y="40" width="137.47265625" height="39"/></g><g transform="translate(5,0) scale(1,1)"><path fill="none" stroke="#000000" d="M 512 40 L 649.47265625 40 L 649.47265625 79 L 512 79 L 512 40 Z Z" stroke-miterlimit="10"/></g><g transform="translate(5,0) scale(1,1)"><g><path fill="none" stroke="none"/><text fill="#000000" stroke="none" font-family="Arial" font-size="13px" font-style="normal" font-weight="bold" text-decoration="none" x="580.736328125" y="53"></text></g></g><g transform="translate(5,0) scale(1,1)"><path fill="none" stroke="#000000" d="M 581.5 80 L 581.5 305" stroke-miterlimit="10" stroke-dasharray="3"/></g><g transform="translate(5,0) scale(1,1)"><path fill="#ffffff" stroke="none" d="M 130.20494229403408 47.3 C 130.20494229403408 43.82060576 133.0833440162159 41 136.634033203125 41 C 140.1847223900341 41 143.06312411221592 43.82060576 143.06312411221592 47.3 C 143.06312411221592 50.779394239999995 140.1847223900341 53.6 136.634033203125 53.6 C 133.0833440162159 53.6 130.20494229403408 50.779394239999995 130.20494229403408 47.3 Z"/></g><g transform="translate(5,0) scale(1,1)"><path fill="none" stroke="#000000" d="M 130.20494229403408 47.3 C 130.20494229403408 43.82060576 133.0833440162159 41 136.634033203125 41 C 140.1847223900341 41 143.06312411221592 43.82060576 143.06312411221592 47.3 C 143.06312411221592 50.779394239999995 140.1847223900341 53.6 136.634033203125 53.6 C 133.0833440162159 53.6 130.20494229403408 50.779394239999995 130.20494229403408 47.3 Z" stroke-miterlimit="10"/></g><g transform="translate(5,0) scale(1,1)"><path fill="none" stroke="#000000" d="M 136.634033203125 53.6 L 136.634033203125 66.4" stroke-miterlimit="10"/></g><g transform="translate(5,0) scale(1,1)"><path fill="none" stroke="#000000" d="M 129.82676047585227 58.4 L 143.44130593039773 58.4" stroke-miterlimit="10"/></g><g transform="translate(5,0) scale(1,1)"><path fill="none" stroke="#000000" d="M 136.634033203125 66.4 L 127.17948774857955 79" stroke-miterlimit="10"/></g><g transform="translate(5,0) scale(1,1)"><path fill="none" stroke="#000000" d="M 136.634033203125 66.4 L 146.08857865767047 79" stroke-miterlimit="10"/></g><g transform="translate(5,0) scale(1,1)"><g><path fill="none" stroke="none"/><text fill="#000000" stroke="none" font-family="Arial" font-size="13px" font-style="normal" font-weight="bold" text-decoration="none" x="100.8681640625" y="97.5">: Sim Racer</text></g></g><g transform="translate(5,0) scale(1,1)"><path fill="none" stroke="#000000" d="M 137.5 105 L 137.5 307" stroke-miterlimit="10" stroke-dasharray="3"/></g><g transform="translate(5,0) scale(1,1)"><path fill="#ffffff" stroke="none" d="M 906.65087890625 50 L 935.65087890625 50 L 935.65087890625 79 L 906.65087890625 79"/></g><g transform="translate(5,0) scale(1,1)"><path fill="#ffffff" stroke="none" d="M 906.65087890625 50 L 916.65087890625 40 L 945.65087890625 40 L 935.65087890625 50"/></g><g transform="translate(5,0) scale(1,1)"><path fill="#ffffff" stroke="none" d="M 945.65087890625 40 L 935.65087890625 50 L 935.65087890625 79 L 945.65087890625 69"/></g><g transform="translate(5,0) scale(1,1)"><path fill="none" stroke="#000000" d="M 906.65087890625 50 L 935.65087890625 50 L 935.65087890625 79 L 906.65087890625 79 L 906.65087890625 50" stroke-miterlimit="10"/></g><g transform="translate(5,0) scale(1,1)"><path fill="none" stroke="#000000" d="M 906.65087890625 50 L 916.65087890625 40 L 945.65087890625 40 L 935.65087890625 50 L 906.65087890625 50" stroke-miterlimit="10"/></g><g transform="translate(5,0) scale(1,1)"><path fill="none" stroke="#000000" d="M 945.65087890625 40 L 935.65087890625 50 L 935.65087890625 79 L 945.65087890625 69 L 945.65087890625 40" stroke-miterlimit="10"/></g><g transform="translate(5,0) scale(1,1)"><g><path fill="none" stroke="none"/><text fill="#000000" stroke="none" font-family="Arial" font-size="13px" font-style="normal" font-weight="bold" text-decoration="none" x="881.8681640625" y="97.5">: Simulator PC</text></g></g><g transform="translate(5,0) scale(1,1)"><path fill="none" stroke="#000000" d="M 927.5 105 L 927.5 305" stroke-miterlimit="10" stroke-dasharray="3"/></g><g transform="translate(5,0) scale(1,1)"><rect fill="#C0C0C0" stroke="none" x="354" y="47" width="118.68359375" height="39" opacity="0.2"/></g><g transform="translate(5,0) scale(1,1)"><rect fill="#ffffff" stroke="none" x="347" y="40" width="118.68359375" height="39"/></g><g transform="translate(5,0) scale(1,1)"><path fill="none" stroke="#000000" d="M 347 40 L 465.68359375 40 L 465.68359375 79 L 347 79 L 347 40 Z Z" stroke-miterlimit="10"/></g><g transform="translate(5,0) scale(1,1)"><g><path fill="none" stroke="none"/><text fill="#000000" stroke="none" font-family="Arial" font-size="13px" font-style="normal" font-weight="bold" text-decoration="none" x="406.341796875" y="53"></text></g></g><g transform="translate(5,0) scale(1,1)"><path fill="none" stroke="#000000" d="M 407.5 80 L 407.5 307" stroke-miterlimit="10" stroke-dasharray="3"/></g><g transform="translate(5,0) scale(1,1)"><rect fill="#C0C0C0" stroke="none" x="213" y="47" width="118.708984375" height="39" opacity="0.2"/></g><g transform="translate(5,0) scale(1,1)"><rect fill="#ffffff" stroke="none" x="206" y="40" width="118.708984375" height="39"/></g><g transform="translate(5,0) scale(1,1)"><path fill="none" stroke="#000000" d="M 206 40 L 324.708984375 40 L 324.708984375 79 L 206 79 L 206 40 Z Z" stroke-miterlimit="10"/></g><g transform="translate(5,0) scale(1,1)"><g><path fill="none" stroke="none"/><text fill="#000000" stroke="none" font-family="Arial" font-size="13px" font-style="normal" font-weight="bold" text-decoration="none" x="241.8681640625" y="57.5">: HX711</text></g></g><g transform="translate(5,0) scale(1,1)"><path fill="none" stroke="#000000" d="M 266.5 80 L 266.5 307" stroke-miterlimit="10" stroke-dasharray="3"/></g><g transform="translate(5,0) scale(1,1)"><rect fill="#C0C0C0" stroke="none" x="691" y="47" width="131.708984375" height="39" opacity="0.2"/></g><g transform="translate(5,0) scale(1,1)"><rect fill="#ffffff" stroke="none" x="684" y="40" width="131.708984375" height="39"/></g><g transform="translate(5,0) scale(1,1)"><path fill="none" stroke="#000000" d="M 684 40 L 815.708984375 40 L 815.708984375 79 L 684 79 L 684 40 Z Z" stroke-miterlimit="10"/></g><g transform="translate(5,0) scale(1,1)"><g><path fill="none" stroke="none"/><text fill="#000000" stroke="none" font-family="Arial" font-size="13px" font-style="normal" font-weight="bold" text-decoration="none" x="719.8681640625" y="57.5">: Joystick</text></g></g><g transform="translate(5,0) scale(1,1)"><path fill="none" stroke="#000000" d="M 750.5 80 L 750.5 307" stroke-miterlimit="10" stroke-dasharray="3"/></g><g transform="translate(5,0) scale(1,1)"><path fill="none" stroke="#000000" d="M 581 116 L 413 116" stroke-miterlimit="10"/></g><g transform="translate(5,0) scale(1,1)"><path fill="#000000" stroke="none" d="M 423.16267485762415 111.79048224398402 L 413 116 L 423.16267485762415 120.20951775601598"/></g><g transform="translate(5,0) scale(1,1)"><path fill="none" stroke="#000000" d="M 423.16267485762415 111.79048224398402 L 413 116 L 423.16267485762415 120.20951775601598 L 423.16267485762415 111.79048224398402" stroke-miterlimit="10"/></g><g transform="translate(5,0) scale(1,1)"><g><path fill="none" stroke="none"/><text fill="#000000" stroke="none" font-family="Arial" font-size="13px" font-style="normal" font-weight="normal" text-decoration="none" x="452.864990234375" y="109.5">1 : read cycle</text></g></g><g transform="translate(5,0) scale(1,1)"><rect fill="#ffffff" stroke="none" x="400" y="116" width="13" height="88"/></g><g transform="translate(5,0) scale(1,1)"><path fill="none" stroke="#000000" d="M 400 116 L 413 116 L 413 204 L 400 204 L 400 116 Z Z" stroke-miterlimit="10"/></g><g transform="translate(5,0) scale(1,1)"><path fill="none" stroke="#000000" d="M 400 129 L 272 129" stroke-miterlimit="10"/></g><g transform="translate(5,0) scale(1,1)"><path fill="#000000" stroke="none" d="M 282.16267485762415 124.79048224398402 L 272 129 L 282.16267485762415 133.209517756016"/></g><g transform="translate(5,0) scale(1,1)"><path fill="none" stroke="#000000" d="M 282.16267485762415 124.79048224398402 L 272 129 L 282.16267485762415 133.209517756016 L 282.16267485762415 124.79048224398402" stroke-miterlimit="10"/></g><g transform="translate(5,0) scale(1,1)"><g><path fill="none" stroke="none"/><text fill="#000000" stroke="none" font-family="Arial" font-size="13px" font-style="normal" font-weight="normal" text-decoration="none" x="311.47998046875" y="120.5">2 : read</text></g></g><g transform="translate(5,0) scale(1,1)"><rect fill="#ffffff" stroke="none" x="259" y="129" width="13" height="62"/></g><g transform="translate(5,0) scale(1,1)"><path fill="none" stroke="#000000" d="M 259 129 L 272 129 L 272 191 L 259 191 L 259 129 Z Z" stroke-miterlimit="10"/></g><g transform="translate(5,0) scale(1,1)"><path fill="none" stroke="#000000" d="M 259 133 L 143 133" stroke-miterlimit="10"/></g><g transform="translate(5,0) scale(1,1)"><path fill="#000000" stroke="none" d="M 153.16267485762415 128.790482243984 L 143 133 L 153.16267485762415 137.209517756016"/></g><g transform="translate(5,0) scale(1,1)"><path fill="none" stroke="#000000" d="M 153.16267485762415 128.790482243984 L 143 133 L 153.16267485762415 137.209517756016 L 153.16267485762415 128.790482243984" stroke-miterlimit="10"/></g><g transform="translate(5,0) scale(1,1)"><g><path fill="none" stroke="none"/><text fill="#000000" stroke="none" font-family="Arial" font-size="13px" font-style="normal" font-weight="normal" text-decoration="none" x="160.2236328125" y="125.5">3 : read force</text></g></g><g transform="translate(5,0) scale(1,1)"><rect fill="#ffffff" stroke="none" x="130" y="133" width="13" height="37"/></g><g transform="translate(5,0) scale(1,1)"><path fill="none" stroke="#000000" d="M 130 133 L 143 133 L 143 170 L 130 170 L 130 133 Z Z" stroke-miterlimit="10"/></g><g transform="translate(5,0) scale(1,1)"><path fill="none" stroke="#000000" d="M 143 168 L 259 168" stroke-miterlimit="10" stroke-dasharray="3"/></g><g transform="translate(5,0) scale(1,1)"><path fill="none" stroke="#000000" d="M 248.83732514237585 172.209517756016 L 259 168 L 248.83732514237585 163.790482243984" stroke-miterlimit="10"/></g><g transform="translate(5,0) scale(1,1)"><g><path fill="none" stroke="none"/><text fill="#000000" stroke="none" font-family="Arial" font-size="13px" font-style="normal" font-weight="normal" text-decoration="none" x="159.5" y="162.5">4 : pedal force</text></g></g><g transform="translate(5,0) scale(1,1)"><path fill="none" stroke="#000000" d="M 272 190 L 400 190" stroke-miterlimit="10" stroke-dasharray="3"/></g><g transform="translate(5,0) scale(1,1)"><path fill="none" stroke="#000000" d="M 389.83732514237585 194.209517756016 L 400 190 L 389.83732514237585 185.790482243984" stroke-miterlimit="10"/></g><g transform="translate(5,0) scale(1,1)"><g><path fill="none" stroke="none"/><text fill="#000000" stroke="none" font-family="Arial" font-size="13px" font-style="normal" font-weight="normal" text-decoration="none" x="296.5" y="184.5">5 : read value</text></g></g><g transform="translate(5,0) scale(1,1)"><path fill="none" stroke="#000000" d="M 413 203 L 581 203" stroke-miterlimit="10" stroke-dasharray="3"/></g><g transform="translate(5,0) scale(1,1)"><path fill="none" stroke="#000000" d="M 570.8373251423759 207.209517756016 L 581 203 L 570.8373251423758 198.790482243984" stroke-miterlimit="10"/></g><g transform="translate(5,0) scale(1,1)"><g><path fill="none" stroke="none"/><text fill="#000000" stroke="none" font-family="Arial" font-size="13px" font-style="normal" font-weight="normal" text-decoration="none" x="466.5" y="197.5">6 : read ok</text></g></g><g transform="translate(5,0) scale(1,1)"><path fill="none" stroke="#000000" d="M 581 212 L 743 212" stroke-miterlimit="10"/></g><g transform="translate(5,0) scale(1,1)"><path fill="#000000" stroke="none" d="M 732.8373251423759 216.209517756016 L 743 212 L 732.8373251423758 207.790482243984"/></g><g transform="translate(5,0) scale(1,1)"><path fill="none" stroke="#000000" d="M 732.8373251423759 216.209517756016 L 743 212 L 732.8373251423758 207.790482243984 L 732.8373251423759 216.209517756016" stroke-miterlimit="10"/></g><g transform="translate(5,0) scale(1,1)"><g><path fill="none" stroke="none"/><text fill="#000000" stroke="none" font-family="Arial" font-size="13px" font-style="normal" font-weight="normal" text-decoration="none" x="599.5" y="206.5">7 : send signal values</text></g></g><g transform="translate(5,0) scale(1,1)"><rect fill="#ffffff" stroke="none" x="743" y="212" width="13" height="59"/></g><g transform="translate(5,0) scale(1,1)"><path fill="none" stroke="#000000" d="M 743 212 L 756 212 L 756 271 L 743 271 L 743 212 Z Z" stroke-miterlimit="10"/></g><g transform="translate(5,0) scale(1,1)"><path fill="none" stroke="#000000" d="M 756 218 L 920 218" stroke-miterlimit="10"/></g><g transform="translate(5,0) scale(1,1)"><path fill="#000000" stroke="none" d="M 909.8373251423759 222.209517756016 L 920 218 L 909.8373251423758 213.790482243984"/></g><g transform="translate(5,0) scale(1,1)"><path fill="none" stroke="#000000" d="M 909.8373251423759 222.209517756016 L 920 218 L 909.8373251423758 213.790482243984 L 909.8373251423759 222.209517756016" stroke-miterlimit="10"/></g><g transform="translate(5,0) scale(1,1)"><g><path fill="none" stroke="none"/><text fill="#000000" stroke="none" font-family="Arial" font-size="13px" font-style="normal" font-weight="normal" text-decoration="none" x="774.5" y="212.5">8 : send signal valiues</text></g></g><g transform="translate(5,0) scale(1,1)"><rect fill="#ffffff" stroke="none" x="920" y="218" width="13" height="36"/></g><g transform="translate(5,0) scale(1,1)"><path fill="none" stroke="#000000" d="M 920 218 L 933 218 L 933 254 L 920 254 L 920 218 Z Z" stroke-miterlimit="10"/></g><g transform="translate(5,0) scale(1,1)"><path fill="none" stroke="#000000" d="M 920 250 L 756 250" stroke-miterlimit="10" stroke-dasharray="3"/></g><g transform="translate(5,0) scale(1,1)"><path fill="none" stroke="#000000" d="M 766.1626748576241 245.790482243984 L 756 250 L 766.1626748576241 254.209517756016" stroke-miterlimit="10"/></g><g transform="translate(5,0) scale(1,1)"><g><path fill="none" stroke="none"/><text fill="#000000" stroke="none" font-family="Arial" font-size="13px" font-style="normal" font-weight="normal" text-decoration="none" x="821.114990234375" y="264.5">9 : ok</text></g></g><g transform="translate(5,0) scale(1,1)"><path fill="none" stroke="#000000" d="M 750 271 L 581 271" stroke-miterlimit="10" stroke-dasharray="3"/></g><g transform="translate(5,0) scale(1,1)"><path fill="none" stroke="#000000" d="M 591.1626748576241 266.790482243984 L 581 271 L 591.1626748576241 275.209517756016" stroke-miterlimit="10"/></g><g transform="translate(5,0) scale(1,1)"><g><path fill="none" stroke="none"/><text fill="#000000" stroke="none" font-family="Arial" font-size="13px" font-style="normal" font-weight="normal" text-decoration="none" x="646.5" y="265.5">10 : ok</text></g></g></g></svg>