<svg version="1.1" xmlns="http://www.w3.org/2000/svg" xmlns:xlink="http://www.w3.org/1999/xlink" width="479" height="468" style="background-color: white"><defs/><g><text fill="#eeeeee" stroke="none" font-family="Arial" font-size="24px" font-style="normal" font-weight="normal" text-decoration="none" x="0" y="0">UNREGISTERED</text><text fill="#eeeeee" stroke="none" font-family="Arial" font-size="24px" font-style="normal" font-weight="normal" text-decoration="none" x="0" y="30">UNREGISTERED</text><text fill="#eeeeee" stroke="none" font-family="Arial" font-size="24px" font-style="normal" font-weight="normal" text-decoration="none" x="0" y="60">UNREGISTERED</text><text fill="#eeeeee" stroke="none" font-family="Arial" font-size="24px" font-style="normal" font-weight="normal" text-decoration="none" x="0" y="90">UNREGISTERED</text><text fill="#eeeeee" stroke="none" font-family="Arial" font-size="24px" font-style="normal" font-weight="normal" text-decoration="none" x="0" y="120">UNREGISTERED</text><text fill="#eeeeee" stroke="none" font-family="Arial" font-size="24px" font-style="normal" font-weight="normal" text-decoration="none" x="0" y="150">UNREGISTERED</text><text fill="#eeeeee" stroke="none" font-family="Arial" font-size="24px" font-style="normal" font-weight="normal" text-decoration="none" x="0" y="180">UNREGISTERED</text><text fill="#eeeeee" stroke="none" font-family="Arial" font-size="24px" font-style="normal" font-weight="normal" text-decoration="none" x="0" y="210">UNREGISTERED</text><text fill="#eeeeee" stroke="none" font-family="Arial" font-size="24px" font-style="normal" font-weight="normal" text-decoration="none" x="0" y="240">UNREGISTERED</text><text fill="#eeeeee" stroke="none" font-family="Arial" font-size="24px" font-style="normal" font-weight="normal" text-decoration="none" x="0" y="270">UNREGISTERED</text><text fill="#eeeeee" stroke="none" font-family="Arial" font-size="24px" font-style="normal" font-weight="normal" text-decoration="none" x="0" y="300">UNREGISTERED</text><text fill="#eeeeee" stroke="none" font-family="Arial" font-size="24px" font-style="normal" font-weight="normal" text-decoration="none" x="0" y="330">UNREGISTERED</text><text fill="#eeeeee" stroke="none" font-family="Arial" font-size="24px" font-style="normal" font-weight="normal" text-decoration="none" x="0" y="360">UNREGISTERED</text><text fill="#eeeeee" stroke="none" font-family="Arial" font-size="24px" font-style="normal" font-weight="normal" text-decoration="none" x="0" y="390">UNREGISTERED</text><text fill="#eeeeee" stroke="none" font-family="Arial" font-size="24px" font-style="normal" font-weight="normal" text-decoration="none" x="0" y="420">UNREGISTERED</text><text fill="#eeeeee" stroke="none" font-family="Arial" font-size="24px" font-style="normal" font-weight="normal" text-decoration="none" x="0" y="450">UNREGISTERED</text><text fill="#eeeeee" stroke="none" font-family="Arial" font-size="24px" font-style="normal" font-weight="normal" text-decoration="none" x="200" y="0">UNREGISTERED</text><text fill="#eeeeee" stroke="none" font-family="Arial" font-size="24px" font-style="normal" font-weight="normal" text-decoration="none" x="200" y="30">UNREGISTERED</text><text fill="#eeeeee" stroke="none" font-family="Arial" font-size="24px" font-style="normal" font-weight="normal" text-decoration="none" x="200" y="60">UNREGISTERED</text><text fill="#eeeeee" stroke="none" font-family="Arial" font-size="24px" font-style="normal" font-weight="normal" text-decoration="none" x="200" y="90">UNREGISTERED</text><text fill="#eeeeee" stroke="none" font-family="Arial" font-size="24px" font-style="normal" font-weight="normal" text-decoration="none" x="200" y="120">UNREGISTERED</text><text fill="#eeeeee" stroke="none" font-family="Arial" font-size="24px" font-style="normal" font-weight="normal" text-decoration="none" x="200" y="150">UNREGISTERED</text><text fill="#eeeeee" stroke="none" font-family="Arial" font-size="24px" font-style="normal" font-weight="normal" text-decoration="none" x="200" y="180">UNREGISTERED</text><text fill="#eeeeee" stroke="none" font-family="Arial" font-size="24px" font-style="normal" font-weight="normal" text-decoration="none" x="200" y="210">UNREGISTERED</text><text fill="#eeeeee" stroke="none" font-family="Arial" font-size="24px" font-style="normal" font-weight="normal" text-decoration="none" x="200" y="240">UNREGISTERED</text><text fill="#eeeeee" stroke="none" font-family="Arial" font-size="24px" font-style="normal" font-weight="normal" text-decoration="none" x="200" y="270">UNREGISTERED</text><text fill="#eeeeee" stroke="none" font-family="Arial" font-size="24px" font-style="normal" font-weight="normal" text-decoration="none" x="200" y="300">UNREGISTERED</text><text fill="#eeeeee" stroke="none" font-family="Arial" font-size="24px" font-style="normal" font-weight="normal" text-decoration="none" x="200" y="330">UNREGISTERED</text><text fill="#eeeeee" stroke="none" font-family="Arial" font-size="24px" font-style="normal" font-weight="normal" text-decoration="none" x="200" y="360">UNREGISTERED</text><text fill="#eeeeee" stroke="none" font-family="Arial" font-size="24px" font-style="normal" font-weight="normal" text-decoration="none" x="200" y="390">UNREGISTERED</text><text fill="#eeeeee" stroke="none" font-family="Arial" font-size="24px" font-style="normal" font-weight="normal" text-decoration="none" x="200" y="420">UNREGISTERED</text><text fill="#eeeeee" stroke="none" font-family="Arial" font-size="24px" font-style="normal" font-weight="normal" text-decoration="none" x="200" y="450">UNREGISTERED</text><text fill="#eeeeee" stroke="none" font-family="Arial" font-size="24px" font-style="normal" font-weight="normal" text-decoration="none" x="400" y="0">UNREGISTERED</text><text fill="#eeeeee" stroke="none" font-family="Arial" font-size="24px" font-style="normal" font-weight="normal" text-decoration="none" x="400" y="30">UNREGISTERED</text><text fill="#eeeeee" stroke="none" font-family="Arial" font-size="24px" font-style="normal" font-weight="normal" text-decoration="none" x="400" y="60">UNREGISTERED</text><text fill="#eeeeee" stroke="none" font-family="Arial" font-size="24px" font-style="normal" font-weight="normal" text-decoration="none" x="400" y="90">UNREGISTERED</text><text fill="#eeeeee" stroke="none" font-family="Arial" font-size="24px" font-style="normal" font-weight="normal" text-decoration="none" x="400" y="120">UNREGISTERED</text><text fill="#eeeeee" stroke="none" font-family="Arial" font-size="24px" font-style="normal" font-weight="normal" text-decoration="none" x="400" y="150">UNREGISTERED</text><text fill="#eeeeee" stroke="none" font-family="Arial" font-size="24px" font-style="normal" font-weight="normal" text-decoration="none" x="400" y="180">UNREGISTERED</text><text fill="#eeeeee" stroke="none" font-family="Arial" font-size="24px" font-style="normal" font-weight="normal" text-decoration="none" x="400" y="210">UNREGISTERED</text><text fill="#eeeeee" stroke="none" font-family="Arial" font-size="24px" font-style="normal" font-weight="normal" text-decoration="none" x="400" y="240">UNREGISTERED</text><text fill="#eeeeee" stroke="none" font-family="Arial" font-size="24px" font-style="normal" font-weight="normal" text-decoration="none" x="400" y="270">UNREGISTERED</text><text fill="#eeeeee" stroke="none" font-family="Arial" font-size="24px" font-style="normal" font-weight="normal" text-decoration="none" x="400" y="300">UNREGISTERED</text><text fill="#eeeeee" stroke="none" font-family="Arial" font-size="24px" font-style="normal" font-weight="normal" text-decoration="none" x="400" y="330">UNREGISTERED</text><text fill="#eeeeee" stroke="none" font-family="Arial" font-size="24px" font-style="normal" font-weight="normal" text-decoration="none" x="400" y="360">UNREGISTERED</text><text fill="#eeeeee" stroke="none" font-family="Arial" font-size="24px" font-style="normal" font-weight="normal" text-decoration="none" x="400" y="390">UNREGISTERED</text><text fill="#eeeeee" stroke="none" font-family="Arial" font-size="24px" font-style="normal" font-weight="normal" text-decoration="none" x="400" y="420">UNREGISTERED</text><text fill="#eeeeee" stroke="none" font-family="Arial" font-size="24px" font-style="normal" font-weight="normal" text-decoration="none" x="400" y="450">UNREGISTERED</text><g transform="translate(-137,-70) scale(1,1)"><path fill="none" stroke="#000000" d="M 147 80 L 606 80 L 606 528 L 147 528 L 147 80" stroke-miterlimit="10"/></g><g transform="translate(-137,-70) scale(1,1)"><path fill="#ffffff" stroke="none" d="M 147 80 L 147 102 L 319.08251953125 102 L 330.08251953125 91 L 330.08251953125 80 L 147 80"/></g><g transform="translate(-137,-70) scale(1,1)"><path fill="none" stroke="#000000" d="M 147 80 L 147 102 L 319.08251953125 102 L 330.08251953125 91 L 330.08251953125 80 L 147 80 L 147 80" stroke-miterlimit="10"/></g><g transform="translate(-137,-70) scale(1,1)"><g><path fill="none" stroke="none"/><text fill="#000000" stroke="none" font-family="Arial" font-size="13px" font-style="normal" font-weight="normal" text-decoration="none" x="178.94091796875" y="95.5">PedalBoxStateMachine</text></g></g><g transform="translate(-137,-70) scale(1,1)"><g><path fill="none" stroke="none"/><text fill="#000000" stroke="none" font-family="Arial" font-size="13px" font-style="normal" font-weight="bold" text-decoration="none" x="150.911376953125" y="95.5">stm</text></g></g><g transform="translate(-137,-70) scale(1,1)"><path fill="#C0C0C0" stroke="none" d="M 409 141.5 C 409 136.2532944 413.2532944 132 418.5 132 C 423.7467056 132 428 136.2532944 428 141.5 C 428 146.7467056 423.7467056 151 418.5 151 C 413.2532944 151 409 146.7467056 409 141.5 Z" opacity="0.2"/></g><g transform="translate(-137,-70) scale(1,1)"><path fill="#000000" stroke="none" d="M 402 134.5 C 402 129.2532944 406.2532944 125 411.5 125 C 416.7467056 125 421 129.2532944 421 134.5 C 421 139.7467056 416.7467056 144 411.5 144 C 406.2532944 144 402 139.7467056 402 134.5 Z"/></g><g transform="translate(-137,-70) scale(1,1)"><path fill="#C0C0C0" stroke="none" d="M 386 246 L 450.11181640625 246 Q 460.11181640625 246 460.11181640625 256 L 460.11181640625 275 Q 460.11181640625 285 450.11181640625 285 L 386 285 Q 376 285 376 275 L 376 256 Q 376 246 386 246 Z" opacity="0.2"/></g><g transform="translate(-137,-70) scale(1,1)"><path fill="#ffffff" stroke="none" d="M 379 239 L 443.11181640625 239 Q 453.11181640625 239 453.11181640625 249 L 453.11181640625 268 Q 453.11181640625 278 443.11181640625 278 L 379 278 Q 369 278 369 268 L 369 249 Q 369 239 379 239 Z"/></g><g transform="translate(-137,-70) scale(1,1)"><path fill="none" stroke="#000000" d="M 379 239 L 443.11181640625 239 Q 453.11181640625 239 453.11181640625 249 L 453.11181640625 268 Q 453.11181640625 278 443.11181640625 278 L 379 278 Q 369 278 369 268 L 369 249 Q 369 239 379 239 Z" stroke-miterlimit="10"/></g><g transform="translate(-137,-70) scale(1,1)"><g><path fill="none" stroke="none"/><text fill="#000000" stroke="none" font-family="Arial" font-size="13px" font-style="normal" font-weight="bold" text-decoration="none" x="373.5" y="256.5">Initialization</text></g></g><g transform="translate(-137,-70) scale(1,1)"><path fill="#C0C0C0" stroke="none" d="M 399 356 L 438 356 Q 448 356 448 366 L 448 385 Q 448 395 438 395 L 399 395 Q 389 395 389 385 L 389 366 Q 389 356 399 356 Z" opacity="0.2"/></g><g transform="translate(-137,-70) scale(1,1)"><path fill="#ffffff" stroke="none" d="M 392 349 L 431 349 Q 441 349 441 359 L 441 378 Q 441 388 431 388 L 392 388 Q 382 388 382 378 L 382 359 Q 382 349 392 349 Z"/></g><g transform="translate(-137,-70) scale(1,1)"><path fill="none" stroke="#000000" d="M 392 349 L 431 349 Q 441 349 441 359 L 441 378 Q 441 388 431 388 L 392 388 Q 382 388 382 378 L 382 359 Q 382 349 392 349 Z" stroke-miterlimit="10"/></g><g transform="translate(-137,-70) scale(1,1)"><g><path fill="none" stroke="none"/><text fill="#000000" stroke="none" font-family="Arial" font-size="13px" font-style="normal" font-weight="bold" text-decoration="none" x="398.864990234375" y="366.5">Run</text></g></g><g transform="translate(-137,-70) scale(1,1)"><path fill="#C0C0C0" stroke="none" d="M 220 295 L 259 295 Q 269 295 269 305 L 269 324 Q 269 334 259 334 L 220 334 Q 210 334 210 324 L 210 305 Q 210 295 220 295 Z" opacity="0.2"/></g><g transform="translate(-137,-70) scale(1,1)"><path fill="#ffffff" stroke="none" d="M 213 288 L 252 288 Q 262 288 262 298 L 262 317 Q 262 327 252 327 L 213 327 Q 203 327 203 317 L 203 298 Q 203 288 213 288 Z"/></g><g transform="translate(-137,-70) scale(1,1)"><path fill="none" stroke="#000000" d="M 213 288 L 252 288 Q 262 288 262 298 L 262 317 Q 262 327 252 327 L 213 327 Q 203 327 203 317 L 203 298 Q 203 288 213 288 Z" stroke-miterlimit="10"/></g><g transform="translate(-137,-70) scale(1,1)"><g><path fill="none" stroke="none"/><text fill="#000000" stroke="none" font-family="Arial" font-size="13px" font-style="normal" font-weight="bold" text-decoration="none" x="216.60546875" y="305.5">Error</text></g></g><g transform="translate(-137,-70) scale(1,1)"><path fill="#C0C0C0" stroke="none" d="M 406 475.5 C 406 468.59644 411.59644 463 418.5 463 C 425.40356 463 431 468.59644 431 475.5 C 431 482.40356 425.40356 488 418.5 488 C 411.59644 488 406 482.40356 406 475.5 Z" opacity="0.2"/></g><g transform="translate(-137,-70) scale(1,1)"><path fill="none" stroke="#000000" d="M 399 468.5 C 399 461.59644 404.59644 456 411.5 456 C 418.40356 456 424 461.59644 424 468.5 C 424 475.40356 418.40356 481 411.5 481 C 404.59644 481 399 475.40356 399 468.5 Z" stroke-miterlimit="10"/></g><g transform="translate(-137,-70) scale(1,1)"><path fill="#000000" stroke="none" d="M 404 468.5 C 404 464.357864 407.357864 461 411.5 461 C 415.642136 461 419 464.357864 419 468.5 C 419 472.642136 415.642136 476 411.5 476 C 407.357864 476 404 472.642136 404 468.5 Z"/></g><g transform="translate(-137,-70) scale(1,1)"><path fill="none" stroke="#000000" d="M 411 145 L 411 238" stroke-miterlimit="10"/></g><g transform="translate(-137,-70) scale(1,1)"><path fill="none" stroke="#000000" d="M 406.790482243984 227.83732514237585 L 411 238 L 415.209517756016 227.83732514237585" stroke-miterlimit="10"/></g><g transform="translate(-137,-70) scale(1,1)"><path fill="none" stroke="#000000" d="M 411 279 L 411 348" stroke-miterlimit="10"/></g><g transform="translate(-137,-70) scale(1,1)"><path fill="none" stroke="#000000" d="M 406.790482243984 337.83732514237585 L 411 348 L 415.209517756016 337.83732514237585" stroke-miterlimit="10"/></g><g transform="translate(-137,-70) scale(1,1)"><path fill="none" stroke="#000000" d="M 411 389 L 411 455" stroke-miterlimit="10"/></g><g transform="translate(-137,-70) scale(1,1)"><path fill="none" stroke="#000000" d="M 406.790482243984 444.83732514237585 L 411 455 L 415.209517756016 444.83732514237585" stroke-miterlimit="10"/></g><g transform="translate(-137,-70) scale(1,1)"><path fill="none" stroke="#000000" d="M 381 358 L 263 318" stroke-miterlimit="10"/></g><g transform="translate(-137,-70) scale(1,1)"><path fill="none" stroke="#000000" d="M 273.97614315566545 317.2759271954154 L 263 318 L 271.2733020468399 325.2493084664508" stroke-miterlimit="10"/></g><g transform="translate(-137,-70) scale(1,1)"><path fill="none" stroke="#000000" d="M 368 276 Q 314 299 263 304" stroke-miterlimit="10"/></g><g transform="translate(-137,-70) scale(1,1)"><path fill="none" stroke="#000000" d="M 272.70345526788736 298.8189811943877 L 263 304 L 273.524912551767 307.19784548995995" stroke-miterlimit="10"/></g><g transform="translate(-137,-70) scale(1,1)"><path fill="none" stroke="#000000" d="M 253 287 Q 287 255 368 257" stroke-miterlimit="10"/></g><g transform="translate(-137,-70) scale(1,1)"><path fill="none" stroke="#000000" d="M 357.7365145901222 260.957381361611 L 368 257 L 357.94432867152983 252.54091106460262" stroke-miterlimit="10"/></g></g></svg>