<svg version="1.1" xmlns="http://www.w3.org/2000/svg" xmlns:xlink="http://www.w3.org/1999/xlink" width="508" height="62" style="background-color: white"><defs/><g><text fill="#eeeeee" stroke="none" font-family="Arial" font-size="24px" font-style="normal" font-weight="normal" text-decoration="none" x="0" y="0">UNREGISTERED</text><text fill="#eeeeee" stroke="none" font-family="Arial" font-size="24px" font-style="normal" font-weight="normal" text-decoration="none" x="0" y="30">UNREGISTERED</text><text fill="#eeeeee" stroke="none" font-family="Arial" font-size="24px" font-style="normal" font-weight="normal" text-decoration="none" x="0" y="60">UNREGISTERED</text><text fill="#eeeeee" stroke="none" font-family="Arial" font-size="24px" font-style="normal" font-weight="normal" text-decoration="none" x="200" y="0">UNREGISTERED</text><text fill="#eeeeee" stroke="none" font-family="Arial" font-size="24px" font-style="normal" font-weight="normal" text-decoration="none" x="200" y="30">UNREGISTERED</text><text fill="#eeeeee" stroke="none" font-family="Arial" font-size="24px" font-style="normal" font-weight="normal" text-decoration="none" x="200" y="60">UNREGISTERED</text><text fill="#eeeeee" stroke="none" font-family="Arial" font-size="24px" font-style="normal" font-weight="normal" text-decoration="none" x="400" y="0">UNREGISTERED</text><text fill="#eeeeee" stroke="none" font-family="Arial" font-size="24px" font-style="normal" font-weight="normal" text-decoration="none" x="400" y="30">UNREGISTERED</text><text fill="#eeeeee" stroke="none" font-family="Arial" font-size="24px" font-style="normal" font-weight="normal" text-decoration="none" x="400" y="60">UNREGISTERED</text><g transform="translate(-170,-285) scale(1,1)"><path fill="#C0C0C0" stroke="none" d="M 187 324.5 C 187 319.2532944 191.2532944 315 196.5 315 C 201.7467056 315 206 319.2532944 206 324.5 C 206 329.7467056 201.7467056 334 196.5 334 C 191.2532944 334 187 329.7467056 187 324.5 Z" opacity="0.2"/></g><g transform="translate(-170,-285) scale(1,1)"><path fill="#000000" stroke="none" d="M 180 317.5 C 180 312.2532944 184.2532944 308 189.5 308 C 194.7467056 308 199 312.2532944 199 317.5 C 199 322.7467056 194.7467056 327 189.5 327 C 184.2532944 327 180 322.7467056 180 317.5 Z"/></g><g transform="translate(-170,-285) scale(1,1)"><path fill="#C0C0C0" stroke="none" d="M 300 305 L 339 305 Q 349 305 349 315 L 349 334 Q 349 344 339 344 L 300 344 Q 290 344 290 334 L 290 315 Q 290 305 300 305 Z" opacity="0.2"/></g><g transform="translate(-170,-285) scale(1,1)"><path fill="#ffffff" stroke="none" d="M 293 298 L 332 298 Q 342 298 342 308 L 342 327 Q 342 337 332 337 L 293 337 Q 283 337 283 327 L 283 308 Q 283 298 293 298 Z"/></g><g transform="translate(-170,-285) scale(1,1)"><path fill="none" stroke="#000000" d="M 293 298 L 332 298 Q 342 298 342 308 L 342 327 Q 342 337 332 337 L 293 337 Q 283 337 283 327 L 283 308 Q 283 298 293 298 Z" stroke-miterlimit="10"/></g><g transform="translate(-170,-285) scale(1,1)"><g><path fill="none" stroke="none"/><text fill="#000000" stroke="none" font-family="Arial" font-size="13px" font-style="normal" font-weight="bold" text-decoration="none" x="294.444091796875" y="315.5">Setup</text></g></g><g transform="translate(-170,-285) scale(1,1)"><path fill="none" stroke="#000000" d="M 200 317 L 282 317" stroke-miterlimit="10"/></g><g transform="translate(-170,-285) scale(1,1)"><path fill="none" stroke="#000000" d="M 271.83732514237585 321.209517756016 L 282 317 L 271.83732514237585 312.790482243984" stroke-miterlimit="10"/></g><g transform="translate(-170,-285) scale(1,1)"><g><path fill="none" stroke="none"/><text fill="#000000" stroke="none" font-family="Arial" font-size="13px" font-style="normal" font-weight="normal" text-decoration="none" x="214.5" y="306">power on</text></g></g><g transform="translate(-170,-285) scale(1,1)"><path fill="#C0C0C0" stroke="none" d="M 497 305 L 537.28271484375 305 Q 547.28271484375 305 547.28271484375 315 L 547.28271484375 334 Q 547.28271484375 344 537.28271484375 344 L 497 344 Q 487 344 487 334 L 487 315 Q 487 305 497 305 Z" opacity="0.2"/></g><g transform="translate(-170,-285) scale(1,1)"><path fill="#ffffff" stroke="none" d="M 490 298 L 530.28271484375 298 Q 540.28271484375 298 540.28271484375 308 L 540.28271484375 327 Q 540.28271484375 337 530.28271484375 337 L 490 337 Q 480 337 480 327 L 480 308 Q 480 298 490 298 Z"/></g><g transform="translate(-170,-285) scale(1,1)"><path fill="none" stroke="#000000" d="M 490 298 L 530.28271484375 298 Q 540.28271484375 298 540.28271484375 308 L 540.28271484375 327 Q 540.28271484375 337 530.28271484375 337 L 490 337 Q 480 337 480 327 L 480 308 Q 480 298 490 298 Z" stroke-miterlimit="10"/></g><g transform="translate(-170,-285) scale(1,1)"><g><path fill="none" stroke="none"/><text fill="#000000" stroke="none" font-family="Arial" font-size="13px" font-style="normal" font-weight="bold" text-decoration="none" x="494.259521484375" y="315.5">Loop</text></g></g><g transform="translate(-170,-285) scale(1,1)"><path fill="none" stroke="#000000" d="M 342 317 L 480 317" stroke-miterlimit="10"/></g><g transform="translate(-170,-285) scale(1,1)"><path fill="none" stroke="#000000" d="M 469.83732514237585 321.209517756016 L 480 317 L 469.83732514237585 312.790482243984" stroke-miterlimit="10"/></g><g transform="translate(-170,-285) scale(1,1)"><g><path fill="none" stroke="none"/><text fill="#000000" stroke="none" font-family="Arial" font-size="13px" font-style="normal" font-weight="normal" text-decoration="none" x="365.5" y="311.5"> [setup finished]</text></g></g><g transform="translate(-170,-285) scale(1,1)"><path fill="#C0C0C0" stroke="none" d="M 650 323.5 C 650 316.59644 655.59644 311 662.5 311 C 669.40356 311 675 316.59644 675 323.5 C 675 330.40356 669.40356 336 662.5 336 C 655.59644 336 650 330.40356 650 323.5 Z" opacity="0.2"/></g><g transform="translate(-170,-285) scale(1,1)"><path fill="none" stroke="#000000" d="M 643 316.5 C 643 309.59644 648.59644 304 655.5 304 C 662.40356 304 668 309.59644 668 316.5 C 668 323.40356 662.40356 329 655.5 329 C 648.59644 329 643 323.40356 643 316.5 Z" stroke-miterlimit="10"/></g><g transform="translate(-170,-285) scale(1,1)"><path fill="#000000" stroke="none" d="M 648 316.5 C 648 312.357864 651.357864 309 655.5 309 C 659.642136 309 663 312.357864 663 316.5 C 663 320.642136 659.642136 324 655.5 324 C 651.357864 324 648 320.642136 648 316.5 Z"/></g><g transform="translate(-170,-285) scale(1,1)"><path fill="none" stroke="#000000" d="M 541 317 L 642 316" stroke-miterlimit="10"/></g><g transform="translate(-170,-285) scale(1,1)"><path fill="none" stroke="#000000" d="M 631.8794995781724 320.3099270541145 L 642 316 L 631.7961468763407 311.89130416910814" stroke-miterlimit="10"/></g><g transform="translate(-170,-285) scale(1,1)"><g><path fill="none" stroke="none"/><text fill="#000000" stroke="none" font-family="Arial" font-size="13px" font-style="normal" font-weight="normal" text-decoration="none" x="564.5" y="305.5">power off</text></g></g></g></svg>