<svg version="1.1" xmlns="http://www.w3.org/2000/svg" xmlns:xlink="http://www.w3.org/1999/xlink" width="131" height="276"><defs/><g><text fill="#eeeeee" stroke="none" font-family="Arial" font-size="24px" font-style="normal" font-weight="normal" text-decoration="none" x="0" y="0">UNREGISTERED</text><text fill="#eeeeee" stroke="none" font-family="Arial" font-size="24px" font-style="normal" font-weight="normal" text-decoration="none" x="0" y="30">UNREGISTERED</text><text fill="#eeeeee" stroke="none" font-family="Arial" font-size="24px" font-style="normal" font-weight="normal" text-decoration="none" x="0" y="60">UNREGISTERED</text><text fill="#eeeeee" stroke="none" font-family="Arial" font-size="24px" font-style="normal" font-weight="normal" text-decoration="none" x="0" y="90">UNREGISTERED</text><text fill="#eeeeee" stroke="none" font-family="Arial" font-size="24px" font-style="normal" font-weight="normal" text-decoration="none" x="0" y="120">UNREGISTERED</text><text fill="#eeeeee" stroke="none" font-family="Arial" font-size="24px" font-style="normal" font-weight="normal" text-decoration="none" x="0" y="150">UNREGISTERED</text><text fill="#eeeeee" stroke="none" font-family="Arial" font-size="24px" font-style="normal" font-weight="normal" text-decoration="none" x="0" y="180">UNREGISTERED</text><text fill="#eeeeee" stroke="none" font-family="Arial" font-size="24px" font-style="normal" font-weight="normal" text-decoration="none" x="0" y="210">UNREGISTERED</text><text fill="#eeeeee" stroke="none" font-family="Arial" font-size="24px" font-style="normal" font-weight="normal" text-decoration="none" x="0" y="240">UNREGISTERED</text><text fill="#eeeeee" stroke="none" font-family="Arial" font-size="24px" font-style="normal" font-weight="normal" text-decoration="none" x="0" y="270">UNREGISTERED</text><g transform="translate(-246,-22) scale(1,1)"><path fill="#ffffff" stroke="none" d="M 272.5 32 L 327.13720703125 32 Q 343.63720703125 32 343.63720703125 48.5 L 343.63720703125 47.5 Q 343.63720703125 64 327.13720703125 64 L 272.5 64 Q 256 64 256 47.5 L 256 48.5 Q 256 32 272.5 32 Z"/></g><g transform="translate(-246,-22) scale(1,1)"><path fill="none" stroke="#000000" d="M 272.5 32 L 327.13720703125 32 Q 343.63720703125 32 343.63720703125 48.5 L 343.63720703125 47.5 Q 343.63720703125 64 327.13720703125 64 L 272.5 64 Q 256 64 256 47.5 L 256 48.5 Q 256 32 272.5 32 Z" stroke-miterlimit="10"/></g><g transform="translate(-246,-22) scale(1,1)"><g><path fill="none" stroke="none"/><text fill="#000000" stroke="none" font-family="Arial" font-size="13px" font-style="normal" font-weight="normal" text-decoration="none" x="287.17724609375" y="52.5">start</text></g></g><g transform="translate(-246,-22) scale(1,1)"><path fill="#ffffff" stroke="none" d="M 280.5 256 L 335.13720703125 256 Q 351.63720703125 256 351.63720703125 272.5 L 351.63720703125 271.5 Q 351.63720703125 288 335.13720703125 288 L 280.5 288 Q 264 288 264 271.5 L 264 272.5 Q 264 256 280.5 256 Z"/></g><g transform="translate(-246,-22) scale(1,1)"><path fill="none" stroke="#000000" d="M 280.5 256 L 335.13720703125 256 Q 351.63720703125 256 351.63720703125 272.5 L 351.63720703125 271.5 Q 351.63720703125 288 335.13720703125 288 L 280.5 288 Q 264 288 264 271.5 L 264 272.5 Q 264 256 280.5 256 Z" stroke-miterlimit="10"/></g><g transform="translate(-246,-22) scale(1,1)"><g><path fill="none" stroke="none"/><text fill="#000000" stroke="none" font-family="Arial" font-size="13px" font-style="normal" font-weight="normal" text-decoration="none" x="295.53271484375" y="276.5">stop</text></g></g><g transform="translate(-246,-22) scale(1,1)"><rect fill="#ffffff" stroke="none" x="256" y="120" width="111" height="63"/></g><g transform="translate(-246,-22) scale(1,1)"><path fill="none" stroke="#000000" d="M 256 120 L 367 120 L 367 183 L 256 183 L 256 120 Z Z" stroke-miterlimit="10"/></g><g transform="translate(-246,-22) scale(1,1)"><g><path fill="none" stroke="none"/><text fill="#000000" stroke="none" font-family="Arial" font-size="13px" font-style="normal" font-weight="normal" text-decoration="none" x="281.13916015625" y="141">do nothing</text></g></g><g transform="translate(-246,-22) scale(1,1)"><path fill="none" stroke="#000000" d="M 301 64 L 301 120" stroke-miterlimit="10"/></g><g transform="translate(-246,-22) scale(1,1)"><path fill="#000000" stroke="none" d="M 296.790482243984 109.83732514237585 L 301 120 L 305.209517756016 109.83732514237585"/></g><g transform="translate(-246,-22) scale(1,1)"><path fill="none" stroke="#000000" d="M 296.790482243984 109.83732514237585 L 301 120 L 305.209517756016 109.83732514237585 L 296.790482243984 109.83732514237585" stroke-miterlimit="10"/></g><g transform="translate(-246,-22) scale(1,1)"><path fill="none" stroke="#000000" d="M 310 183 L 310 256" stroke-miterlimit="10"/></g><g transform="translate(-246,-22) scale(1,1)"><path fill="#000000" stroke="none" d="M 305.790482243984 245.83732514237585 L 310 256 L 314.209517756016 245.83732514237585"/></g><g transform="translate(-246,-22) scale(1,1)"><path fill="none" stroke="#000000" d="M 305.790482243984 245.83732514237585 L 310 256 L 314.209517756016 245.83732514237585 L 305.790482243984 245.83732514237585" stroke-miterlimit="10"/></g></g></svg>