<svg version="1.1" xmlns="http://www.w3.org/2000/svg" xmlns:xlink="http://www.w3.org/1999/xlink" width="725" height="204"><defs/><g><text fill="#eeeeee" stroke="none" font-family="Arial" font-size="24px" font-style="normal" font-weight="normal" text-decoration="none" x="0" y="0">UNREGISTERED</text><text fill="#eeeeee" stroke="none" font-family="Arial" font-size="24px" font-style="normal" font-weight="normal" text-decoration="none" x="0" y="30">UNREGISTERED</text><text fill="#eeeeee" stroke="none" font-family="Arial" font-size="24px" font-style="normal" font-weight="normal" text-decoration="none" x="0" y="60">UNREGISTERED</text><text fill="#eeeeee" stroke="none" font-family="Arial" font-size="24px" font-style="normal" font-weight="normal" text-decoration="none" x="0" y="90">UNREGISTERED</text><text fill="#eeeeee" stroke="none" font-family="Arial" font-size="24px" font-style="normal" font-weight="normal" text-decoration="none" x="0" y="120">UNREGISTERED</text><text fill="#eeeeee" stroke="none" font-family="Arial" font-size="24px" font-style="normal" font-weight="normal" text-decoration="none" x="0" y="150">UNREGISTERED</text><text fill="#eeeeee" stroke="none" font-family="Arial" font-size="24px" font-style="normal" font-weight="normal" text-decoration="none" x="0" y="180">UNREGISTERED</text><text fill="#eeeeee" stroke="none" font-family="Arial" font-size="24px" font-style="normal" font-weight="normal" text-decoration="none" x="200" y="0">UNREGISTERED</text><text fill="#eeeeee" stroke="none" font-family="Arial" font-size="24px" font-style="normal" font-weight="normal" text-decoration="none" x="200" y="30">UNREGISTERED</text><text fill="#eeeeee" stroke="none" font-family="Arial" font-size="24px" font-style="normal" font-weight="normal" text-decoration="none" x="200" y="60">UNREGISTERED</text><text fill="#eeeeee" stroke="none" font-family="Arial" font-size="24px" font-style="normal" font-weight="normal" text-decoration="none" x="200" y="90">UNREGISTERED</text><text fill="#eeeeee" stroke="none" font-family="Arial" font-size="24px" font-style="normal" font-weight="normal" text-decoration="none" x="200" y="120">UNREGISTERED</text><text fill="#eeeeee" stroke="none" font-family="Arial" font-size="24px" font-style="normal" font-weight="normal" text-decoration="none" x="200" y="150">UNREGISTERED</text><text fill="#eeeeee" stroke="none" font-family="Arial" font-size="24px" font-style="normal" font-weight="normal" text-decoration="none" x="200" y="180">UNREGISTERED</text><text fill="#eeeeee" stroke="none" font-family="Arial" font-size="24px" font-style="normal" font-weight="normal" text-decoration="none" x="400" y="0">UNREGISTERED</text><text fill="#eeeeee" stroke="none" font-family="Arial" font-size="24px" font-style="normal" font-weight="normal" text-decoration="none" x="400" y="30">UNREGISTERED</text><text fill="#eeeeee" stroke="none" font-family="Arial" font-size="24px" font-style="normal" font-weight="normal" text-decoration="none" x="400" y="60">UNREGISTERED</text><text fill="#eeeeee" stroke="none" font-family="Arial" font-size="24px" font-style="normal" font-weight="normal" text-decoration="none" x="400" y="90">UNREGISTERED</text><text fill="#eeeeee" stroke="none" font-family="Arial" font-size="24px" font-style="normal" font-weight="normal" text-decoration="none" x="400" y="120">UNREGISTERED</text><text fill="#eeeeee" stroke="none" font-family="Arial" font-size="24px" font-style="normal" font-weight="normal" text-decoration="none" x="400" y="150">UNREGISTERED</text><text fill="#eeeeee" stroke="none" font-family="Arial" font-size="24px" font-style="normal" font-weight="normal" text-decoration="none" x="400" y="180">UNREGISTERED</text><text fill="#eeeeee" stroke="none" font-family="Arial" font-size="24px" font-style="normal" font-weight="normal" text-decoration="none" x="600" y="0">UNREGISTERED</text><text fill="#eeeeee" stroke="none" font-family="Arial" font-size="24px" font-style="normal" font-weight="normal" text-decoration="none" x="600" y="30">UNREGISTERED</text><text fill="#eeeeee" stroke="none" font-family="Arial" font-size="24px" font-style="normal" font-weight="normal" text-decoration="none" x="600" y="60">UNREGISTERED</text><text fill="#eeeeee" stroke="none" font-family="Arial" font-size="24px" font-style="normal" font-weight="normal" text-decoration="none" x="600" y="90">UNREGISTERED</text><text fill="#eeeeee" stroke="none" font-family="Arial" font-size="24px" font-style="normal" font-weight="normal" text-decoration="none" x="600" y="120">UNREGISTERED</text><text fill="#eeeeee" stroke="none" font-family="Arial" font-size="24px" font-style="normal" font-weight="normal" text-decoration="none" x="600" y="150">UNREGISTERED</text><text fill="#eeeeee" stroke="none" font-family="Arial" font-size="24px" font-style="normal" font-weight="normal" text-decoration="none" x="600" y="180">UNREGISTERED</text><g transform="translate(-103,-214) scale(1,1)"><path fill="none" stroke="#000000" d="M 120 224 L 811 224 L 811 408 L 120 408 L 120 224" stroke-miterlimit="10"/></g><g transform="translate(-103,-214) scale(1,1)"><path fill="#ffffff" stroke="none" d="M 120 224 L 120 246 L 240.7998046875 246 L 251.7998046875 235 L 251.7998046875 224 L 120 224"/></g><g transform="translate(-103,-214) scale(1,1)"><path fill="none" stroke="#000000" d="M 120 224 L 120 246 L 240.7998046875 246 L 251.7998046875 235 L 251.7998046875 224 L 120 224 L 120 224" stroke-miterlimit="10"/></g><g transform="translate(-103,-214) scale(1,1)"><g><path fill="none" stroke="none"/><text fill="#000000" stroke="none" font-family="Arial" font-size="13px" font-style="normal" font-weight="normal" text-decoration="none" x="148.34814453125" y="240">Load Cell Input</text></g></g><g transform="translate(-103,-214) scale(1,1)"><g><path fill="none" stroke="none"/><text fill="#000000" stroke="none" font-family="Arial" font-size="13px" font-style="normal" font-weight="bold" text-decoration="none" x="123.92724609375" y="240">ibd</text></g></g><g transform="translate(-103,-214) scale(1,1)"><rect fill="#ffffff" stroke="none" x="804" y="313" width="14" height="14"/></g><g transform="translate(-103,-214) scale(1,1)"><path fill="none" stroke="#000000" d="M 804 313 L 818 313 L 818 327 L 804 327 L 804 313 Z Z" stroke-miterlimit="10"/></g><g transform="translate(-103,-214) scale(1,1)"><g><path fill="none" stroke="none"/><text fill="#000000" stroke="none" font-family="Arial" font-size="13px" font-style="normal" font-weight="normal" text-decoration="none" x="750.9609375" y="338.5">serial port</text></g></g><g transform="translate(-103,-214) scale(1,1)"><rect fill="#C0C0C0" stroke="none" x="385" y="313" width="63.89453125" height="24" opacity="0.2"/></g><g transform="translate(-103,-214) scale(1,1)"><rect fill="#ffffff" stroke="none" x="368" y="296" width="83.89453125" height="44"/></g><g transform="translate(-103,-214) scale(1,1)"><path fill="none" stroke="#000000" d="M 368 296 L 451.89453125 296 L 451.89453125 340 L 368 340 L 368 296 Z Z" stroke-miterlimit="10"/></g><g transform="translate(-103,-214) scale(1,1)"><g><path fill="none" stroke="none"/><text fill="#000000" stroke="none" font-family="Arial" font-size="13px" font-style="normal" font-weight="bold" text-decoration="none" x="382.5" y="324">LoadCell</text></g></g><g transform="translate(-103,-214) scale(1,1)"><rect fill="#C0C0C0" stroke="none" x="561" y="313" width="104.37353515625" height="24" opacity="0.2"/></g><g transform="translate(-103,-214) scale(1,1)"><rect fill="#ffffff" stroke="none" x="544" y="296" width="124.37353515625" height="44"/></g><g transform="translate(-103,-214) scale(1,1)"><path fill="none" stroke="#000000" d="M 544 296 L 668.37353515625 296 L 668.37353515625 340 L 544 340 L 544 296 Z Z" stroke-miterlimit="10"/></g><g transform="translate(-103,-214) scale(1,1)"><g><path fill="none" stroke="none"/><text fill="#000000" stroke="none" font-family="Arial" font-size="13px" font-style="normal" font-weight="bold" text-decoration="none" x="558.5" y="324">HX711Amplifier</text></g></g><g transform="translate(-103,-214) scale(1,1)"><path fill="none" stroke="#000000" d="M 453 318 L 543 318" stroke-miterlimit="10"/></g><g transform="translate(-103,-214) scale(1,1)"><g><path fill="none" stroke="none"/><text fill="#000000" stroke="none" font-family="Arial" font-size="13px" font-style="normal" font-weight="normal" text-decoration="none" x="459.2958984375" y="308">analog signal</text></g></g><g transform="translate(-103,-214) scale(1,1)"><path fill="none" stroke="#000000" d="M 669 319 L 803 320" stroke-miterlimit="10"/></g><g transform="translate(-103,-214) scale(1,1)"><g><path fill="none" stroke="none"/><text fill="#000000" stroke="none" font-family="Arial" font-size="13px" font-style="normal" font-weight="normal" text-decoration="none" x="691.2958984375" y="307">digital signal</text></g></g><g transform="translate(-103,-214) scale(1,1)"><rect fill="#C0C0C0" stroke="none" x="217" y="313" width="43.68359375" height="24" opacity="0.2"/></g><g transform="translate(-103,-214) scale(1,1)"><rect fill="#ffffff" stroke="none" x="200" y="296" width="63.68359375" height="44"/></g><g transform="translate(-103,-214) scale(1,1)"><path fill="none" stroke="#000000" d="M 200 296 L 263.68359375 296 L 263.68359375 340 L 200 340 L 200 296 Z Z" stroke-miterlimit="10"/></g><g transform="translate(-103,-214) scale(1,1)"><g><path fill="none" stroke="none"/><text fill="#000000" stroke="none" font-family="Arial" font-size="13px" font-style="normal" font-weight="bold" text-decoration="none" x="214.5" y="324">Pedal</text></g></g><g transform="translate(-103,-214) scale(1,1)"><path fill="none" stroke="#000000" d="M 265 318 L 367 318" stroke-miterlimit="10"/></g><g transform="translate(-103,-214) scale(1,1)"><g><path fill="none" stroke="none"/><text fill="#000000" stroke="none" font-family="Arial" font-size="13px" font-style="normal" font-weight="normal" text-decoration="none" x="301.2958984375" y="308">force</text></g></g><g transform="translate(-103,-214) scale(1,1)"><rect fill="#ffffff" stroke="none" x="113" y="312" width="14" height="14"/></g><g transform="translate(-103,-214) scale(1,1)"><path fill="none" stroke="#000000" d="M 113 312 L 127 312 L 127 326 L 113 326 L 113 312 Z Z" stroke-miterlimit="10"/></g><g transform="translate(-103,-214) scale(1,1)"><g><path fill="none" stroke="none"/><text fill="#000000" stroke="none" font-family="Arial" font-size="13px" font-style="normal" font-weight="normal" text-decoration="none" x="110.95458984375" y="337.5">user input</text></g></g><g transform="translate(-103,-214) scale(1,1)"><path fill="none" stroke="#000000" d="M 128 319 L 199 318" stroke-miterlimit="10"/></g><g transform="translate(-103,-214) scale(1,1)"><g><path fill="none" stroke="none"/><text fill="#000000" stroke="none" font-family="Arial" font-size="13px" font-style="normal" font-weight="normal" text-decoration="none" x="145.2958984375" y="306">force</text></g></g></g></svg>