<svg version="1.1" xmlns="http://www.w3.org/2000/svg" xmlns:xlink="http://www.w3.org/1999/xlink" width="227" height="180"><defs/><g><text fill="#eeeeee" stroke="none" font-family="Arial" font-size="24px" font-style="normal" font-weight="normal" text-decoration="none" x="0" y="0">UNREGISTERED</text><text fill="#eeeeee" stroke="none" font-family="Arial" font-size="24px" font-style="normal" font-weight="normal" text-decoration="none" x="0" y="30">UNREGISTERED</text><text fill="#eeeeee" stroke="none" font-family="Arial" font-size="24px" font-style="normal" font-weight="normal" text-decoration="none" x="0" y="60">UNREGISTERED</text><text fill="#eeeeee" stroke="none" font-family="Arial" font-size="24px" font-style="normal" font-weight="normal" text-decoration="none" x="0" y="90">UNREGISTERED</text><text fill="#eeeeee" stroke="none" font-family="Arial" font-size="24px" font-style="normal" font-weight="normal" text-decoration="none" x="0" y="120">UNREGISTERED</text><text fill="#eeeeee" stroke="none" font-family="Arial" font-size="24px" font-style="normal" font-weight="normal" text-decoration="none" x="0" y="150">UNREGISTERED</text><text fill="#eeeeee" stroke="none" font-family="Arial" font-size="24px" font-style="normal" font-weight="normal" text-decoration="none" x="200" y="0">UNREGISTERED</text><text fill="#eeeeee" stroke="none" font-family="Arial" font-size="24px" font-style="normal" font-weight="normal" text-decoration="none" x="200" y="30">UNREGISTERED</text><text fill="#eeeeee" stroke="none" font-family="Arial" font-size="24px" font-style="normal" font-weight="normal" text-decoration="none" x="200" y="60">UNREGISTERED</text><text fill="#eeeeee" stroke="none" font-family="Arial" font-size="24px" font-style="normal" font-weight="normal" text-decoration="none" x="200" y="90">UNREGISTERED</text><text fill="#eeeeee" stroke="none" font-family="Arial" font-size="24px" font-style="normal" font-weight="normal" text-decoration="none" x="200" y="120">UNREGISTERED</text><text fill="#eeeeee" stroke="none" font-family="Arial" font-size="24px" font-style="normal" font-weight="normal" text-decoration="none" x="200" y="150">UNREGISTERED</text><g transform="translate(-270,-102) scale(1,1)"><rect fill="#C0C0C0" stroke="none" x="287" y="119" width="89.57080078125" height="160" opacity="0.2"/></g><g transform="translate(-270,-102) scale(1,1)"><rect fill="#ffffff" stroke="none" x="280" y="112" width="89.57080078125" height="160"/></g><g transform="translate(-270,-102) scale(1,1)"><path fill="none" stroke="#000000" d="M 280 112 L 369.57080078125 112 L 369.57080078125 272 L 280 272 L 280 112 Z Z" stroke-miterlimit="10"/></g><g transform="translate(-270,-102) scale(1,1)"><path fill="none" stroke="#000000" d="M 280 137 L 369.57080078125 137" stroke-miterlimit="10"/></g><g transform="translate(-270,-102) scale(1,1)"><path fill="none" stroke="#000000" d="M 280 205 L 369.57080078125 205" stroke-miterlimit="10"/></g><g transform="translate(-270,-102) scale(1,1)"><g><path fill="none" stroke="none"/><text fill="#000000" stroke="none" font-family="Arial" font-size="13px" font-style="normal" font-weight="bold" text-decoration="none" x="303.825439453125" y="130">Class1</text></g></g><g transform="translate(-270,-102) scale(1,1)"><g><path fill="none" stroke="none"/><text fill="#000000" stroke="none" font-family="Arial" font-size="13px" font-style="normal" font-weight="normal" text-decoration="none" x="285" y="153">-Attribute1</text></g></g><g transform="translate(-270,-102) scale(1,1)"><g><path fill="none" stroke="none"/><text fill="#000000" stroke="none" font-family="Arial" font-size="13px" font-style="normal" font-weight="normal" text-decoration="none" x="285" y="168">-Attribute2</text></g></g><g transform="translate(-270,-102) scale(1,1)"><g><path fill="none" stroke="none"/><text fill="#000000" stroke="none" font-family="Arial" font-size="13px" font-style="normal" font-weight="normal" text-decoration="none" x="285" y="183">-Attribute3</text></g></g><g transform="translate(-270,-102) scale(1,1)"><g><path fill="none" stroke="none"/><text fill="#000000" stroke="none" font-family="Arial" font-size="13px" font-style="normal" font-weight="normal" text-decoration="none" x="285" y="198">-Attribute4</text></g></g><g transform="translate(-270,-102) scale(1,1)"><g><path fill="none" stroke="none"/><text fill="#000000" stroke="none" font-family="Arial" font-size="13px" font-style="normal" font-weight="normal" text-decoration="none" x="285" y="221">+Operation1()</text></g></g><g transform="translate(-270,-102) scale(1,1)"><g><path fill="none" stroke="none"/><text fill="#000000" stroke="none" font-family="Arial" font-size="13px" font-style="normal" font-weight="normal" text-decoration="none" x="285" y="236">+Operation2()</text></g></g><g transform="translate(-270,-102) scale(1,1)"><g><path fill="none" stroke="none"/><text fill="#000000" stroke="none" font-family="Arial" font-size="13px" font-style="normal" font-weight="normal" text-decoration="none" x="285" y="251">+Operation3()</text></g></g><g transform="translate(-270,-102) scale(1,1)"><g><path fill="none" stroke="none"/><text fill="#000000" stroke="none" font-family="Arial" font-size="13px" font-style="normal" font-weight="normal" text-decoration="none" x="285" y="266">+Operation4()</text></g></g><g transform="translate(-270,-102) scale(1,1)"><rect fill="#C0C0C0" stroke="none" x="407" y="119" width="87" height="119" opacity="0.2"/></g><g transform="translate(-270,-102) scale(1,1)"><rect fill="#ffffff" stroke="none" x="400" y="112" width="87" height="119"/></g><g transform="translate(-270,-102) scale(1,1)"><path fill="none" stroke="#000000" d="M 400 112 L 487 112 L 487 231 L 400 231 L 400 112 Z Z" stroke-miterlimit="10"/></g><g transform="translate(-270,-102) scale(1,1)"><path fill="none" stroke="#000000" d="M 400 137 L 487 137" stroke-miterlimit="10"/></g><g transform="translate(-270,-102) scale(1,1)"><path fill="none" stroke="#000000" d="M 400 175 L 487 175" stroke-miterlimit="10"/></g><g transform="translate(-270,-102) scale(1,1)"><g><path fill="none" stroke="none"/><text fill="#000000" stroke="none" font-family="Arial" font-size="13px" font-style="normal" font-weight="bold" text-decoration="none" x="422.5400390625" y="130">Class2</text></g></g><g transform="translate(-270,-102) scale(1,1)"><g><path fill="none" stroke="none"/><text fill="#000000" stroke="none" font-family="Arial" font-size="13px" font-style="normal" font-weight="normal" text-decoration="none" x="405" y="153">+Attribute1</text></g></g><g transform="translate(-270,-102) scale(1,1)"><g><path fill="none" stroke="none"/><text fill="#000000" stroke="none" font-family="Arial" font-size="13px" font-style="normal" font-weight="normal" text-decoration="none" x="405" y="168">+Attribute2</text></g></g></g></svg>